<svg width="44" height="44" viewBox="0 0 44 44" fill="none" xmlns="http://www.w3.org/2000/svg">
<path d="M18.2502 28.6667H13.6668C13.4458 28.6667 13.2339 28.579 13.0776 28.4227C12.9213 28.2664 12.8335 28.0544 12.8335 27.8334V22.0001C12.8335 21.7791 12.9213 21.5671 13.0776 21.4108C13.2339 21.2545 13.4458 21.1667 13.6668 21.1667H18.2502C19.2447 21.1667 20.1986 21.5618 20.9018 22.2651C21.6051 22.9684 22.0002 23.9222 22.0002 24.9167C22.0002 25.9113 21.6051 26.8651 20.9018 27.5684C20.1986 28.2717 19.2447 28.6667 18.2502 28.6667ZM14.5002 27.0001H18.2502C18.8027 27.0001 19.3326 26.7806 19.7233 26.3899C20.114 25.9992 20.3335 25.4693 20.3335 24.9167C20.3335 24.3642 20.114 23.8343 19.7233 23.4436C19.3326 23.0529 18.8027 22.8334 18.2502 22.8334H14.5002V27.0001Z" fill="#658864"/>
<path d="M17.8335 22.8334H13.6668C13.4458 22.8334 13.2339 22.7456 13.0776 22.5893C12.9213 22.4331 12.8335 22.2211 12.8335 22.0001V17.0001C12.8335 16.7791 12.9213 16.5671 13.0776 16.4108C13.2339 16.2545 13.4458 16.1667 13.6668 16.1667H17.8335C18.7176 16.1667 19.5654 16.5179 20.1905 17.1431C20.8156 17.7682 21.1668 18.616 21.1668 19.5001C21.1668 20.3841 20.8156 21.232 20.1905 21.8571C19.5654 22.4822 18.7176 22.8334 17.8335 22.8334ZM14.5002 21.1667H17.8335C18.2755 21.1667 18.6994 20.9912 19.012 20.6786C19.3246 20.366 19.5002 19.9421 19.5002 19.5001C19.5002 19.0581 19.3246 18.6341 19.012 18.3216C18.6994 18.009 18.2755 17.8334 17.8335 17.8334H14.5002V21.1667ZM28.6668 17.8334H25.3335C25.1125 17.8334 24.9005 17.7456 24.7442 17.5893C24.588 17.4331 24.5002 17.2211 24.5002 17.0001C24.5002 16.7791 24.588 16.5671 24.7442 16.4108C24.9005 16.2545 25.1125 16.1667 25.3335 16.1667H28.6668C28.8878 16.1667 29.0998 16.2545 29.2561 16.4108C29.4124 16.5671 29.5002 16.7791 29.5002 17.0001C29.5002 17.2211 29.4124 17.4331 29.2561 17.5893C29.0998 17.7456 28.8878 17.8334 28.6668 17.8334ZM30.3335 23.6667H23.6668C23.4458 23.6667 23.2339 23.579 23.0776 23.4227C22.9213 23.2664 22.8335 23.0544 22.8335 22.8334C22.8335 22.6124 22.9213 22.4004 23.0776 22.2442C23.2339 22.0879 23.4458 22.0001 23.6668 22.0001H30.3335C30.5545 22.0001 30.7665 22.0879 30.9228 22.2442C31.079 22.4004 31.1668 22.6124 31.1668 22.8334C31.1668 23.0544 31.079 23.2664 30.9228 23.4227C30.7665 23.579 30.5545 23.6667 30.3335 23.6667Z" fill="#658864"/>
<path d="M27.0002 28.6667C25.8955 28.6654 24.8365 28.226 24.0553 27.4449C23.2742 26.6638 22.8348 25.6047 22.8335 24.5001V22.8334C22.8335 21.7283 23.2725 20.6685 24.0539 19.8871C24.8353 19.1057 25.8951 18.6667 27.0002 18.6667C28.1052 18.6667 29.165 19.1057 29.9464 19.8871C30.7278 20.6685 31.1668 21.7283 31.1668 22.8334C31.1668 23.0544 31.079 23.2664 30.9228 23.4227C30.7665 23.579 30.5545 23.6667 30.3335 23.6667C30.1125 23.6667 29.9005 23.579 29.7442 23.4227C29.588 23.2664 29.5002 23.0544 29.5002 22.8334C29.5002 22.1704 29.2368 21.5345 28.7679 21.0656C28.2991 20.5968 27.6632 20.3334 27.0002 20.3334C26.3371 20.3334 25.7012 20.5968 25.2324 21.0656C24.7636 21.5345 24.5002 22.1704 24.5002 22.8334V24.5001C24.4999 25.108 24.7213 25.6952 25.1229 26.1516C25.5245 26.6081 26.0787 26.9024 26.6818 26.9794C27.2848 27.0565 27.8953 26.911 28.3988 26.5703C28.9023 26.2295 29.2642 25.7169 29.4168 25.1284C29.4712 24.914 29.6085 24.73 29.7985 24.6169C29.9886 24.5037 30.2158 24.4707 30.4302 24.5251C30.6445 24.5795 30.8285 24.7168 30.9417 24.9068C31.0548 25.0968 31.0879 25.324 31.0335 25.5384C30.8052 26.4343 30.2845 27.2285 29.554 27.7951C28.8234 28.3618 27.9247 28.6685 27.0002 28.6667Z" fill="#658864"/>
<rect x="0.5" y="0.5" width="43" height="43" rx="21.5" stroke="#658864"/>
</svg>
