<svg width="33" height="32" viewBox="0 0 33 32" fill="none" xmlns="http://www.w3.org/2000/svg">
<g clip-path="url(#clip0_288_309)">
<path d="M25.389 26.6666H5.83344V7.11109H17.5846L19.3623 5.33331H5.83344C5.36195 5.33331 4.90976 5.52061 4.57636 5.85401C4.24297 6.18741 4.05566 6.63959 4.05566 7.11109V26.6666C4.05566 27.1381 4.24297 27.5903 4.57636 27.9237C4.90976 28.2571 5.36195 28.4444 5.83344 28.4444H25.389C25.8605 28.4444 26.3127 28.2571 26.6461 27.9237C26.9795 27.5903 27.1668 27.1381 27.1668 26.6666V13.3333L25.389 15.1111V26.6666Z" fill="#658864"/>
<path d="M30.3047 5.19113L27.3091 2.19557C27.1762 2.06227 27.0182 1.9565 26.8444 1.88434C26.6705 1.81217 26.4841 1.77502 26.2958 1.77502C26.1075 1.77502 25.9211 1.81217 25.7472 1.88434C25.5733 1.9565 25.4154 2.06227 25.2825 2.19557L13.0958 14.4534L12.1091 18.7289C12.0671 18.9362 12.0715 19.1502 12.1221 19.3555C12.1726 19.5608 12.2681 19.7524 12.4015 19.9165C12.5349 20.0805 12.7031 20.213 12.8938 20.3042C13.0846 20.3955 13.2932 20.4434 13.5047 20.4445C13.614 20.4565 13.7243 20.4565 13.8336 20.4445L18.1447 19.4934L30.3047 7.2178C30.438 7.08485 30.5438 6.92692 30.6159 6.75303C30.6881 6.57914 30.7252 6.39273 30.7252 6.20446C30.7252 6.0162 30.6881 5.82978 30.6159 5.65589C30.5438 5.48201 30.438 5.32407 30.3047 5.19113ZM17.2202 17.8489L13.9669 18.5689L14.7225 15.3422L23.8958 6.10669L26.4025 8.61335L17.2202 17.8489ZM27.4069 7.60891L24.9002 5.10224L26.278 3.6978L28.8025 6.22224L27.4069 7.60891Z" fill="#658864"/>
</g>
<defs>
<clipPath id="clip0_288_309">
<rect width="32" height="32" fill="white" transform="translate(0.5)"/>
</clipPath>
</defs>
</svg>
