<svg width="33" height="32" viewBox="0 0 33 32" fill="none" xmlns="http://www.w3.org/2000/svg">
<path d="M28.4998 28L22.7091 22.2093M22.7091 22.2093C23.6996 21.2188 24.4854 20.0429 25.0214 18.7487C25.5575 17.4545 25.8334 16.0674 25.8334 14.6666C25.8334 13.2658 25.5575 11.8787 25.0214 10.5846C24.4854 9.2904 23.6996 8.11449 22.7091 7.12397C21.7186 6.13345 20.5427 5.34773 19.2485 4.81167C17.9543 4.2756 16.5673 3.99969 15.1665 3.99969C13.7657 3.99969 12.3786 4.2756 11.0844 4.81167C9.79022 5.34773 8.6143 6.13345 7.62379 7.12397C5.62335 9.12441 4.49951 11.8376 4.49951 14.6666C4.49951 17.4957 5.62335 20.2089 7.62379 22.2093C9.62423 24.2097 12.3374 25.3336 15.1665 25.3336C17.9955 25.3336 20.7087 24.2097 22.7091 22.2093Z" stroke="#658864" stroke-opacity="0.3" stroke-width="2" stroke-linecap="round" stroke-linejoin="round"/>
</svg>
