<svg width="44" height="44" viewBox="0 0 44 44" fill="none" xmlns="http://www.w3.org/2000/svg">
<path d="M28.6665 15.3333H15.3332C14.4165 15.3333 13.6748 16.0833 13.6748 16.9999L13.6665 26.9999C13.6665 27.9166 14.4165 28.6666 15.3332 28.6666H28.6665C29.5832 28.6666 30.3332 27.9166 30.3332 26.9999V16.9999C30.3332 16.0833 29.5832 15.3333 28.6665 15.3333ZM28.3332 18.8749L22.4415 22.5583C22.1748 22.7249 21.8248 22.7249 21.5582 22.5583L15.6665 18.8749C15.5829 18.828 15.5098 18.7646 15.4514 18.6886C15.3931 18.6126 15.3507 18.5256 15.327 18.4327C15.3032 18.3399 15.2986 18.2432 15.3133 18.1485C15.328 18.0538 15.3618 17.9631 15.4126 17.8818C15.4634 17.8006 15.5301 17.7305 15.6088 17.6757C15.6874 17.621 15.7764 17.5828 15.8703 17.5635C15.9641 17.5442 16.0609 17.5441 16.1548 17.5632C16.2487 17.5824 16.3377 17.6204 16.4165 17.6749L21.9998 21.1666L27.5832 17.6749C27.662 17.6204 27.751 17.5824 27.8449 17.5632C27.9388 17.5441 28.0356 17.5442 28.1294 17.5635C28.2233 17.5828 28.3122 17.621 28.3909 17.6757C28.4696 17.7305 28.5363 17.8006 28.5871 17.8818C28.6379 17.9631 28.6717 18.0538 28.6864 18.1485C28.7011 18.2432 28.6964 18.3399 28.6727 18.4327C28.649 18.5256 28.6066 18.6126 28.5483 18.6886C28.4899 18.7646 28.4167 18.828 28.3332 18.8749Z" fill="#658864"/>
<rect x="0.5" y="0.5" width="43" height="43" rx="21.5" stroke="#658864"/>
</svg>
