<svg width="33" height="32" viewBox="0 0 33 32" fill="none" xmlns="http://www.w3.org/2000/svg">
<path d="M12.7585 6.53876C12.7585 7.4773 13.1527 8.3774 13.8544 9.04105C14.556 9.70469 15.5077 10.0775 16.5 10.0775C17.4923 10.0775 18.444 9.70469 19.1456 9.04105C19.8473 8.3774 20.2415 7.4773 20.2415 6.53876C20.2415 5.60022 19.8473 4.70013 19.1456 4.03648C18.444 3.37283 17.4923 3 16.5 3C15.5077 3 14.556 3.37283 13.8544 4.03648C13.1527 4.70013 12.7585 5.60022 12.7585 6.53876ZM16.5 29L24.1252 21.7866C24.5589 21.3817 24.9036 20.8996 25.1396 20.3681C25.3755 19.8367 25.498 19.2664 25.5 18.69C25.5019 18.1136 25.3834 17.5425 25.1511 17.0096C24.9188 16.4767 24.5773 15.9926 24.1464 15.585C23.7155 15.1774 23.2036 14.8545 22.6402 14.6348C22.0768 14.4151 21.473 14.3029 20.8635 14.3048C20.2541 14.3066 19.6511 14.4225 19.0892 14.6456C18.5273 14.8688 18.0177 15.1949 17.5895 15.6051L16.5 16.6341L15.4105 15.6051C14.9823 15.1949 14.4727 14.8688 13.9108 14.6456C13.3489 14.4225 12.7459 14.3066 12.1365 14.3048C11.527 14.3029 10.9232 14.4151 10.3598 14.6348C9.79643 14.8545 9.28453 15.1774 8.85361 15.585C8.42268 15.9926 8.08124 16.4767 7.84893 17.0096C7.61663 17.5425 7.49805 18.1136 7.50002 18.69C7.502 19.2664 7.62448 19.8367 7.86043 20.3681C8.09637 20.8996 8.44112 21.3817 8.87483 21.7866L16.5 29Z" stroke="#658864" stroke-width="1.99999" stroke-linecap="round" stroke-linejoin="round"/>
</svg>
