<svg width="33" height="33" viewBox="0 0 33 33" fill="none" xmlns="http://www.w3.org/2000/svg">
<path d="M12.7585 6.5766C12.7585 7.51514 13.1527 8.41524 13.8544 9.07889C14.556 9.74253 15.5077 10.1154 16.5 10.1154C17.4923 10.1154 18.444 9.74253 19.1456 9.07889C19.8473 8.41524 20.2415 7.51514 20.2415 6.5766C20.2415 5.63807 19.8473 4.73797 19.1456 4.07432C18.444 3.41067 17.4923 3.03784 16.5 3.03784C15.5077 3.03784 14.556 3.41067 13.8544 4.07432C13.1527 4.73797 12.7585 5.63807 12.7585 6.5766ZM16.5 29.0378L24.1252 21.8244C24.5589 21.4195 24.9036 20.9374 25.1396 20.406C25.3755 19.8745 25.498 19.3042 25.5 18.7278C25.5019 18.1514 25.3834 17.5803 25.1511 17.0475C24.9188 16.5146 24.5773 16.0304 24.1464 15.6228C23.7155 15.2153 23.2036 14.8923 22.6402 14.6726C22.0768 14.4529 21.473 14.3407 20.8635 14.3426C20.2541 14.3445 19.6511 14.4603 19.0892 14.6835C18.5273 14.9066 18.0177 15.2327 17.5895 15.6429L16.5 16.672L15.4105 15.6429C14.9823 15.2327 14.4727 14.9066 13.9108 14.6835C13.3489 14.4603 12.7459 14.3445 12.1365 14.3426C11.527 14.3407 10.9232 14.4529 10.3598 14.6726C9.79643 14.8923 9.28453 15.2153 8.85361 15.6228C8.42268 16.0304 8.08124 16.5146 7.84893 17.0475C7.61663 17.5803 7.49805 18.1514 7.50002 18.7278C7.502 19.3042 7.62448 19.8745 7.86043 20.406C8.09637 20.9374 8.44112 21.4195 8.87483 21.8244L16.5 29.0378Z" stroke="#658864" stroke-opacity="0.3" stroke-width="1.99999" stroke-linecap="round" stroke-linejoin="round"/>
</svg>
