<svg width="70" height="70" viewBox="0 0 70 70" fill="none" xmlns="http://www.w3.org/2000/svg">
<g clip-path="url(#clip0_122_158)">
<path d="M16.288 31.4L2.848 25.416C2.10133 25.0747 1.728 24.5307 1.728 23.784C1.728 23.4213 1.824 23.112 2.016 22.856C2.208 22.6 2.48533 22.3867 2.848 22.216L16.288 16.232C16.5653 16.104 16.8213 16.072 17.056 16.136C17.2907 16.2 17.472 16.3173 17.6 16.488C17.728 16.6587 17.8027 16.8613 17.824 17.096C17.8453 17.3307 17.8027 17.5547 17.696 17.768C17.5893 17.9813 17.3973 18.1413 17.12 18.248L2.88 24.552V23.08L17.12 29.384C17.3973 29.4907 17.5893 29.6507 17.696 29.864C17.8027 30.0773 17.8453 30.3013 17.824 30.536C17.8027 30.7493 17.728 30.952 17.6 31.144C17.472 31.3147 17.2907 31.432 17.056 31.496C16.8213 31.56 16.5653 31.528 16.288 31.4Z" fill="#658864"/>
<path d="M52.944 56.4C52.6453 56.528 52.3787 56.56 52.144 56.496C51.9307 56.432 51.7493 56.3147 51.6 56.144C51.472 55.952 51.3973 55.7493 51.376 55.536C51.376 55.3013 51.4293 55.0773 51.536 54.864C51.6427 54.6507 51.8347 54.4907 52.112 54.384L66.352 48.08V49.552L52.112 43.248C51.8347 43.1413 51.6427 42.9813 51.536 42.768C51.4293 42.5547 51.376 42.3307 51.376 42.096C51.3973 41.8613 51.472 41.6587 51.6 41.488C51.7493 41.3173 51.9307 41.2 52.144 41.136C52.3787 41.072 52.6453 41.104 52.944 41.232L66.352 47.216C67.12 47.536 67.504 48.0587 67.504 48.784C67.504 49.168 67.408 49.4987 67.216 49.776C67.024 50.032 66.736 50.2453 66.352 50.416L52.944 56.4Z" fill="#658864"/>
<path d="M31.984 46.056C31.8773 46.376 31.7173 46.6 31.504 46.728C31.312 46.856 31.088 46.92 30.832 46.92C30.576 46.92 30.3413 46.856 30.128 46.728C29.936 46.6213 29.7973 46.4507 29.712 46.216C29.6267 45.9813 29.6267 45.6933 29.712 45.352L37.264 21.896C37.3707 21.5973 37.5307 21.384 37.744 21.256C37.9573 21.1067 38.1813 21.032 38.416 21.032C38.672 21.032 38.9067 21.096 39.12 21.224C39.3333 21.352 39.4827 21.5333 39.568 21.768C39.6533 21.9813 39.6533 22.2587 39.568 22.6L31.984 46.056Z" fill="#CC4D23"/>
</g>
<defs>
<clipPath id="clip0_122_158">
<rect width="70" height="70" fill="white"/>
</clipPath>
</defs>
</svg>
