<svg width="32" height="32" viewBox="0 0 32 32" fill="none" xmlns="http://www.w3.org/2000/svg">
<path d="M14.0114 10.0381C14.0114 10.3247 14.1252 10.5996 14.3279 10.8023C14.5306 11.005 14.8055 11.1188 15.0921 11.1188C15.3788 11.1188 15.6537 11.005 15.8564 10.8023C16.059 10.5996 16.1729 10.3247 16.1729 10.0381C16.1729 9.75144 16.059 9.47655 15.8564 9.27387C15.6537 9.07119 15.3788 8.95732 15.0921 8.95732C14.8055 8.95732 14.5306 9.07119 14.3279 9.27387C14.1252 9.47655 14.0114 9.75144 14.0114 10.0381ZM21.937 10.0381C21.937 10.3247 22.0509 10.5996 22.2536 10.8023C22.4562 11.005 22.7311 11.1188 23.0178 11.1188C23.3044 11.1188 23.5793 11.005 23.782 10.8023C23.9847 10.5996 24.0985 10.3247 24.0985 10.0381C24.0985 9.75144 23.9847 9.47655 23.782 9.27387C23.5793 9.07119 23.3044 8.95732 23.0178 8.95732C22.7311 8.95732 22.4562 9.07119 22.2536 9.27387C22.0509 9.47655 21.937 9.75144 21.937 10.0381ZM19.055 2C13.4845 2 8.96777 6.51663 8.96777 12.087C8.96777 17.6574 13.4845 22.174 19.055 22.174C24.6254 22.174 29.1421 17.6574 29.1421 12.087C29.1421 6.51663 24.6254 2 19.055 2ZM24.9767 18.0086C24.2066 18.7786 23.3105 19.3821 22.313 19.8053C21.284 20.2422 20.1875 20.4628 19.055 20.4628C17.9224 20.4628 16.8259 20.2422 15.7946 19.8053C14.7987 19.3847 13.894 18.7745 13.131 18.0086C12.3609 17.2386 11.7575 16.3424 11.3342 15.345C10.8996 14.316 10.679 13.2195 10.679 12.087C10.679 10.9545 10.8996 9.85795 11.3365 8.82674C11.7571 7.8308 12.3673 6.92615 13.1332 6.16314C13.9033 5.3931 14.7994 4.78968 15.7969 4.36639C16.8259 3.93184 17.9224 3.71119 19.055 3.71119C20.1875 3.71119 21.284 3.93184 22.3153 4.36864C23.3112 4.78925 24.2159 5.39949 24.9789 6.16539C25.749 6.93542 26.3524 7.83154 26.7757 8.82899C27.2103 9.85795 27.4309 10.9545 27.4309 12.087C27.4309 13.2195 27.2103 14.316 26.7735 15.3473C26.3533 16.3428 25.743 17.2468 24.9767 18.0086ZM22.4774 12.5598H21.3944C21.2998 12.5598 21.2187 12.6319 21.212 12.7264C21.1264 13.841 20.192 14.7213 19.055 14.7213C17.9179 14.7213 16.9812 13.841 16.8979 12.7264C16.8912 12.6319 16.8101 12.5598 16.7155 12.5598H15.6325C15.6081 12.5598 15.5839 12.5647 15.5614 12.5743C15.539 12.584 15.5187 12.598 15.5019 12.6157C15.485 12.6334 15.4719 12.6544 15.4634 12.6773C15.4549 12.7002 15.4512 12.7246 15.4524 12.749C15.5515 14.647 17.1298 16.1623 19.055 16.1623C20.9801 16.1623 22.5585 14.647 22.6575 12.749C22.6587 12.7246 22.655 12.7002 22.6465 12.6773C22.638 12.6544 22.6249 12.6334 22.6081 12.6157C22.5912 12.598 22.5709 12.584 22.5485 12.5743C22.526 12.5647 22.5018 12.5598 22.4774 12.5598Z" fill="#658864" fill-opacity="0.3"/>
<circle cx="11.25" cy="21.0006" r="8.25" fill="white"/>
<mask id="path-3-inside-1_288_336" fill="white">
<path d="M6.16818 19.9209C6.16818 20.1578 6.26228 20.385 6.42979 20.5525C6.59729 20.72 6.82447 20.8141 7.06136 20.8141C7.29825 20.8141 7.52543 20.72 7.69294 20.5525C7.86044 20.385 7.95454 20.1578 7.95454 19.9209C7.95454 19.684 7.86044 19.4569 7.69294 19.2894C7.52543 19.1219 7.29825 19.0277 7.06136 19.0277C6.82447 19.0277 6.59729 19.1219 6.42979 19.2894C6.26228 19.4569 6.16818 19.684 6.16818 19.9209ZM12.7182 19.9209C12.7182 20.1578 12.8123 20.385 12.9798 20.5525C13.1473 20.72 13.3745 20.8141 13.6114 20.8141C13.8482 20.8141 14.0754 20.72 14.2429 20.5525C14.4104 20.385 14.5045 20.1578 14.5045 19.9209C14.5045 19.684 14.4104 19.4569 14.2429 19.2894C14.0754 19.1219 13.8482 19.0277 13.6114 19.0277C13.3745 19.0277 13.1473 19.1219 12.9798 19.2894C12.8123 19.4569 12.7182 19.684 12.7182 19.9209ZM10.3364 13.2779C5.73275 13.2779 2 17.0106 2 21.6143C2 26.2179 5.73275 29.9506 10.3364 29.9506C14.94 29.9506 18.6727 26.2179 18.6727 21.6143C18.6727 17.0106 14.94 13.2779 10.3364 13.2779ZM15.2302 26.5081C14.5939 27.1445 13.8533 27.6432 13.0289 27.9931C12.1785 28.354 11.2723 28.5364 10.3364 28.5364C9.40038 28.5364 8.49417 28.354 7.64193 27.9931C6.81885 27.6454 6.0712 27.1411 5.44061 26.5081C4.80422 25.8717 4.30552 25.1312 3.9557 24.3068C3.59656 23.4564 3.4142 22.5502 3.4142 21.6143C3.4142 20.6783 3.59656 19.7721 3.95756 18.9198C4.30517 18.0967 4.8095 17.3491 5.44247 16.7185C6.07886 16.0821 6.81946 15.5834 7.64379 15.2336C8.49417 14.8745 9.40038 14.6921 10.3364 14.6921C11.2723 14.6921 12.1785 14.8745 13.0308 15.2354C13.8539 15.5831 14.6015 16.0874 15.2321 16.7204C15.8685 17.3568 16.3672 18.0974 16.717 18.9217C17.0762 19.7721 17.2585 20.6783 17.2585 21.6143C17.2585 22.5502 17.0762 23.4564 16.7152 24.3087C16.368 25.1314 15.8636 25.8786 15.2302 26.5081ZM13.1648 22.005H12.2697C12.1916 22.005 12.1246 22.0646 12.119 22.1427C12.0483 23.0638 11.2761 23.7914 10.3364 23.7914C9.39666 23.7914 8.62257 23.0638 8.55372 22.1427C8.54814 22.0646 8.48115 22.005 8.40299 22.005H7.50795C7.48776 22.005 7.46777 22.0091 7.44921 22.017C7.43065 22.025 7.41389 22.0366 7.39997 22.0512C7.38604 22.0658 7.37524 22.0831 7.36821 22.1021C7.36118 22.121 7.35808 22.1412 7.35909 22.1613C7.44096 23.73 8.74538 24.9823 10.3364 24.9823C11.9273 24.9823 13.2318 23.73 13.3136 22.1613C13.3146 22.1412 13.3115 22.121 13.3045 22.1021C13.2975 22.0831 13.2867 22.0658 13.2727 22.0512C13.2588 22.0366 13.2421 22.025 13.2235 22.017C13.2049 22.0091 13.185 22.005 13.1648 22.005Z"/>
</mask>
<path d="M6.16818 19.9209C6.16818 20.1578 6.26228 20.385 6.42979 20.5525C6.59729 20.72 6.82447 20.8141 7.06136 20.8141C7.29825 20.8141 7.52543 20.72 7.69294 20.5525C7.86044 20.385 7.95454 20.1578 7.95454 19.9209C7.95454 19.684 7.86044 19.4569 7.69294 19.2894C7.52543 19.1219 7.29825 19.0277 7.06136 19.0277C6.82447 19.0277 6.59729 19.1219 6.42979 19.2894C6.26228 19.4569 6.16818 19.684 6.16818 19.9209ZM12.7182 19.9209C12.7182 20.1578 12.8123 20.385 12.9798 20.5525C13.1473 20.72 13.3745 20.8141 13.6114 20.8141C13.8482 20.8141 14.0754 20.72 14.2429 20.5525C14.4104 20.385 14.5045 20.1578 14.5045 19.9209C14.5045 19.684 14.4104 19.4569 14.2429 19.2894C14.0754 19.1219 13.8482 19.0277 13.6114 19.0277C13.3745 19.0277 13.1473 19.1219 12.9798 19.2894C12.8123 19.4569 12.7182 19.684 12.7182 19.9209ZM10.3364 13.2779C5.73275 13.2779 2 17.0106 2 21.6143C2 26.2179 5.73275 29.9506 10.3364 29.9506C14.94 29.9506 18.6727 26.2179 18.6727 21.6143C18.6727 17.0106 14.94 13.2779 10.3364 13.2779ZM15.2302 26.5081C14.5939 27.1445 13.8533 27.6432 13.0289 27.9931C12.1785 28.354 11.2723 28.5364 10.3364 28.5364C9.40038 28.5364 8.49417 28.354 7.64193 27.9931C6.81885 27.6454 6.0712 27.1411 5.44061 26.5081C4.80422 25.8717 4.30552 25.1312 3.9557 24.3068C3.59656 23.4564 3.4142 22.5502 3.4142 21.6143C3.4142 20.6783 3.59656 19.7721 3.95756 18.9198C4.30517 18.0967 4.8095 17.3491 5.44247 16.7185C6.07886 16.0821 6.81946 15.5834 7.64379 15.2336C8.49417 14.8745 9.40038 14.6921 10.3364 14.6921C11.2723 14.6921 12.1785 14.8745 13.0308 15.2354C13.8539 15.5831 14.6015 16.0874 15.2321 16.7204C15.8685 17.3568 16.3672 18.0974 16.717 18.9217C17.0762 19.7721 17.2585 20.6783 17.2585 21.6143C17.2585 22.5502 17.0762 23.4564 16.7152 24.3087C16.368 25.1314 15.8636 25.8786 15.2302 26.5081ZM13.1648 22.005H12.2697C12.1916 22.005 12.1246 22.0646 12.119 22.1427C12.0483 23.0638 11.2761 23.7914 10.3364 23.7914C9.39666 23.7914 8.62257 23.0638 8.55372 22.1427C8.54814 22.0646 8.48115 22.005 8.40299 22.005H7.50795C7.48776 22.005 7.46777 22.0091 7.44921 22.017C7.43065 22.025 7.41389 22.0366 7.39997 22.0512C7.38604 22.0658 7.37524 22.0831 7.36821 22.1021C7.36118 22.121 7.35808 22.1412 7.35909 22.1613C7.44096 23.73 8.74538 24.9823 10.3364 24.9823C11.9273 24.9823 13.2318 23.73 13.3136 22.1613C13.3146 22.1412 13.3115 22.121 13.3045 22.1021C13.2975 22.0831 13.2867 22.0658 13.2727 22.0512C13.2588 22.0366 13.2421 22.025 13.2235 22.017C13.2049 22.0091 13.185 22.005 13.1648 22.005Z" fill="#658864" fill-opacity="0.3"/>
<path d="M6.16818 19.9209H5.06818H6.16818ZM7.95454 19.9209H9.05454H7.95454ZM15.2302 26.5081L14.4547 25.728L14.4524 25.7303L15.2302 26.5081ZM13.0289 27.9931L12.5992 26.9805L12.5991 26.9805L13.0289 27.9931ZM7.64193 27.9931L8.07097 26.9802L8.06989 26.9797L7.64193 27.9931ZM5.44061 26.5081L6.21989 25.7318L6.21843 25.7303L5.44061 26.5081ZM3.9557 24.3068L2.94235 24.7348L2.9431 24.7365L3.9557 24.3068ZM3.95756 18.9198L4.97044 19.3489L4.97089 19.3478L3.95756 18.9198ZM5.44247 16.7185L6.21882 17.4978L6.22029 17.4963L5.44247 16.7185ZM7.64379 15.2336L7.21584 14.2202L7.21407 14.221L7.64379 15.2336ZM13.0308 15.2354L12.6018 16.2483L12.6028 16.2488L13.0308 15.2354ZM15.2321 16.7204L14.4528 17.4967L14.4543 17.4982L15.2321 16.7204ZM16.717 18.9217L17.7304 18.4937L17.7296 18.492L16.717 18.9217ZM16.7152 24.3087L15.7023 23.8796L15.7017 23.881L16.7152 24.3087ZM13.1648 22.005V23.105L13.1661 23.105L13.1648 22.005ZM12.119 22.1427L13.2158 22.2269L13.2162 22.2211L12.119 22.1427ZM8.55372 22.1427L7.45651 22.2211L7.45678 22.2247L8.55372 22.1427ZM7.50795 22.005L7.50658 23.105H7.50795V22.005ZM7.35909 22.1613L6.26046 22.2163L6.26058 22.2187L7.35909 22.1613ZM13.3136 22.1613L14.4121 22.2187L14.4123 22.2163L13.3136 22.1613ZM5.06818 19.9209C5.06818 20.4496 5.27817 20.9565 5.65197 21.3303L7.2076 19.7747C7.24639 19.8135 7.26818 19.8661 7.26818 19.9209H5.06818ZM5.65197 21.3303C6.02576 21.7041 6.53274 21.9141 7.06136 21.9141V19.7141C7.11621 19.7141 7.16882 19.7359 7.2076 19.7747L5.65197 21.3303ZM7.06136 21.9141C7.58998 21.9141 8.09696 21.7041 8.47075 21.3303L6.91512 19.7747C6.9539 19.7359 7.00651 19.7141 7.06136 19.7141V21.9141ZM8.47075 21.3303C8.84455 20.9565 9.05454 20.4496 9.05454 19.9209H6.85454C6.85454 19.8661 6.87633 19.8135 6.91512 19.7747L8.47075 21.3303ZM9.05454 19.9209C9.05454 19.3923 8.84455 18.8853 8.47075 18.5115L6.91512 20.0672C6.87633 20.0284 6.85454 19.9758 6.85454 19.9209H9.05454ZM8.47075 18.5115C8.09696 18.1377 7.58998 17.9277 7.06136 17.9277V20.1277C7.00651 20.1277 6.9539 20.106 6.91512 20.0672L8.47075 18.5115ZM7.06136 17.9277C6.53274 17.9277 6.02576 18.1377 5.65197 18.5115L7.2076 20.0672C7.16882 20.106 7.11621 20.1277 7.06136 20.1277V17.9277ZM5.65197 18.5115C5.27817 18.8853 5.06818 19.3923 5.06818 19.9209H7.26818C7.26818 19.9758 7.24639 20.0284 7.2076 20.0672L5.65197 18.5115ZM11.6182 19.9209C11.6182 20.4496 11.8282 20.9565 12.202 21.3303L13.7576 19.7747C13.7964 19.8135 13.8182 19.8661 13.8182 19.9209H11.6182ZM12.202 21.3303C12.5758 21.7041 13.0827 21.9141 13.6114 21.9141V19.7141C13.6662 19.7141 13.7188 19.7359 13.7576 19.7747L12.202 21.3303ZM13.6114 21.9141C14.14 21.9141 14.647 21.7041 15.0207 21.3303L13.4651 19.7747C13.5039 19.7359 13.5565 19.7141 13.6114 19.7141V21.9141ZM15.0207 21.3303C15.3945 20.9565 15.6045 20.4496 15.6045 19.9209H13.4045C13.4045 19.8661 13.4263 19.8135 13.4651 19.7747L15.0207 21.3303ZM15.6045 19.9209C15.6045 19.3923 15.3945 18.8853 15.0207 18.5115L13.4651 20.0672C13.4263 20.0284 13.4045 19.9758 13.4045 19.9209H15.6045ZM15.0207 18.5115C14.647 18.1377 14.14 17.9277 13.6114 17.9277V20.1277C13.5565 20.1277 13.5039 20.106 13.4651 20.0672L15.0207 18.5115ZM13.6114 17.9277C13.0827 17.9277 12.5758 18.1377 12.202 18.5115L13.7576 20.0672C13.7188 20.106 13.6662 20.1277 13.6114 20.1277V17.9277ZM12.202 18.5115C11.8282 18.8853 11.6182 19.3923 11.6182 19.9209H13.8182C13.8182 19.9758 13.7964 20.0284 13.7576 20.0672L12.202 18.5115ZM10.3364 12.1779C5.12524 12.1779 0.9 16.4031 0.9 21.6143H3.1C3.1 17.6182 6.34027 14.3779 10.3364 14.3779V12.1779ZM0.9 21.6143C0.9 26.8254 5.12524 31.0506 10.3364 31.0506V28.8506C6.34027 28.8506 3.1 25.6103 3.1 21.6143H0.9ZM10.3364 31.0506C15.5475 31.0506 19.7727 26.8254 19.7727 21.6143H17.5727C17.5727 25.6103 14.3325 28.8506 10.3364 28.8506V31.0506ZM19.7727 21.6143C19.7727 16.4031 15.5475 12.1779 10.3364 12.1779V14.3779C14.3325 14.3779 17.5727 17.6182 17.5727 21.6143H19.7727ZM14.4524 25.7303C13.9161 26.2667 13.2937 26.6857 12.5992 26.9805L13.4587 29.0056C14.4128 28.6007 15.2717 28.0224 16.0081 27.286L14.4524 25.7303ZM12.5991 26.9805C11.8871 27.2828 11.1273 27.4364 10.3364 27.4364V29.6364C11.4174 29.6364 12.47 29.4253 13.4588 29.0056L12.5991 26.9805ZM10.3364 27.4364C9.54561 27.4364 8.78549 27.2828 8.07097 26.9802L7.21289 29.0059C8.20285 29.4253 9.25515 29.6364 10.3364 29.6364V27.4364ZM8.06989 26.9797C7.37817 26.6876 6.74984 26.2637 6.21989 25.7318L4.66133 27.2845C5.39256 28.0185 6.25952 28.6033 7.21397 29.0064L8.06989 26.9797ZM6.21843 25.7303C5.68206 25.194 5.26301 24.5716 4.96829 23.8771L2.9431 24.7365C3.34804 25.6907 3.92638 26.5495 4.66279 27.286L6.21843 25.7303ZM4.96903 23.8789C4.66785 23.1657 4.5142 22.4052 4.5142 21.6143H2.3142C2.3142 22.6953 2.52527 23.7472 2.94236 24.7348L4.96903 23.8789ZM4.5142 21.6143C4.5142 20.8235 4.66778 20.0634 4.97044 19.3489L2.94467 18.4908C2.52535 19.4807 2.3142 20.533 2.3142 21.6143H4.5142ZM4.97089 19.3478C5.26303 18.6561 5.68687 18.0277 6.21882 17.4978L4.66612 15.9392C3.93213 16.6704 3.34731 17.5374 2.94422 18.4919L4.97089 19.3478ZM6.22029 17.4963C6.75666 16.9599 7.37903 16.5409 8.07351 16.2462L7.21407 14.221C6.25989 14.6259 5.40107 15.2043 4.66465 15.9407L6.22029 17.4963ZM8.07174 16.2469C8.7849 15.9457 9.54542 15.7921 10.3364 15.7921V13.5921C9.25534 13.5921 8.20345 13.8032 7.21584 14.2202L8.07174 16.2469ZM10.3364 15.7921C11.1271 15.7921 11.8872 15.9457 12.6018 16.2483L13.4598 14.2226C12.4699 13.8032 11.4176 13.5921 10.3364 13.5921V15.7921ZM12.6028 16.2488C13.2946 16.5409 13.9229 16.9648 14.4528 17.4967L16.0114 15.944C15.2802 15.21 14.4132 14.6252 13.4587 14.2221L12.6028 16.2488ZM14.4543 17.4982C14.9907 18.0346 15.4097 18.6569 15.7044 19.3514L17.7296 18.492C17.3247 17.5378 16.7463 16.679 16.0099 15.9425L14.4543 17.4982ZM15.7037 19.3496C16.0049 20.0628 16.1585 20.8233 16.1585 21.6143H18.3585C18.3585 20.5332 18.1474 19.4813 17.7304 18.4937L15.7037 19.3496ZM16.1585 21.6143C16.1585 22.405 16.0049 23.1651 15.7023 23.8796L17.728 24.7377C18.1474 23.7478 18.3585 22.6955 18.3585 21.6143H16.1585ZM15.7017 23.881C15.4101 24.5719 14.9866 25.1993 14.4547 25.728L16.0058 27.2883C16.7406 26.5578 17.3258 25.691 17.7286 24.7363L15.7017 23.881ZM13.1648 20.905H12.2697V23.105H13.1648V20.905ZM12.2697 20.905C11.642 20.905 11.0704 21.3835 11.0218 22.0643L13.2162 22.2211C13.1787 22.7456 12.7412 23.105 12.2697 23.105V20.905ZM11.0222 22.0585C10.9952 22.4106 10.697 22.6914 10.3364 22.6914V24.8914C11.8551 24.8914 13.1014 23.717 13.2158 22.2269L11.0222 22.0585ZM10.3364 22.6914C9.97382 22.6914 9.6767 22.4092 9.65066 22.0607L7.45678 22.2247C7.56843 23.7184 8.81949 24.8914 10.3364 24.8914V22.6914ZM9.65092 22.0643C9.60229 21.3835 9.03073 20.905 8.40299 20.905V23.105C7.93156 23.105 7.49398 22.7456 7.45651 22.2211L9.65092 22.0643ZM8.40299 20.905H7.50795V23.105H8.40299V20.905ZM7.50933 20.905C7.33995 20.9048 7.17229 20.9391 7.01653 21.0057L7.88189 23.0283C7.76326 23.0791 7.63557 23.1052 7.50658 23.105L7.50933 20.905ZM7.01653 21.0057C6.86079 21.0723 6.72023 21.1699 6.60342 21.2926L8.19652 22.8098C8.10755 22.9033 8.00051 22.9776 7.88189 23.0283L7.01653 21.0057ZM6.60342 21.2926C6.48658 21.4153 6.39594 21.5604 6.33699 21.7192L8.39943 22.4849C8.35453 22.6059 8.2855 22.7164 8.19652 22.8098L6.60342 21.2926ZM6.33699 21.7192C6.27803 21.878 6.25199 22.0471 6.26046 22.2163L8.45771 22.1063C8.46416 22.2352 8.44433 22.364 8.39943 22.4849L6.33699 21.7192ZM6.26058 22.2187C6.37284 24.3695 8.15786 26.0823 10.3364 26.0823V23.8823C9.3329 23.8823 8.50908 23.0905 8.45759 22.104L6.26058 22.2187ZM10.3364 26.0823C12.5149 26.0823 14.2999 24.3695 14.4121 22.2187L12.2151 22.104C12.1636 23.0905 11.3398 23.8823 10.3364 23.8823V26.0823ZM14.4123 22.2163C14.4207 22.0472 14.3947 21.878 14.3357 21.7192L12.2733 22.4849C12.2284 22.364 12.2086 22.2352 12.215 22.1063L14.4123 22.2163ZM14.3357 21.7192C14.2768 21.5604 14.1861 21.4153 14.0693 21.2926L12.4762 22.8098C12.3872 22.7164 12.3182 22.6059 12.2733 22.4849L14.3357 21.7192ZM14.0693 21.2926C13.9525 21.1699 13.8119 21.0723 13.6562 21.0057L12.7908 23.0283C12.6722 22.9776 12.5652 22.9033 12.4762 22.8098L14.0693 21.2926ZM13.6562 21.0057C13.5004 20.9391 13.3328 20.9048 13.1634 20.905L13.1661 23.105C13.0371 23.1052 12.9095 23.0791 12.7908 23.0283L13.6562 21.0057Z" fill="#658864" fill-opacity="0.3" mask="url(#path-3-inside-1_288_336)"/>
</svg>
