<svg width="33" height="33" viewBox="0 0 33 33" fill="none" xmlns="http://www.w3.org/2000/svg">
<path d="M14.5114 10.7568C14.5114 11.0435 14.6252 11.3184 14.8279 11.521C15.0306 11.7237 15.3055 11.8376 15.5921 11.8376C15.8788 11.8376 16.1537 11.7237 16.3564 11.521C16.559 11.3184 16.6729 11.0435 16.6729 10.7568C16.6729 10.4702 16.559 10.1953 16.3564 9.99262C16.1537 9.78994 15.8788 9.67607 15.5921 9.67607C15.3055 9.67607 15.0306 9.78994 14.8279 9.99262C14.6252 10.1953 14.5114 10.4702 14.5114 10.7568ZM22.437 10.7568C22.437 11.0435 22.5509 11.3184 22.7536 11.521C22.9562 11.7237 23.2311 11.8376 23.5178 11.8376C23.8044 11.8376 24.0793 11.7237 24.282 11.521C24.4847 11.3184 24.5985 11.0435 24.5985 10.7568C24.5985 10.4702 24.4847 10.1953 24.282 9.99262C24.0793 9.78994 23.8044 9.67607 23.5178 9.67607C23.2311 9.67607 22.9562 9.78994 22.7536 9.99262C22.5509 10.1953 22.437 10.4702 22.437 10.7568ZM19.555 2.71875C13.9845 2.71875 9.46777 7.23538 9.46777 12.8057C9.46777 18.3761 13.9845 22.8927 19.555 22.8927C25.1254 22.8927 29.6421 18.3761 29.6421 12.8057C29.6421 7.23538 25.1254 2.71875 19.555 2.71875ZM25.4767 18.7274C24.7066 19.4974 23.8105 20.1008 22.813 20.5241C21.784 20.9609 20.6875 21.1816 19.555 21.1816C18.4224 21.1816 17.3259 20.9609 16.2946 20.5241C15.2987 20.1035 14.394 19.4933 13.631 18.7274C12.8609 17.9573 12.2575 17.0612 11.8342 16.0638C11.3996 15.0348 11.179 13.9383 11.179 12.8057C11.179 11.6732 11.3996 10.5767 11.8365 9.54549C12.2571 8.54955 12.8673 7.6449 13.6332 6.88189C14.4033 6.11185 15.2994 5.50843 16.2969 5.08514C17.3259 4.65059 18.4224 4.42994 19.555 4.42994C20.6875 4.42994 21.784 4.65059 22.8153 5.08739C23.8112 5.508 24.7159 6.11824 25.4789 6.88414C26.249 7.65417 26.8524 8.55029 27.2757 9.54774C27.7103 10.5767 27.9309 11.6732 27.9309 12.8057C27.9309 13.9383 27.7103 15.0348 27.2735 16.066C26.8533 17.0616 26.243 17.9656 25.4767 18.7274ZM22.9774 13.2786H21.8944C21.7998 13.2786 21.7187 13.3506 21.712 13.4452C21.6264 14.5597 20.692 15.4401 19.555 15.4401C18.4179 15.4401 17.4812 14.5597 17.3979 13.4452C17.3912 13.3506 17.3101 13.2786 17.2155 13.2786H16.1325C16.1081 13.2785 16.0839 13.2835 16.0614 13.2931C16.039 13.3027 16.0187 13.3168 16.0019 13.3345C15.985 13.3522 15.9719 13.3731 15.9634 13.396C15.9549 13.4189 15.9512 13.4433 15.9524 13.4677C16.0515 15.3658 17.6298 16.8811 19.555 16.8811C21.4801 16.8811 23.0585 15.3658 23.1575 13.4677C23.1587 13.4433 23.155 13.4189 23.1465 13.396C23.138 13.3731 23.1249 13.3522 23.1081 13.3345C23.0912 13.3168 23.0709 13.3027 23.0485 13.2931C23.026 13.2835 23.0018 13.2785 22.9774 13.2786Z" fill="#658864"/>
<circle cx="11.75" cy="21.7192" r="8.25" fill="white"/>
<mask id="path-3-inside-1_353_849" fill="white">
<path d="M6.66818 20.6396C6.66818 20.8765 6.76228 21.1037 6.92979 21.2712C7.09729 21.4387 7.32447 21.5328 7.56136 21.5328C7.79825 21.5328 8.02543 21.4387 8.19294 21.2712C8.36044 21.1037 8.45454 20.8765 8.45454 20.6396C8.45454 20.4027 8.36044 20.1755 8.19294 20.008C8.02543 19.8405 7.79825 19.7464 7.56136 19.7464C7.32447 19.7464 7.09729 19.8405 6.92979 20.008C6.76228 20.1755 6.66818 20.4027 6.66818 20.6396ZM13.2182 20.6396C13.2182 20.8765 13.3123 21.1037 13.4798 21.2712C13.6473 21.4387 13.8745 21.5328 14.1114 21.5328C14.3482 21.5328 14.5754 21.4387 14.7429 21.2712C14.9104 21.1037 15.0045 20.8765 15.0045 20.6396C15.0045 20.4027 14.9104 20.1755 14.7429 20.008C14.5754 19.8405 14.3482 19.7464 14.1114 19.7464C13.8745 19.7464 13.6473 19.8405 13.4798 20.008C13.3123 20.1755 13.2182 20.4027 13.2182 20.6396ZM10.8364 13.9966C6.23275 13.9966 2.5 17.7293 2.5 22.3329C2.5 26.9365 6.23275 30.6693 10.8364 30.6693C15.44 30.6693 19.1727 26.9365 19.1727 22.3329C19.1727 17.7293 15.44 13.9966 10.8364 13.9966ZM15.7302 27.2268C15.0939 27.8632 14.3533 28.3619 13.5289 28.7117C12.6785 29.0727 11.7723 29.2551 10.8364 29.2551C9.90038 29.2551 8.99417 29.0727 8.14193 28.7117C7.31885 28.3641 6.5712 27.8598 5.94061 27.2268C5.30422 26.5904 4.80552 25.8498 4.4557 25.0255C4.09656 24.1751 3.9142 23.2689 3.9142 22.3329C3.9142 21.397 4.09656 20.4908 4.45756 19.6385C4.80517 18.8154 5.3095 18.0678 5.94247 17.4372C6.57886 16.8008 7.31946 16.3021 8.14379 15.9523C8.99417 15.5931 9.90038 15.4108 10.8364 15.4108C11.7723 15.4108 12.6785 15.5931 13.5308 15.9541C14.3539 16.3017 15.1015 16.8061 15.7321 17.4391C16.3685 18.0754 16.8672 18.816 17.217 19.6404C17.5762 20.4908 17.7585 21.397 17.7585 22.3329C17.7585 23.2689 17.5762 24.1751 17.2152 25.0274C16.868 25.8501 16.3636 26.5972 15.7302 27.2268ZM13.6648 22.7237H12.7697C12.6916 22.7237 12.6246 22.7833 12.619 22.8614C12.5483 23.7825 11.7761 24.5101 10.8364 24.5101C9.89666 24.5101 9.12257 23.7825 9.05372 22.8614C9.04814 22.7833 8.98115 22.7237 8.90299 22.7237H8.00795C7.98776 22.7237 7.96777 22.7278 7.94921 22.7357C7.93065 22.7436 7.91389 22.7553 7.89997 22.7699C7.88604 22.7845 7.87524 22.8018 7.86821 22.8208C7.86118 22.8397 7.85808 22.8598 7.85909 22.88C7.94096 24.4487 9.24538 25.701 10.8364 25.701C12.4273 25.701 13.7318 24.4487 13.8136 22.88C13.8146 22.8598 13.8115 22.8397 13.8045 22.8208C13.7975 22.8018 13.7867 22.7845 13.7727 22.7699C13.7588 22.7553 13.7421 22.7436 13.7235 22.7357C13.7049 22.7278 13.685 22.7237 13.6648 22.7237Z"/>
</mask>
<path d="M6.66818 20.6396C6.66818 20.8765 6.76228 21.1037 6.92979 21.2712C7.09729 21.4387 7.32447 21.5328 7.56136 21.5328C7.79825 21.5328 8.02543 21.4387 8.19294 21.2712C8.36044 21.1037 8.45454 20.8765 8.45454 20.6396C8.45454 20.4027 8.36044 20.1755 8.19294 20.008C8.02543 19.8405 7.79825 19.7464 7.56136 19.7464C7.32447 19.7464 7.09729 19.8405 6.92979 20.008C6.76228 20.1755 6.66818 20.4027 6.66818 20.6396ZM13.2182 20.6396C13.2182 20.8765 13.3123 21.1037 13.4798 21.2712C13.6473 21.4387 13.8745 21.5328 14.1114 21.5328C14.3482 21.5328 14.5754 21.4387 14.7429 21.2712C14.9104 21.1037 15.0045 20.8765 15.0045 20.6396C15.0045 20.4027 14.9104 20.1755 14.7429 20.008C14.5754 19.8405 14.3482 19.7464 14.1114 19.7464C13.8745 19.7464 13.6473 19.8405 13.4798 20.008C13.3123 20.1755 13.2182 20.4027 13.2182 20.6396ZM10.8364 13.9966C6.23275 13.9966 2.5 17.7293 2.5 22.3329C2.5 26.9365 6.23275 30.6693 10.8364 30.6693C15.44 30.6693 19.1727 26.9365 19.1727 22.3329C19.1727 17.7293 15.44 13.9966 10.8364 13.9966ZM15.7302 27.2268C15.0939 27.8632 14.3533 28.3619 13.5289 28.7117C12.6785 29.0727 11.7723 29.2551 10.8364 29.2551C9.90038 29.2551 8.99417 29.0727 8.14193 28.7117C7.31885 28.3641 6.5712 27.8598 5.94061 27.2268C5.30422 26.5904 4.80552 25.8498 4.4557 25.0255C4.09656 24.1751 3.9142 23.2689 3.9142 22.3329C3.9142 21.397 4.09656 20.4908 4.45756 19.6385C4.80517 18.8154 5.3095 18.0678 5.94247 17.4372C6.57886 16.8008 7.31946 16.3021 8.14379 15.9523C8.99417 15.5931 9.90038 15.4108 10.8364 15.4108C11.7723 15.4108 12.6785 15.5931 13.5308 15.9541C14.3539 16.3017 15.1015 16.8061 15.7321 17.4391C16.3685 18.0754 16.8672 18.816 17.217 19.6404C17.5762 20.4908 17.7585 21.397 17.7585 22.3329C17.7585 23.2689 17.5762 24.1751 17.2152 25.0274C16.868 25.8501 16.3636 26.5972 15.7302 27.2268ZM13.6648 22.7237H12.7697C12.6916 22.7237 12.6246 22.7833 12.619 22.8614C12.5483 23.7825 11.7761 24.5101 10.8364 24.5101C9.89666 24.5101 9.12257 23.7825 9.05372 22.8614C9.04814 22.7833 8.98115 22.7237 8.90299 22.7237H8.00795C7.98776 22.7237 7.96777 22.7278 7.94921 22.7357C7.93065 22.7436 7.91389 22.7553 7.89997 22.7699C7.88604 22.7845 7.87524 22.8018 7.86821 22.8208C7.86118 22.8397 7.85808 22.8598 7.85909 22.88C7.94096 24.4487 9.24538 25.701 10.8364 25.701C12.4273 25.701 13.7318 24.4487 13.8136 22.88C13.8146 22.8598 13.8115 22.8397 13.8045 22.8208C13.7975 22.8018 13.7867 22.7845 13.7727 22.7699C13.7588 22.7553 13.7421 22.7436 13.7235 22.7357C13.7049 22.7278 13.685 22.7237 13.6648 22.7237Z" fill="#658864"/>
<path d="M6.66818 20.6396H5.56818H6.66818ZM8.45454 20.6396H9.55454H8.45454ZM15.7302 27.2268L14.9547 26.4467L14.9524 26.449L15.7302 27.2268ZM13.5289 28.7117L13.0992 27.6992L13.0991 27.6992L13.5289 28.7117ZM8.14193 28.7117L8.57097 27.6989L8.56989 27.6984L8.14193 28.7117ZM5.94061 27.2268L6.71989 26.4505L6.71843 26.449L5.94061 27.2268ZM4.4557 25.0255L3.44235 25.4535L3.4431 25.4552L4.4557 25.0255ZM4.45756 19.6385L5.47044 20.0675L5.47089 20.0665L4.45756 19.6385ZM5.94247 17.4372L6.71882 18.2165L6.72029 18.215L5.94247 17.4372ZM8.14379 15.9523L7.71584 14.9389L7.71407 14.9397L8.14379 15.9523ZM13.5308 15.9541L13.1018 16.967L13.1028 16.9675L13.5308 15.9541ZM15.7321 17.4391L14.9528 18.2154L14.9543 18.2169L15.7321 17.4391ZM17.217 19.6404L18.2304 19.2124L18.2296 19.2106L17.217 19.6404ZM17.2152 25.0274L16.2023 24.5983L16.2017 24.5997L17.2152 25.0274ZM13.6648 22.7237V23.8237L13.6661 23.8237L13.6648 22.7237ZM12.619 22.8614L13.7158 22.9456L13.7162 22.9398L12.619 22.8614ZM9.05372 22.8614L7.95651 22.9398L7.95678 22.9434L9.05372 22.8614ZM8.00795 22.7237L8.00658 23.8237H8.00795V22.7237ZM7.85909 22.88L6.76046 22.935L6.76058 22.9374L7.85909 22.88ZM13.8136 22.88L14.9121 22.9374L14.9123 22.935L13.8136 22.88ZM5.56818 20.6396C5.56818 21.1682 5.77817 21.6752 6.15197 22.049L7.7076 20.4934C7.74639 20.5322 7.76818 20.5848 7.76818 20.6396H5.56818ZM6.15197 22.049C6.52576 22.4228 7.03274 22.6328 7.56136 22.6328V20.4328C7.61621 20.4328 7.66882 20.4546 7.7076 20.4934L6.15197 22.049ZM7.56136 22.6328C8.08998 22.6328 8.59696 22.4228 8.97075 22.049L7.41512 20.4934C7.4539 20.4546 7.50651 20.4328 7.56136 20.4328V22.6328ZM8.97075 22.049C9.34455 21.6752 9.55454 21.1682 9.55454 20.6396H7.35454C7.35454 20.5848 7.37633 20.5322 7.41512 20.4934L8.97075 22.049ZM9.55454 20.6396C9.55454 20.111 9.34455 19.604 8.97075 19.2302L7.41512 20.7859C7.37633 20.7471 7.35454 20.6945 7.35454 20.6396H9.55454ZM8.97075 19.2302C8.59696 18.8564 8.08998 18.6464 7.56136 18.6464V20.8464C7.50651 20.8464 7.4539 20.8246 7.41512 20.7859L8.97075 19.2302ZM7.56136 18.6464C7.03274 18.6464 6.52576 18.8564 6.15197 19.2302L7.7076 20.7859C7.66882 20.8246 7.61621 20.8464 7.56136 20.8464V18.6464ZM6.15197 19.2302C5.77817 19.604 5.56818 20.111 5.56818 20.6396H7.76818C7.76818 20.6945 7.74639 20.7471 7.7076 20.7859L6.15197 19.2302ZM12.1182 20.6396C12.1182 21.1682 12.3282 21.6752 12.702 22.049L14.2576 20.4934C14.2964 20.5322 14.3182 20.5848 14.3182 20.6396H12.1182ZM12.702 22.049C13.0758 22.4228 13.5827 22.6328 14.1114 22.6328V20.4328C14.1662 20.4328 14.2188 20.4546 14.2576 20.4934L12.702 22.049ZM14.1114 22.6328C14.64 22.6328 15.147 22.4228 15.5207 22.049L13.9651 20.4934C14.0039 20.4546 14.0565 20.4328 14.1114 20.4328V22.6328ZM15.5207 22.049C15.8945 21.6752 16.1045 21.1682 16.1045 20.6396H13.9045C13.9045 20.5848 13.9263 20.5322 13.9651 20.4934L15.5207 22.049ZM16.1045 20.6396C16.1045 20.111 15.8945 19.604 15.5207 19.2302L13.9651 20.7859C13.9263 20.7471 13.9045 20.6945 13.9045 20.6396H16.1045ZM15.5207 19.2302C15.147 18.8564 14.64 18.6464 14.1114 18.6464V20.8464C14.0565 20.8464 14.0039 20.8246 13.9651 20.7859L15.5207 19.2302ZM14.1114 18.6464C13.5827 18.6464 13.0758 18.8564 12.702 19.2302L14.2576 20.7859C14.2188 20.8246 14.1662 20.8464 14.1114 20.8464V18.6464ZM12.702 19.2302C12.3282 19.604 12.1182 20.111 12.1182 20.6396H14.3182C14.3182 20.6945 14.2964 20.7471 14.2576 20.7859L12.702 19.2302ZM10.8364 12.8966C5.62524 12.8966 1.4 17.1218 1.4 22.3329H3.6C3.6 18.3368 6.84027 15.0966 10.8364 15.0966V12.8966ZM1.4 22.3329C1.4 27.5441 5.62524 31.7693 10.8364 31.7693V29.5693C6.84027 29.5693 3.6 26.329 3.6 22.3329H1.4ZM10.8364 31.7693C16.0475 31.7693 20.2727 27.5441 20.2727 22.3329H18.0727C18.0727 26.329 14.8325 29.5693 10.8364 29.5693V31.7693ZM20.2727 22.3329C20.2727 17.1218 16.0475 12.8966 10.8364 12.8966V15.0966C14.8325 15.0966 18.0727 18.3368 18.0727 22.3329H20.2727ZM14.9524 26.449C14.4161 26.9854 13.7937 27.4044 13.0992 27.6992L13.9587 29.7243C14.9128 29.3194 15.7717 28.7411 16.5081 28.0046L14.9524 26.449ZM13.0991 27.6992C12.3871 28.0015 11.6273 28.1551 10.8364 28.1551V30.3551C11.9174 30.3551 12.97 30.144 13.9588 29.7243L13.0991 27.6992ZM10.8364 28.1551C10.0456 28.1551 9.28549 28.0015 8.57097 27.6989L7.71289 29.7246C8.70285 30.144 9.75515 30.3551 10.8364 30.3551V28.1551ZM8.56989 27.6984C7.87817 27.4063 7.24984 26.9824 6.71989 26.4505L5.16133 28.0032C5.89256 28.7372 6.75952 29.322 7.71397 29.7251L8.56989 27.6984ZM6.71843 26.449C6.18206 25.9126 5.76301 25.2903 5.46829 24.5958L3.4431 25.4552C3.84804 26.4094 4.42638 27.2682 5.16279 28.0046L6.71843 26.449ZM5.46903 24.5976C5.16785 23.8844 5.0142 23.1239 5.0142 22.3329H2.8142C2.8142 23.414 3.02527 24.4659 3.44236 25.4535L5.46903 24.5976ZM5.0142 22.3329C5.0142 21.5422 5.16778 20.7821 5.47044 20.0675L3.44467 19.2095C3.02535 20.1994 2.8142 21.2517 2.8142 22.3329H5.0142ZM5.47089 20.0665C5.76303 19.3747 6.18687 18.7464 6.71882 18.2165L5.16612 16.6579C4.43213 17.3891 3.84731 18.2561 3.44422 19.2106L5.47089 20.0665ZM6.72029 18.215C7.25666 17.6786 7.87903 17.2596 8.57351 16.9649L7.71407 14.9397C6.75989 15.3446 5.90107 15.923 5.16465 16.6594L6.72029 18.215ZM8.57174 16.9656C9.2849 16.6644 10.0454 16.5108 10.8364 16.5108V14.3108C9.75534 14.3108 8.70345 14.5219 7.71584 14.9389L8.57174 16.9656ZM10.8364 16.5108C11.6271 16.5108 12.3872 16.6644 13.1018 16.967L13.9598 14.9413C12.9699 14.5219 11.9176 14.3108 10.8364 14.3108V16.5108ZM13.1028 16.9675C13.7946 17.2596 14.4229 17.6834 14.9528 18.2154L16.5114 16.6627C15.7802 15.9287 14.9132 15.3439 13.9587 14.9408L13.1028 16.9675ZM14.9543 18.2169C15.4907 18.7532 15.9097 19.3756 16.2044 20.0701L18.2296 19.2106C17.8247 18.2565 17.2463 17.3976 16.5099 16.6612L14.9543 18.2169ZM16.2037 20.0683C16.5049 20.7815 16.6585 21.542 16.6585 22.3329H18.8585C18.8585 21.2519 18.6474 20.2 18.2304 19.2124L16.2037 20.0683ZM16.6585 22.3329C16.6585 23.1237 16.5049 23.8838 16.2023 24.5983L18.228 25.4564C18.6474 24.4664 18.8585 23.4142 18.8585 22.3329H16.6585ZM16.2017 24.5997C15.9101 25.2906 15.4866 25.918 14.9547 26.4467L16.5058 28.007C17.2406 27.2765 17.8258 26.4096 18.2286 25.455L16.2017 24.5997ZM13.6648 21.6237H12.7697V23.8237H13.6648V21.6237ZM12.7697 21.6237C12.142 21.6237 11.5704 22.1022 11.5218 22.783L13.7162 22.9398C13.6787 23.4643 13.2412 23.8237 12.7697 23.8237V21.6237ZM11.5222 22.7772C11.4952 23.1293 11.197 23.4101 10.8364 23.4101V25.6101C12.3551 25.6101 13.6014 24.4357 13.7158 22.9456L11.5222 22.7772ZM10.8364 23.4101C10.4738 23.4101 10.1767 23.1279 10.1507 22.7794L7.95678 22.9434C8.06843 24.4371 9.31949 25.6101 10.8364 25.6101V23.4101ZM10.1509 22.783C10.1023 22.1022 9.53073 21.6237 8.90299 21.6237V23.8237C8.43156 23.8237 7.99398 23.4643 7.95651 22.9398L10.1509 22.783ZM8.90299 21.6237H8.00795V23.8237H8.90299V21.6237ZM8.00933 21.6237C7.83995 21.6235 7.67229 21.6577 7.51653 21.7244L8.38189 23.747C8.26326 23.7978 8.13557 23.8239 8.00658 23.8237L8.00933 21.6237ZM7.51653 21.7244C7.36079 21.791 7.22023 21.8886 7.10342 22.0113L8.69652 23.5285C8.60755 23.6219 8.50051 23.6963 8.38189 23.747L7.51653 21.7244ZM7.10342 22.0113C6.98658 22.134 6.89594 22.2791 6.83699 22.4379L8.89943 23.2036C8.85453 23.3245 8.7855 23.4351 8.69652 23.5285L7.10342 22.0113ZM6.83699 22.4379C6.77803 22.5967 6.75199 22.7658 6.76046 22.935L8.95771 22.825C8.96416 22.9539 8.94433 23.0827 8.89943 23.2036L6.83699 22.4379ZM6.76058 22.9374C6.87284 25.0881 8.65786 26.801 10.8364 26.801V24.601C9.8329 24.601 9.00908 23.8092 8.95759 22.8227L6.76058 22.9374ZM10.8364 26.801C13.0149 26.801 14.7999 25.0881 14.9121 22.9374L12.7151 22.8227C12.6636 23.8092 11.8398 24.601 10.8364 24.601V26.801ZM14.9123 22.935C14.9207 22.7659 14.8947 22.5967 14.8357 22.4379L12.7733 23.2036C12.7284 23.0827 12.7086 22.9538 12.715 22.825L14.9123 22.935ZM14.8357 22.4379C14.7768 22.2791 14.6861 22.1339 14.5693 22.0113L12.9762 23.5285C12.8872 23.4351 12.8182 23.3246 12.7733 23.2036L14.8357 22.4379ZM14.5693 22.0113C14.4525 21.8886 14.3119 21.791 14.1562 21.7244L13.2908 23.747C13.1722 23.6963 13.0652 23.622 12.9762 23.5285L14.5693 22.0113ZM14.1562 21.7244C14.0004 21.6577 13.8328 21.6235 13.6634 21.6237L13.6661 23.8237C13.5371 23.8239 13.4095 23.7978 13.2908 23.747L14.1562 21.7244Z" fill="#658864" mask="url(#path-3-inside-1_353_849)"/>
</svg>
