<svg width="32" height="32" viewBox="0 0 32 32" fill="none" xmlns="http://www.w3.org/2000/svg">
<path d="M27.7091 21.5841V21.5839V12.136C27.7091 11.9431 27.4998 11.8228 27.3331 11.9201L17.8308 17.4631C17.6004 17.5975 17.4587 17.8441 17.4587 18.1109V27.2588C17.4587 27.4518 17.668 27.572 17.8347 27.4748L27.5954 21.7822L27.7091 21.5841ZM27.7091 21.5841C27.7091 21.6242 27.6986 21.6636 27.6787 21.6983C27.6588 21.733 27.6301 21.7619 27.5956 21.7821L27.7091 21.5841ZM3.75 21.5839V21.5841C3.74999 21.6242 3.76048 21.6636 3.78043 21.6983C3.80034 21.733 3.829 21.7619 3.86353 21.7821L3.75 21.5839ZM3.75 21.5839V12.136C3.75 11.9431 3.9593 11.8228 4.12597 11.9201L13.6283 17.4631C13.8587 17.5975 14.0004 17.8441 14.0004 18.1109V27.2588C14.0004 27.4518 13.7911 27.572 13.6244 27.4748L3.86368 21.7822L3.75 21.5839ZM15.8451 2.78093L15.8451 2.78097L25.6213 8.48432C25.7867 8.58079 25.7867 8.81973 25.6213 8.9162L16.1075 14.466C15.8739 14.6022 15.5852 14.6022 15.3516 14.466L5.83779 8.9162C5.67242 8.81973 5.67241 8.58079 5.83778 8.48432L15.614 2.78097L15.614 2.78093C15.6491 2.76048 15.689 2.74969 15.7296 2.74969C15.7701 2.74969 15.81 2.76048 15.8451 2.78093Z" stroke="#658864" stroke-opacity="0.3" stroke-width="1.5"/>
</svg>
