<svg width="44" height="44" viewBox="0 0 44 44" fill="none" xmlns="http://www.w3.org/2000/svg">
<path d="M22.8565 13.6675C23.4646 13.6652 24.0727 13.6713 24.6807 13.6859L24.8423 13.6917C25.029 13.6984 25.2132 13.7067 25.4357 13.7167C26.3223 13.7584 26.9273 13.8984 27.4582 14.1042C28.0082 14.3159 28.4715 14.6025 28.9348 15.0659C29.3585 15.4822 29.6864 15.9858 29.8957 16.5417C30.1015 17.0725 30.2415 17.6784 30.2832 18.565C30.2932 18.7867 30.3015 18.9717 30.3082 19.1584L30.3132 19.32C30.328 19.9277 30.3344 20.5355 30.3323 21.1434L30.3332 21.765V22.8567C30.3352 23.4648 30.3288 24.0729 30.314 24.6809L30.309 24.8425C30.3023 25.0292 30.294 25.2134 30.284 25.4359C30.2423 26.3225 30.1007 26.9275 29.8957 27.4584C29.687 28.0148 29.3591 28.5189 28.9348 28.935C28.5181 29.3586 28.0143 29.6865 27.4582 29.8959C26.9273 30.1017 26.3223 30.2417 25.4357 30.2834C25.2132 30.2934 25.029 30.3017 24.8423 30.3084L24.6807 30.3134C24.0727 30.3282 23.4646 30.3346 22.8565 30.3325L22.2348 30.3334H21.144C20.5359 30.3354 19.9278 30.329 19.3198 30.3142L19.1582 30.3092C18.9603 30.302 18.7626 30.2937 18.5648 30.2842C17.6782 30.2425 17.0732 30.1009 16.5415 29.8959C15.9854 29.687 15.4817 29.359 15.0657 28.935C14.6415 28.5186 14.3133 28.0147 14.104 27.4584C13.8982 26.9275 13.7582 26.3225 13.7165 25.4359C13.7072 25.2381 13.6989 25.0403 13.6915 24.8425L13.6873 24.6809C13.672 24.0729 13.665 23.4648 13.6665 22.8567V21.1434C13.6642 20.5355 13.6703 19.9277 13.6848 19.32L13.6907 19.1584C13.6973 18.9717 13.7057 18.7867 13.7157 18.565C13.7573 17.6775 13.8973 17.0734 14.1032 16.5417C14.3126 15.9855 14.6415 15.4821 15.0665 15.0667C15.4822 14.6423 15.9856 14.3138 16.5415 14.1042C17.0732 13.8984 17.6773 13.7584 18.5648 13.7167L19.1582 13.6917L19.3198 13.6875C19.9275 13.6722 20.5353 13.6652 21.1432 13.6667L22.8565 13.6675ZM21.9998 17.8342C21.4478 17.8264 20.8996 17.9284 20.3873 18.1343C19.875 18.3401 19.4087 18.6458 19.0155 19.0334C18.6224 19.4211 18.3102 19.883 18.0971 20.3923C17.884 20.9017 17.7742 21.4483 17.7742 22.0004C17.7742 22.5526 17.884 23.0992 18.0971 23.6086C18.3102 24.1179 18.6224 24.5798 19.0155 24.9675C19.4087 25.3551 19.875 25.6608 20.3873 25.8666C20.8996 26.0725 21.4478 26.1745 21.9998 26.1667C23.1049 26.1667 24.1647 25.7277 24.9461 24.9463C25.7275 24.1649 26.1665 23.1051 26.1665 22C26.1665 20.895 25.7275 19.8352 24.9461 19.0538C24.1647 18.2723 23.1049 17.8342 21.9998 17.8342ZM21.9998 19.5009C22.3319 19.4947 22.6619 19.5549 22.9705 19.6777C23.2791 19.8005 23.5601 19.9836 23.7971 20.2163C24.0342 20.449 24.2225 20.7266 24.351 21.0328C24.4796 21.3391 24.5458 21.6679 24.5459 22C24.5459 22.3322 24.4798 22.661 24.3514 22.9673C24.2229 23.2736 24.0347 23.5512 23.7977 23.784C23.5608 24.0167 23.2798 24.1999 22.9713 24.3229C22.6627 24.4458 22.3328 24.506 22.0007 24.5C21.3376 24.5 20.7017 24.2366 20.2329 23.7678C19.7641 23.299 19.5007 22.6631 19.5007 22C19.5007 21.337 19.7641 20.7011 20.2329 20.2323C20.7017 19.7634 21.3376 19.5 22.0007 19.5L21.9998 19.5009ZM26.3748 16.5842C26.106 16.595 25.8517 16.7093 25.6653 16.9033C25.4789 17.0974 25.3748 17.356 25.3748 17.625C25.3748 17.8941 25.4789 18.1527 25.6653 18.3467C25.8517 18.5407 26.106 18.6551 26.3748 18.6659C26.6511 18.6659 26.9161 18.5561 27.1114 18.3608C27.3068 18.1654 27.4165 17.9005 27.4165 17.6242C27.4165 17.3479 27.3068 17.083 27.1114 16.8876C26.9161 16.6923 26.6511 16.5825 26.3748 16.5825V16.5842Z" fill="#658864"/>
<rect x="0.5" y="0.5" width="43" height="43" rx="21.5" stroke="#658864"/>
</svg>
