<svg width="57" height="32" viewBox="0 0 57 32" fill="none" xmlns="http://www.w3.org/2000/svg">
<path d="M48.8284 21.7288C48.4203 21.7288 48.0421 21.4402 47.9326 20.9923L43.5733 3.80411C43.5037 3.54534 43.5435 3.27662 43.6629 3.04771C43.7824 2.8188 43.9914 2.6496 44.2302 2.57994L50.9483 0.649121C51.4459 0.499831 51.9535 0.818313 52.0829 1.35576L56.4222 18.5739C56.4819 18.8326 56.4521 19.1013 56.3326 19.3303C56.2132 19.5592 56.0042 19.7284 55.7653 19.798L49.0672 21.699C48.9876 21.7189 48.898 21.7288 48.8284 21.7288ZM45.6037 4.25198L49.4852 19.5194L54.3819 18.1359L50.5303 2.8387L45.6037 4.25198Z" fill="#658864" fill-opacity="0.3"/>
<path d="M45.6836 20.7237C44.5789 20.7237 43.4841 20.3754 42.5386 19.6986L33.4916 13.2692C32.5959 12.6322 31.4413 12.6222 30.5357 13.2393L27.092 15.5981C26.3854 16.0758 25.5195 16.2152 24.7233 15.9663C23.9171 15.7175 23.2603 15.1104 22.9119 14.2943C22.3844 13.0701 22.6532 11.627 23.5788 10.7213L29.5006 4.89898C31.0134 3.40608 33.1731 2.88855 35.1437 3.52552L39.6822 5.00846C40.7073 5.34685 41.7921 5.35681 42.8172 5.04827L44.7082 4.48097C44.9471 4.4113 45.2059 4.44116 45.4149 4.57055C45.6338 4.69993 45.7831 4.91889 45.8528 5.17766L49.3064 18.7829C49.4358 19.3005 49.167 19.828 48.6893 19.9972L47.4154 20.4251C46.8381 20.6242 46.2609 20.7237 45.6836 20.7237ZM31.9887 10.8009C32.8646 10.8009 33.7504 11.0696 34.5167 11.617L43.5637 18.0464C44.539 18.7431 45.7334 18.9223 46.8481 18.5441L47.2661 18.4047L44.3002 6.69046L43.3149 6.98904C41.9414 7.3971 40.4983 7.37719 39.1348 6.92932L34.5963 5.44638C33.2627 5.00846 31.7897 5.36676 30.7646 6.38193L24.8427 12.2042C24.5143 12.5327 24.4148 13.0403 24.6039 13.4782C24.7333 13.7668 24.9622 13.9858 25.2508 14.0753C25.5394 14.1649 25.838 14.1151 26.0968 13.9459L29.5404 11.5872C30.2769 11.0597 31.1328 10.8009 31.9887 10.8009Z" fill="#658864" fill-opacity="0.3"/>
<path d="M13.3879 21.689C13.2585 21.689 13.1192 21.6591 12.9898 21.5994L8.76986 19.4795C8.32199 19.2506 8.11299 18.6932 8.30209 18.2055L13.0296 5.62538C13.1888 5.19741 13.6069 4.9486 14.0249 5.00831L17.2396 5.5159C18.0457 5.64528 18.8718 5.55571 19.6382 5.25713L26.3463 2.63958C27.2719 2.28129 28.287 2.29124 29.2027 2.68935L31.7505 3.79409C32.2283 4.00309 32.4572 4.58035 32.2681 5.08793C32.079 5.59552 31.5316 5.84433 31.0539 5.63533L28.506 4.53059C28.0183 4.32158 27.4709 4.31163 26.9733 4.50073L20.2652 7.11828C19.2102 7.52634 18.0656 7.65572 16.9609 7.47657L14.4727 7.07846L10.3424 18.0562L13.7661 19.7681C14.2339 19.997 14.4329 20.5942 14.214 21.0918C14.0746 21.47 13.7362 21.689 13.3879 21.689Z" fill="#658864" fill-opacity="0.3"/>
<path d="M14.4233 25.5308C13.856 25.5308 13.2986 25.3417 12.8209 24.9834C11.5669 24.0379 11.2683 22.1668 12.1541 20.8331L13.3285 19.0516C13.7564 18.4047 14.3934 17.9667 15.1299 17.8374C15.8664 17.708 16.6029 17.8871 17.21 18.3449C18.464 19.2904 18.7626 21.1615 17.8768 22.4952L16.7024 24.2767C16.2745 24.9236 15.6375 25.3616 14.901 25.491C14.7318 25.5208 14.5825 25.5308 14.4233 25.5308ZM15.6076 19.7881C15.5579 19.7881 15.4982 19.7881 15.4484 19.798C15.2095 19.8378 14.9906 19.9871 14.8512 20.1961L13.6768 21.9777C13.3882 22.4255 13.4778 23.0426 13.8958 23.3511C14.0948 23.5004 14.3436 23.5601 14.5825 23.5203C14.8214 23.4805 15.0403 23.3312 15.1797 23.1222L16.3541 21.3407C16.6427 20.8928 16.5531 20.2758 16.1351 19.9672C15.9759 19.8478 15.7967 19.7881 15.6076 19.7881Z" fill="#658864" fill-opacity="0.3"/>
<path d="M16.9607 28.7752C16.3934 28.7752 15.8161 28.596 15.3185 28.2178C14.0346 27.2425 13.7261 25.3316 14.6417 23.9581L18.1849 18.6036C19.0906 17.2301 20.882 16.9017 22.1659 17.877C23.4498 18.8524 23.7584 20.7633 22.8427 22.1368L19.2996 27.4913C18.7422 28.3174 17.8564 28.7752 16.9607 28.7752ZM20.5038 19.2903C20.1953 19.2903 19.8868 19.4496 19.6877 19.7382L16.1446 25.0927C15.8261 25.5704 15.9356 26.2373 16.3834 26.5757C16.8313 26.914 17.4583 26.8046 17.7669 26.3169L21.31 20.9624C21.6285 20.4846 21.519 19.8178 21.0711 19.4794C20.902 19.36 20.7029 19.2903 20.5038 19.2903Z" fill="#658864" fill-opacity="0.3"/>
<path d="M20.9421 29.8899C20.3748 29.8899 19.7976 29.7108 19.3 29.3326C18.0161 28.3572 17.7075 26.4463 18.6232 25.0729L21.1511 21.251C22.0568 19.8776 23.8483 19.5491 25.1322 20.5245C25.7592 20.9923 26.1673 21.6989 26.2967 22.5051C26.4261 23.3112 26.2569 24.1174 25.809 24.7842L23.281 28.5961C22.7237 29.4421 21.8379 29.8899 20.9421 29.8899ZM23.4701 21.9477C23.4104 21.9477 23.3606 21.9477 23.3009 21.9676C23.0422 22.0174 22.8132 22.1667 22.654 22.4055L20.126 26.2274C19.9767 26.4563 19.917 26.7449 19.9568 27.0236C19.9966 27.3023 20.1459 27.5511 20.3649 27.7103C20.8128 28.0487 21.4398 27.9392 21.7483 27.4515L24.2763 23.6297C24.4256 23.4008 24.4853 23.1122 24.4455 22.8335C24.3957 22.5548 24.2564 22.306 24.0374 22.1468C23.8782 22.0074 23.6791 21.9477 23.4701 21.9477Z" fill="#658864" fill-opacity="0.3"/>
<path d="M24.4155 32.0001C23.8183 32.0001 23.2311 31.8011 22.7235 31.4229C21.3998 30.4176 21.0913 28.457 22.0268 27.0437L24.0174 24.038C24.4752 23.3513 25.142 22.8934 25.9183 22.7541C26.6946 22.6148 27.4709 22.8039 28.1079 23.2915C28.7449 23.7792 29.1728 24.4958 29.3022 25.3219C29.4316 26.148 29.2525 26.984 28.8046 27.6707L26.8141 30.6764C26.3562 31.3631 25.6894 31.821 24.9131 31.9603C24.7539 31.9802 24.5847 32.0001 24.4155 32.0001ZM26.4159 24.6949C26.3562 24.6949 26.2965 24.7048 26.2368 24.7148C25.9581 24.7645 25.7093 24.9337 25.5401 25.1825L23.5496 28.1882C23.2112 28.7058 23.3207 29.4224 23.8084 29.7906C24.0472 29.9698 24.3259 30.0394 24.6046 29.9897C24.8832 29.9399 25.1321 29.7707 25.3013 29.5219L27.2918 26.5162C27.461 26.2674 27.5207 25.9589 27.4709 25.6603C27.4212 25.3617 27.2719 25.093 27.033 24.9138C26.8439 24.7745 26.6349 24.6949 26.4159 24.6949Z" fill="#658864" fill-opacity="0.3"/>
<path d="M32.6352 30.8953C32.3167 30.8953 31.9982 30.8257 31.6997 30.6764L27.3105 28.5266C26.8428 28.2977 26.6338 27.7105 26.8527 27.2029C27.0617 26.7053 27.6191 26.4863 28.0868 26.7053L32.476 28.855C32.6551 28.9446 32.8542 28.8849 32.9636 28.7157C33.0532 28.5764 33.0433 28.447 33.0234 28.3773C33.0035 28.3076 32.9636 28.1783 32.8243 28.0986L30.376 26.6953C29.9281 26.4365 29.7489 25.8294 29.9978 25.3417C30.2366 24.8541 30.8039 24.6749 31.2617 24.9337L33.7001 26.337C34.2674 26.6654 34.6755 27.2327 34.8248 27.9095C34.9741 28.5764 34.8447 29.2929 34.4765 29.8503C34.0485 30.5271 33.3518 30.8953 32.6352 30.8953Z" fill="#658864" fill-opacity="0.3"/>
<path d="M36.1401 29.502C35.7519 29.502 35.3538 29.4124 34.9756 29.2133L32.5671 27.9593C32.1093 27.7204 31.9102 27.1233 32.1391 26.6257C32.368 26.128 32.9154 25.919 33.3832 26.1678L35.7917 27.4219C36.1401 27.601 36.5481 27.4915 36.7671 27.1432C36.8865 26.9541 36.9363 26.7152 36.8865 26.4863C36.8368 26.2574 36.7074 26.0683 36.5183 25.9489L29.432 21.5398C28.9841 21.2612 28.8348 20.6541 29.0936 20.1763C29.3524 19.6986 29.9197 19.5394 30.3675 19.818L37.4538 24.2271C38.0908 24.6252 38.5387 25.282 38.7079 26.0484C38.8671 26.8148 38.7178 27.6209 38.3098 28.2678C37.7922 29.074 36.9861 29.502 36.1401 29.502Z" fill="#658864" fill-opacity="0.3"/>
<path d="M38.6278 26.8346C38.1501 26.8346 37.6723 26.6953 37.2444 26.4266L31.6908 22.9431C31.2429 22.6645 31.0936 22.0574 31.3524 21.5796C31.6112 21.1019 32.1785 20.9427 32.6263 21.2213L38.1799 24.7048C38.3889 24.8341 38.6278 24.864 38.8666 24.8043C39.0956 24.7346 39.2946 24.5754 39.4041 24.3465C39.633 23.8986 39.4937 23.3412 39.0856 23.0825L32.1287 18.5142C31.6908 18.2256 31.5514 17.6085 31.8202 17.1407C32.0889 16.673 32.6661 16.5237 33.1041 16.8123L40.061 21.3806C41.315 22.2066 41.743 23.9285 41.0363 25.3119C40.678 26.0185 40.0809 26.5161 39.3543 26.7252C39.1254 26.8048 38.8766 26.8346 38.6278 26.8346Z" fill="#658864" fill-opacity="0.3"/>
<path d="M41.4143 24.0678C40.8172 24.0678 40.23 23.8886 39.7124 23.5403L36.9854 21.699C36.5475 21.4005 36.4181 20.7933 36.6968 20.3256C36.9754 19.8578 37.5428 19.7185 37.9807 20.017L40.7077 21.8583C41.0162 22.0673 41.3845 22.127 41.7428 22.0374C42.1011 21.9478 42.3996 21.709 42.5788 21.3706C42.9371 20.7137 42.7579 19.8677 42.1608 19.4497L37.274 15.9763C36.8461 15.6677 36.7266 15.0507 37.0153 14.5928C37.2939 14.135 37.8811 14.0056 38.3091 14.3142L43.1959 17.7876C44.6091 18.7929 45.047 20.8033 44.1911 22.3758C43.7532 23.182 43.0366 23.7592 42.1807 23.9782C41.9219 24.0379 41.6731 24.0678 41.4143 24.0678Z" fill="#658864" fill-opacity="0.3"/>
<path d="M8.39125 21.5099C8.28177 21.5099 8.16234 21.49 8.05286 21.4402L1.14572 18.5937C0.916808 18.4942 0.727709 18.3151 0.628182 18.0663C0.528656 17.8274 0.518702 17.5487 0.608276 17.2999L6.59978 0.639156C6.77892 0.131571 7.30641 -0.1272 7.78414 0.0619001L15.0794 2.84864C15.3183 2.93822 15.5174 3.13727 15.6169 3.38609C15.7164 3.63491 15.7264 3.92353 15.6268 4.17235L14.7709 6.37189L10.0334 18.9421L9.24718 20.9028C9.08794 21.281 8.74955 21.5099 8.39125 21.5099ZM2.67843 17.0909L7.88367 19.2307L8.31163 18.1757L13.0391 5.61548C13.0491 5.60553 13.5268 4.3714 13.5268 4.3714L8.01305 2.26144L2.67843 17.0909Z" fill="#658864" fill-opacity="0.3"/>
</svg>
