<svg width="56" height="32" viewBox="0 0 56 32" fill="none" xmlns="http://www.w3.org/2000/svg">
<path d="M48.3284 21.7288C47.9203 21.7288 47.5421 21.4402 47.4326 20.9923L43.0733 3.80411C43.0037 3.54534 43.0435 3.27662 43.1629 3.04771C43.2824 2.8188 43.4914 2.6496 43.7302 2.57994L50.4483 0.649121C50.9459 0.499831 51.4535 0.818313 51.5829 1.35576L55.9222 18.5739C55.9819 18.8326 55.9521 19.1013 55.8326 19.3303C55.7132 19.5592 55.5042 19.7284 55.2653 19.798L48.5672 21.699C48.4876 21.7189 48.398 21.7288 48.3284 21.7288ZM45.1037 4.25198L48.9852 19.5194L53.8819 18.1359L50.0303 2.8387L45.1037 4.25198Z" fill="#658864"/>
<path d="M45.1836 20.7237C44.0789 20.7237 42.9841 20.3754 42.0386 19.6986L32.9916 13.2692C32.0959 12.6322 30.9413 12.6222 30.0357 13.2393L26.592 15.5981C25.8854 16.0758 25.0195 16.2152 24.2233 15.9663C23.4171 15.7175 22.7603 15.1104 22.4119 14.2943C21.8844 13.0701 22.1532 11.627 23.0788 10.7213L29.0006 4.89898C30.5134 3.40608 32.6731 2.88855 34.6437 3.52552L39.1822 5.00846C40.2073 5.34685 41.2921 5.35681 42.3172 5.04827L44.2082 4.48097C44.4471 4.4113 44.7059 4.44116 44.9149 4.57055C45.1338 4.69993 45.2831 4.91889 45.3528 5.17766L48.8064 18.7829C48.9358 19.3005 48.667 19.828 48.1893 19.9972L46.9154 20.4251C46.3381 20.6242 45.7609 20.7237 45.1836 20.7237ZM31.4887 10.8009C32.3646 10.8009 33.2504 11.0696 34.0167 11.617L43.0637 18.0464C44.039 18.7431 45.2334 18.9223 46.3481 18.5441L46.7661 18.4047L43.8002 6.69046L42.8149 6.98904C41.4414 7.3971 39.9983 7.37719 38.6348 6.92932L34.0963 5.44638C32.7627 5.00846 31.2897 5.36676 30.2646 6.38193L24.3427 12.2042C24.0143 12.5327 23.9148 13.0403 24.1039 13.4782C24.2333 13.7668 24.4622 13.9858 24.7508 14.0753C25.0394 14.1649 25.338 14.1151 25.5968 13.9459L29.0404 11.5872C29.7769 11.0597 30.6328 10.8009 31.4887 10.8009Z" fill="#658864"/>
<path d="M12.8879 21.689C12.7585 21.689 12.6192 21.6591 12.4898 21.5994L8.26986 19.4795C7.82199 19.2506 7.61299 18.6932 7.80209 18.2055L12.5296 5.62538C12.6888 5.19741 13.1069 4.9486 13.5249 5.00831L16.7396 5.5159C17.5457 5.64528 18.3718 5.55571 19.1382 5.25713L25.8463 2.63958C26.7719 2.28129 27.787 2.29124 28.7027 2.68935L31.2505 3.79409C31.7283 4.00309 31.9572 4.58035 31.7681 5.08793C31.579 5.59552 31.0316 5.84433 30.5539 5.63533L28.006 4.53059C27.5183 4.32158 26.9709 4.31163 26.4733 4.50073L19.7652 7.11828C18.7102 7.52634 17.5656 7.65572 16.4609 7.47657L13.9727 7.07846L9.84239 18.0562L13.2661 19.7681C13.7339 19.997 13.9329 20.5942 13.714 21.0918C13.5746 21.47 13.2362 21.689 12.8879 21.689Z" fill="#658864"/>
<path d="M13.9233 25.5308C13.356 25.5308 12.7986 25.3417 12.3209 24.9834C11.0669 24.0379 10.7683 22.1668 11.6541 20.8331L12.8285 19.0516C13.2564 18.4047 13.8934 17.9667 14.6299 17.8374C15.3664 17.708 16.1029 17.8871 16.71 18.3449C17.964 19.2904 18.2626 21.1615 17.3768 22.4952L16.2024 24.2767C15.7745 24.9236 15.1375 25.3616 14.401 25.491C14.2318 25.5208 14.0825 25.5308 13.9233 25.5308ZM15.1076 19.7881C15.0579 19.7881 14.9982 19.7881 14.9484 19.798C14.7095 19.8378 14.4906 19.9871 14.3512 20.1961L13.1768 21.9777C12.8882 22.4255 12.9778 23.0426 13.3958 23.3511C13.5948 23.5004 13.8436 23.5601 14.0825 23.5203C14.3214 23.4805 14.5403 23.3312 14.6797 23.1222L15.8541 21.3407C16.1427 20.8928 16.0531 20.2758 15.6351 19.9672C15.4759 19.8478 15.2967 19.7881 15.1076 19.7881Z" fill="#658864"/>
<path d="M16.4607 28.7752C15.8934 28.7752 15.3161 28.596 14.8185 28.2178C13.5346 27.2425 13.2261 25.3316 14.1417 23.9581L17.6849 18.6036C18.5906 17.2301 20.382 16.9017 21.6659 17.877C22.9498 18.8524 23.2584 20.7633 22.3427 22.1368L18.7996 27.4913C18.2422 28.3174 17.3564 28.7752 16.4607 28.7752ZM20.0038 19.2903C19.6953 19.2903 19.3868 19.4496 19.1877 19.7382L15.6446 25.0927C15.3261 25.5704 15.4356 26.2373 15.8834 26.5757C16.3313 26.914 16.9583 26.8046 17.2669 26.3169L20.81 20.9624C21.1285 20.4846 21.019 19.8178 20.5711 19.4794C20.402 19.36 20.2029 19.2903 20.0038 19.2903Z" fill="#658864"/>
<path d="M20.4421 29.8899C19.8748 29.8899 19.2976 29.7108 18.8 29.3326C17.5161 28.3572 17.2075 26.4463 18.1232 25.0729L20.6511 21.251C21.5568 19.8776 23.3483 19.5491 24.6322 20.5245C25.2592 20.9923 25.6673 21.6989 25.7967 22.5051C25.9261 23.3112 25.7569 24.1174 25.309 24.7842L22.781 28.5961C22.2237 29.4421 21.3379 29.8899 20.4421 29.8899ZM22.9701 21.9477C22.9104 21.9477 22.8606 21.9477 22.8009 21.9676C22.5422 22.0174 22.3132 22.1667 22.154 22.4055L19.626 26.2274C19.4767 26.4563 19.417 26.7449 19.4568 27.0236C19.4966 27.3023 19.6459 27.5511 19.8649 27.7103C20.3128 28.0487 20.9398 27.9392 21.2483 27.4515L23.7763 23.6297C23.9256 23.4008 23.9853 23.1122 23.9455 22.8335C23.8957 22.5548 23.7564 22.306 23.5374 22.1468C23.3782 22.0074 23.1791 21.9477 22.9701 21.9477Z" fill="#658864"/>
<path d="M23.9155 32.0001C23.3183 32.0001 22.7311 31.8011 22.2235 31.4229C20.8998 30.4176 20.5913 28.457 21.5268 27.0437L23.5174 24.038C23.9752 23.3513 24.642 22.8934 25.4183 22.7541C26.1946 22.6148 26.9709 22.8039 27.6079 23.2915C28.2449 23.7792 28.6728 24.4958 28.8022 25.3219C28.9316 26.148 28.7525 26.984 28.3046 27.6707L26.3141 30.6764C25.8562 31.3631 25.1894 31.821 24.4131 31.9603C24.2539 31.9802 24.0847 32.0001 23.9155 32.0001ZM25.9159 24.6949C25.8562 24.6949 25.7965 24.7048 25.7368 24.7148C25.4581 24.7645 25.2093 24.9337 25.0401 25.1825L23.0496 28.1882C22.7112 28.7058 22.8207 29.4224 23.3084 29.7906C23.5472 29.9698 23.8259 30.0394 24.1046 29.9897C24.3832 29.9399 24.6321 29.7707 24.8013 29.5219L26.7918 26.5162C26.961 26.2674 27.0207 25.9589 26.9709 25.6603C26.9212 25.3617 26.7719 25.093 26.533 24.9138C26.3439 24.7745 26.1349 24.6949 25.9159 24.6949Z" fill="#658864"/>
<path d="M32.1352 30.8953C31.8167 30.8953 31.4982 30.8257 31.1997 30.6764L26.8105 28.5266C26.3428 28.2977 26.1338 27.7105 26.3527 27.2029C26.5617 26.7053 27.1191 26.4863 27.5868 26.7053L31.976 28.855C32.1551 28.9446 32.3542 28.8849 32.4636 28.7157C32.5532 28.5764 32.5433 28.447 32.5234 28.3773C32.5035 28.3076 32.4636 28.1783 32.3243 28.0986L29.876 26.6953C29.4281 26.4365 29.2489 25.8294 29.4978 25.3417C29.7366 24.8541 30.3039 24.6749 30.7617 24.9337L33.2001 26.337C33.7674 26.6654 34.1755 27.2327 34.3248 27.9095C34.4741 28.5764 34.3447 29.2929 33.9765 29.8503C33.5485 30.5271 32.8518 30.8953 32.1352 30.8953Z" fill="#658864"/>
<path d="M35.6401 29.502C35.2519 29.502 34.8538 29.4124 34.4756 29.2133L32.0671 27.9593C31.6093 27.7204 31.4102 27.1233 31.6391 26.6257C31.868 26.128 32.4154 25.919 32.8832 26.1678L35.2917 27.4219C35.6401 27.601 36.0481 27.4915 36.2671 27.1432C36.3865 26.9541 36.4363 26.7152 36.3865 26.4863C36.3368 26.2574 36.2074 26.0683 36.0183 25.9489L28.932 21.5398C28.4841 21.2612 28.3348 20.6541 28.5936 20.1763C28.8524 19.6986 29.4197 19.5394 29.8675 19.818L36.9538 24.2271C37.5908 24.6252 38.0387 25.282 38.2079 26.0484C38.3671 26.8148 38.2178 27.6209 37.8098 28.2678C37.2922 29.074 36.4861 29.502 35.6401 29.502Z" fill="#658864"/>
<path d="M38.1278 26.8346C37.6501 26.8346 37.1723 26.6953 36.7444 26.4266L31.1908 22.9431C30.7429 22.6645 30.5936 22.0574 30.8524 21.5796C31.1112 21.1019 31.6785 20.9427 32.1263 21.2213L37.6799 24.7048C37.8889 24.8341 38.1278 24.864 38.3666 24.8043C38.5956 24.7346 38.7946 24.5754 38.9041 24.3465C39.133 23.8986 38.9937 23.3412 38.5856 23.0825L31.6287 18.5142C31.1908 18.2256 31.0514 17.6085 31.3202 17.1407C31.5889 16.673 32.1661 16.5237 32.6041 16.8123L39.561 21.3806C40.815 22.2066 41.243 23.9285 40.5363 25.3119C40.178 26.0185 39.5809 26.5161 38.8543 26.7252C38.6254 26.8048 38.3766 26.8346 38.1278 26.8346Z" fill="#658864"/>
<path d="M40.9143 24.0678C40.3172 24.0678 39.73 23.8886 39.2124 23.5403L36.4854 21.699C36.0475 21.4005 35.9181 20.7933 36.1968 20.3256C36.4754 19.8578 37.0428 19.7185 37.4807 20.017L40.2077 21.8583C40.5162 22.0673 40.8845 22.127 41.2428 22.0374C41.6011 21.9478 41.8996 21.709 42.0788 21.3706C42.4371 20.7137 42.2579 19.8677 41.6608 19.4497L36.774 15.9763C36.3461 15.6677 36.2266 15.0507 36.5153 14.5928C36.7939 14.135 37.3811 14.0056 37.8091 14.3142L42.6959 17.7876C44.1091 18.7929 44.547 20.8033 43.6911 22.3758C43.2532 23.182 42.5366 23.7592 41.6807 23.9782C41.4219 24.0379 41.1731 24.0678 40.9143 24.0678Z" fill="#658864"/>
<path d="M7.89125 21.5099C7.78177 21.5099 7.66234 21.49 7.55286 21.4402L0.645719 18.5937C0.416808 18.4942 0.227709 18.3151 0.128182 18.0663C0.0286558 17.8274 0.0187019 17.5487 0.108276 17.2999L6.09978 0.639156C6.27892 0.131571 6.80641 -0.1272 7.28414 0.0619001L14.5794 2.84864C14.8183 2.93822 15.0174 3.13727 15.1169 3.38609C15.2164 3.63491 15.2264 3.92353 15.1268 4.17235L14.2709 6.37189L9.53344 18.9421L8.74718 20.9028C8.58794 21.281 8.24955 21.5099 7.89125 21.5099ZM2.17843 17.0909L7.38367 19.2307L7.81163 18.1757L12.5391 5.61548C12.5491 5.60553 13.0268 4.3714 13.0268 4.3714L7.51305 2.26144L2.17843 17.0909Z" fill="#658864"/>
</svg>
