<svg width="358" height="100" viewBox="0 0 358 100" fill="none" xmlns="http://www.w3.org/2000/svg">
<path d="M50.5 100C78.1142 100 100.5 77.6142 100.5 50C100.5 22.3858 78.1142 0 50.5 0C22.8858 0 0.5 22.3858 0.5 50C0.5 77.6142 22.8858 100 50.5 100Z" fill="#479E10"/>
<path d="M77.0184 58.7355C76.4862 58.7355 75.993 58.3591 75.8502 57.775L70.1648 35.3581C70.074 35.0206 70.1259 34.6701 70.2817 34.3716C70.4374 34.073 70.71 33.8524 71.0215 33.7615L79.7832 31.2433C80.4322 31.0486 81.0942 31.464 81.263 32.1649L86.9224 54.6208C87.0002 54.9583 86.9613 55.3087 86.8055 55.6073C86.6498 55.9058 86.3772 56.1265 86.0657 56.2174L77.3299 58.6966C77.2261 58.7226 77.1093 58.7355 77.0184 58.7355ZM72.8128 35.9422L77.8751 55.8539L84.2614 54.0497L79.238 34.099L72.8128 35.9422Z" fill="white"/>
<path d="M72.9167 57.4247C71.4759 57.4247 70.0481 56.9704 68.815 56.0878L57.0159 47.7025C55.8477 46.8718 54.342 46.8588 53.1608 47.6636L48.6696 50.7399C47.748 51.3629 46.6187 51.5447 45.5803 51.2202C44.5289 50.8957 43.6722 50.1039 43.2179 49.0395C42.5299 47.4429 42.8804 45.5608 44.0876 44.3796L51.8108 36.7861C53.7838 34.8391 56.6005 34.1641 59.1706 34.9948L65.0896 36.9289C66.4266 37.3702 67.8415 37.3832 69.1784 36.9808L71.6447 36.2409C71.9562 36.1501 72.2937 36.189 72.5663 36.3577C72.8518 36.5265 73.0465 36.8121 73.1374 37.1495L77.6416 54.8936C77.8103 55.5685 77.4598 56.2565 76.8368 56.4772L75.1753 57.0353C74.4224 57.2949 73.6696 57.4247 72.9167 57.4247ZM55.0559 44.4834C56.1981 44.4834 57.3534 44.8339 58.3529 45.5478L70.1519 53.933C71.424 54.8417 72.9816 55.0753 74.4354 54.582L74.9806 54.4003L71.1125 39.1225L69.8274 39.512C68.0362 40.0441 66.154 40.0182 64.3757 39.4341L58.4567 37.5C56.7174 36.9289 54.7963 37.3962 53.4593 38.7202L45.7361 46.3136C45.3077 46.742 45.1779 47.404 45.4245 47.9751C45.5933 48.3515 45.8918 48.6371 46.2682 48.7539C46.6447 48.8707 47.0341 48.8058 47.3716 48.5852L51.8627 45.5088C52.8233 44.8209 53.9396 44.4834 55.0559 44.4834Z" fill="white"/>
<path d="M30.796 58.6838C30.6273 58.6838 30.4456 58.6448 30.2768 58.5669L24.7732 55.8021C24.1891 55.5036 23.9165 54.7767 24.1631 54.1407L30.3288 37.7336C30.5364 37.1755 31.0816 36.8509 31.6268 36.9288L35.8194 37.5908C36.8708 37.7596 37.9482 37.6427 38.9477 37.2533L47.6964 33.8395C48.9035 33.3722 50.2275 33.3852 51.4217 33.9044L54.7446 35.3452C55.3677 35.6178 55.6662 36.3707 55.4196 37.0327C55.173 37.6947 54.4591 38.0192 53.836 37.7466L50.5131 36.3058C49.877 36.0332 49.1631 36.0202 48.5141 36.2668L39.7654 39.6807C38.3895 40.2128 36.8968 40.3816 35.456 40.1479L32.2109 39.6287L26.8241 53.946L31.2893 56.1786C31.8994 56.4771 32.159 57.2559 31.8734 57.9049C31.6917 58.3982 31.2504 58.6838 30.796 58.6838Z" fill="white"/>
<path d="M32.1455 63.6941C31.4056 63.6941 30.6787 63.4475 30.0557 62.9802C28.4202 61.7471 28.0308 59.3068 29.186 57.5674L30.7177 55.244C31.2758 54.4002 32.1066 53.8291 33.0671 53.6604C34.0277 53.4916 34.9882 53.7253 35.78 54.3224C37.4155 55.5555 37.8049 57.9958 36.6497 59.7351L35.118 62.0586C34.5598 62.9023 33.7291 63.4735 32.7686 63.6422C32.5479 63.6811 32.3532 63.6941 32.1455 63.6941ZM33.6902 56.2045C33.6253 56.2045 33.5474 56.2045 33.4825 56.2175C33.171 56.2694 32.8854 56.4641 32.7037 56.7367L31.172 59.0602C30.7956 59.6443 30.9124 60.4491 31.4576 60.8514C31.7172 61.0461 32.0417 61.124 32.3532 61.0721C32.6647 61.0202 32.9503 60.8255 33.132 60.5529L34.6637 58.2294C35.0401 57.6453 34.9233 56.8405 34.3781 56.4381C34.1704 56.2824 33.9368 56.2045 33.6902 56.2045Z" fill="white"/>
<path d="M35.4555 67.9258C34.7156 67.9258 33.9628 67.6922 33.3138 67.1989C31.6393 65.9269 31.2369 63.4346 32.4311 61.6434L37.0521 54.66C38.2333 52.8687 40.5697 52.4404 42.2442 53.7124C43.9186 54.9845 44.321 57.4767 43.1268 59.268L38.5059 66.2514C37.779 67.3287 36.6237 67.9258 35.4555 67.9258ZM40.0765 55.5556C39.6741 55.5556 39.2717 55.7633 39.0121 56.1397L34.3911 63.1231C33.9757 63.7462 34.1185 64.6159 34.7026 65.0572C35.2868 65.4985 36.1045 65.3557 36.5069 64.7197L41.1279 57.7363C41.5432 57.1133 41.4005 56.2436 40.8163 55.8022C40.5957 55.6465 40.3361 55.5556 40.0765 55.5556Z" fill="white"/>
<path d="M40.6479 69.3795C39.908 69.3795 39.1552 69.1459 38.5061 68.6526C36.8317 67.3805 36.4293 64.8883 37.6235 63.097L40.9205 58.1126C42.1017 56.3213 44.4381 55.893 46.1126 57.1651C46.9303 57.7751 47.4625 58.6967 47.6313 59.7481C47.8 60.7995 47.5793 61.8509 46.9952 62.7206L43.6982 67.6921C42.9714 68.7954 41.8161 69.3795 40.6479 69.3795ZM43.9449 59.0212C43.867 59.0212 43.8021 59.0212 43.7242 59.0472C43.3867 59.1121 43.0882 59.3068 42.8805 59.6183L39.5835 64.6028C39.3888 64.9013 39.3109 65.2777 39.3628 65.6412C39.4148 66.0046 39.6095 66.3291 39.895 66.5368C40.4791 66.9781 41.2969 66.8354 41.6993 66.1993L44.9963 61.2149C45.191 60.9164 45.2689 60.5399 45.2169 60.1765C45.152 59.813 44.9703 59.4885 44.6847 59.2808C44.4771 59.0991 44.2175 59.0212 43.9449 59.0212Z" fill="white"/>
<path d="M45.1776 72.1313C44.3988 72.1313 43.633 71.8717 42.971 71.3784C41.2446 70.0674 40.8422 67.5103 42.0623 65.6671L44.6584 61.7471C45.2555 60.8514 46.1252 60.2543 47.1376 60.0726C48.1501 59.8909 49.1626 60.1375 49.9933 60.7735C50.824 61.4096 51.3822 62.3441 51.5509 63.4215C51.7197 64.4989 51.486 65.5892 50.9019 66.4849L48.3059 70.4049C47.7088 71.3005 46.8391 71.8976 45.8266 72.0794C45.6189 72.1053 45.3983 72.1313 45.1776 72.1313ZM47.7866 62.6038C47.7088 62.6038 47.6309 62.6167 47.553 62.6297C47.1896 62.6946 46.865 62.9153 46.6444 63.2398L44.0483 67.1598C43.607 67.8348 43.7498 68.7694 44.3858 69.2497C44.6973 69.4833 45.0608 69.5742 45.4242 69.5093C45.7877 69.4444 46.1122 69.2237 46.3329 68.8992L48.9289 64.9791C49.1496 64.6546 49.2274 64.2523 49.1625 63.8628C49.0976 63.4734 48.9029 63.123 48.5914 62.8893C48.3448 62.7076 48.0722 62.6038 47.7866 62.6038Z" fill="white"/>
<path d="M55.8993 70.6906C55.4839 70.6906 55.0685 70.5998 54.6791 70.4051L48.9548 67.6013C48.3447 67.3028 48.0722 66.537 48.3577 65.875C48.6303 65.226 49.3572 64.9404 49.9673 65.226L55.6916 68.0297C55.9252 68.1465 56.1848 68.0686 56.3276 67.848C56.4444 67.6662 56.4315 67.4975 56.4055 67.4066C56.3795 67.3158 56.3276 67.147 56.1459 67.0432L52.9527 65.213C52.3686 64.8755 52.135 64.0837 52.4595 63.4477C52.771 62.8116 53.5109 62.578 54.108 62.9155L57.2882 64.7457C58.028 65.174 58.5602 65.9139 58.7549 66.7966C58.9496 67.6662 58.7809 68.6008 58.3006 69.3277C57.7425 70.2104 56.8338 70.6906 55.8993 70.6906Z" fill="white"/>
<path d="M60.4687 68.8733C59.9625 68.8733 59.4433 68.7565 58.95 68.4969L55.8088 66.8614C55.2117 66.5499 54.9521 65.7711 55.2506 65.122C55.5492 64.473 56.2631 64.2004 56.8732 64.5249L60.0144 66.1605C60.4687 66.3941 61.0009 66.2513 61.2865 65.797C61.4422 65.5504 61.5071 65.2389 61.4422 64.9403C61.3773 64.6418 61.2086 64.3952 60.9619 64.2394L51.72 58.4891C51.1359 58.1257 50.9412 57.3339 51.2787 56.7108C51.6161 56.0878 52.356 55.8801 52.9401 56.2435L62.1821 61.9938C63.0128 62.513 63.5969 63.3697 63.8176 64.3692C64.0253 65.3687 63.8306 66.4201 63.2984 67.2638C62.6234 68.3152 61.572 68.8733 60.4687 68.8733Z" fill="white"/>
<path d="M63.7135 65.3945C63.0905 65.3945 62.4674 65.2128 61.9093 64.8624L54.6663 60.3193C54.0822 59.9558 53.8875 59.164 54.225 58.541C54.5624 57.9179 55.3023 57.7102 55.8864 58.0737L63.1294 62.6168C63.402 62.7855 63.7135 62.8245 64.0251 62.7466C64.3236 62.6557 64.5832 62.448 64.726 62.1495C65.0245 61.5654 64.8428 60.8385 64.3106 60.501L55.2374 54.543C54.6663 54.1666 54.4846 53.3618 54.835 52.7518C55.1855 52.1417 55.9384 51.947 56.5095 52.3234L65.5827 58.2814C67.2182 59.3587 67.7764 61.6043 66.8548 63.4086C66.3875 64.3302 65.6087 64.9792 64.6611 65.2518C64.3625 65.3556 64.038 65.3945 63.7135 65.3945Z" fill="white"/>
<path d="M67.3482 61.7862C66.5694 61.7862 65.8036 61.5525 65.1286 61.0982L61.572 58.6969C61.0009 58.3075 60.8321 57.5157 61.1956 56.9056C61.559 56.2955 62.2989 56.1138 62.87 56.5032L66.4266 58.9046C66.829 59.1771 67.3093 59.255 67.7766 59.1382C68.2439 59.0214 68.6333 58.7099 68.8669 58.2685C69.3342 57.4118 69.1006 56.3085 68.3218 55.7633L61.9484 51.2332C61.3903 50.8308 61.2345 50.0261 61.611 49.429C61.9744 48.8319 62.7402 48.6631 63.2984 49.0655L69.6717 53.5956C71.5149 54.9066 72.086 57.5286 70.9697 59.5795C70.3986 60.6309 69.464 61.3838 68.3477 61.6693C68.0102 61.7472 67.6857 61.7862 67.3482 61.7862Z" fill="white"/>
<path d="M24.2795 58.4502C24.1367 58.4502 23.9809 58.4242 23.8382 58.3593L14.8298 54.647C14.5313 54.5172 14.2847 54.2835 14.1549 53.959C14.0251 53.6475 14.0121 53.284 14.1289 52.9595L21.943 31.2306C22.1767 30.5686 22.8646 30.2311 23.4877 30.4777L33.0022 34.1122C33.3137 34.229 33.5734 34.4886 33.7032 34.8131C33.833 35.1376 33.8459 35.5141 33.7161 35.8386L32.5998 38.7072L26.4212 55.1013L25.3958 57.6584C25.1881 58.1516 24.7468 58.4502 24.2795 58.4502ZM16.8288 52.6869L23.6175 55.4777L24.1756 54.1018L30.3413 37.7207C30.3542 37.7077 30.9773 36.0982 30.9773 36.0982L23.7862 33.3463L16.8288 52.6869Z" fill="white"/>
<path d="M148.816 35.9808V64.5H141.869V47.3966L135.491 64.5H129.885L123.466 47.356V64.5H116.519V35.9808H124.725L132.728 55.7248L140.65 35.9808H148.816ZM157.306 39.4746C156.087 39.4746 155.085 39.1225 154.299 38.4183C153.541 37.687 153.162 36.7933 153.162 35.737C153.162 34.6537 153.541 33.7599 154.299 33.0557C155.085 32.3244 156.087 31.9588 157.306 31.9588C158.497 31.9588 159.472 32.3244 160.231 33.0557C161.016 33.7599 161.409 34.6537 161.409 35.737C161.409 36.7933 161.016 37.687 160.231 38.4183C159.472 39.1225 158.497 39.4746 157.306 39.4746ZM160.759 41.8309V64.5H153.812V41.8309H160.759ZM178.428 58.6093V64.5H174.893C172.375 64.5 170.411 63.8906 169.003 62.6718C167.594 61.426 166.89 59.4082 166.89 56.6186V47.5997H164.128V41.8309H166.89V36.3058H173.837V41.8309H178.387V47.5997H173.837V56.6999C173.837 57.377 174 57.8645 174.325 58.1624C174.65 58.4603 175.191 58.6093 175.95 58.6093H178.428ZM189.245 45.609C190.057 44.3632 191.073 43.3882 192.291 42.684C193.51 41.9527 194.864 41.5871 196.354 41.5871V48.9404H194.445C192.711 48.9404 191.411 49.3195 190.545 50.0779C189.678 50.8091 189.245 52.1092 189.245 53.9779V64.5H182.298V41.8309H189.245V45.609ZM198.293 53.1248C198.293 50.7956 198.727 48.7508 199.593 46.9903C200.487 45.2299 201.692 43.8757 203.209 42.9278C204.726 41.9798 206.418 41.5059 208.287 41.5059C209.885 41.5059 211.28 41.8309 212.472 42.4809C213.69 43.1309 214.625 43.984 215.275 45.0403V41.8309H222.222V64.5H215.275V61.2906C214.598 62.3468 213.65 63.2 212.431 63.85C211.239 64.5 209.844 64.825 208.247 64.825C206.405 64.825 204.726 64.351 203.209 63.4031C201.692 62.4281 200.487 61.0604 199.593 59.2999C198.727 57.5124 198.293 55.454 198.293 53.1248ZM215.275 53.1654C215.275 51.4321 214.787 50.0643 213.812 49.0622C212.864 48.0601 211.7 47.5591 210.318 47.5591C208.937 47.5591 207.759 48.0601 206.784 49.0622C205.836 50.0372 205.362 51.3914 205.362 53.1248C205.362 54.8582 205.836 56.2394 206.784 57.2686C207.759 58.2707 208.937 58.7718 210.318 58.7718C211.7 58.7718 212.864 58.2707 213.812 57.2686C214.787 56.2665 215.275 54.8988 215.275 53.1654ZM248.982 45.1622C248.982 46.8143 248.603 48.331 247.845 49.7122C247.087 51.0664 245.922 52.1633 244.351 53.0029C242.78 53.8425 240.83 54.2623 238.501 54.2623H234.195V64.5H227.248V35.9808H238.501C240.776 35.9808 242.699 36.3735 244.27 37.1589C245.841 37.9443 247.019 39.0277 247.804 40.409C248.59 41.7902 248.982 43.3746 248.982 45.1622ZM237.973 48.7372C239.3 48.7372 240.288 48.4258 240.938 47.8028C241.589 47.1799 241.914 46.2997 241.914 45.1622C241.914 44.0246 241.589 43.1444 240.938 42.5215C240.288 41.8986 239.3 41.5871 237.973 41.5871H234.195V48.7372H237.973ZM251.218 53.1248C251.218 50.7956 251.651 48.7508 252.518 46.9903C253.412 45.2299 254.617 43.8757 256.133 42.9278C257.65 41.9798 259.343 41.5059 261.212 41.5059C262.81 41.5059 264.204 41.8309 265.396 42.4809C266.615 43.1309 267.549 43.984 268.199 45.0403V41.8309H275.146V64.5H268.199V61.2906C267.522 62.3468 266.574 63.2 265.355 63.85C264.164 64.5 262.769 64.825 261.171 64.825C259.329 64.825 257.65 64.351 256.133 63.4031C254.617 62.4281 253.412 61.0604 252.518 59.2999C251.651 57.5124 251.218 55.454 251.218 53.1248ZM268.199 53.1654C268.199 51.4321 267.712 50.0643 266.737 49.0622C265.789 48.0601 264.624 47.5591 263.243 47.5591C261.862 47.5591 260.684 48.0601 259.709 49.0622C258.761 50.0372 258.287 51.3914 258.287 53.1248C258.287 54.8582 258.761 56.2394 259.709 57.2686C260.684 58.2707 261.862 58.7718 263.243 58.7718C264.624 58.7718 265.789 58.2707 266.737 57.2686C267.712 56.2665 268.199 54.8988 268.199 53.1654ZM293.985 41.5871C296.639 41.5871 298.752 42.4538 300.322 44.1871C301.92 45.8934 302.719 48.2497 302.719 51.256V64.5H295.813V52.1904C295.813 50.6737 295.42 49.4956 294.635 48.656C293.849 47.8164 292.793 47.3966 291.466 47.3966C290.139 47.3966 289.083 47.8164 288.297 48.656C287.512 49.4956 287.119 50.6737 287.119 52.1904V64.5H280.172V41.8309H287.119V44.8372C287.823 43.8351 288.771 43.0496 289.963 42.4809C291.155 41.885 292.495 41.5871 293.985 41.5871ZM328.916 52.7998C328.916 53.4498 328.875 54.1269 328.794 54.8311H313.072C313.18 56.2394 313.627 57.3228 314.413 58.0811C315.225 58.8124 316.214 59.178 317.378 59.178C319.112 59.178 320.317 58.4468 320.994 56.9842H328.388C328.009 58.4739 327.318 59.8145 326.316 61.0062C325.341 62.1979 324.109 63.1323 322.619 63.8094C321.129 64.4865 319.464 64.825 317.622 64.825C315.401 64.825 313.424 64.351 311.691 63.4031C309.957 62.4552 308.603 61.101 307.628 59.3405C306.653 57.5801 306.166 55.5217 306.166 53.1654C306.166 50.8091 306.64 48.7508 307.587 46.9903C308.563 45.2299 309.917 43.8757 311.65 42.9278C313.383 41.9798 315.374 41.5059 317.622 41.5059C319.816 41.5059 321.766 41.9663 323.472 42.8871C325.178 43.808 326.506 45.1215 327.453 46.8278C328.428 48.5341 328.916 50.5248 328.916 52.7998ZM321.806 50.9716C321.806 49.78 321.4 48.832 320.588 48.1278C319.775 47.4237 318.76 47.0716 317.541 47.0716C316.376 47.0716 315.388 47.4101 314.575 48.0872C313.79 48.7643 313.302 49.7258 313.113 50.9716H321.806ZM346.394 41.5871C349.048 41.5871 351.16 42.4538 352.731 44.1871C354.329 45.8934 355.128 48.2497 355.128 51.256V64.5H348.222V52.1904C348.222 50.6737 347.829 49.4956 347.044 48.656C346.258 47.8164 345.202 47.3966 343.875 47.3966C342.548 47.3966 341.491 47.8164 340.706 48.656C339.921 49.4956 339.528 50.6737 339.528 52.1904V64.5H332.581V41.8309H339.528V44.8372C340.232 43.8351 341.18 43.0496 342.372 42.4809C343.563 41.885 344.904 41.5871 346.394 41.5871Z" fill="#479E10"/>
</svg>
