<svg width="816" height="466" viewBox="0 0 816 466" fill="none" xmlns="http://www.w3.org/2000/svg">
<rect x="0.5" y="0.75" width="815" height="464.054" fill="#F1EDE9"/>
<rect x="383.659" y="147.587" width="59.4102" height="186.606" stroke="black" stroke-width="0.66"/>
<path d="M466.105 45.31C466.027 45.0231 465.911 44.7545 465.759 44.5042C465.608 44.2511 465.419 44.0303 465.194 43.8419C464.972 43.6506 464.715 43.5016 464.422 43.3947C464.132 43.2878 463.809 43.2344 463.452 43.2344C462.889 43.2344 462.386 43.3806 461.942 43.6731C461.497 43.9656 461.146 44.3875 460.887 44.9387C460.631 45.49 460.503 46.1537 460.503 46.93C460.503 47.7034 460.632 48.3658 460.891 48.917C461.15 49.4683 461.504 49.8916 461.954 50.1869C462.407 50.4794 462.924 50.6256 463.507 50.6256C464.038 50.6256 464.508 50.5075 464.916 50.2712C465.324 50.035 465.641 49.6975 465.869 49.2587C466.1 48.82 466.212 48.2983 466.207 47.6936L466.46 47.7737H463.692V47.065H466.974V47.7737C466.974 48.5106 466.825 49.1477 466.527 49.6848C466.229 50.222 465.82 50.6369 465.3 50.9294C464.779 51.2219 464.182 51.3681 463.507 51.3681C462.753 51.3681 462.093 51.1867 461.528 50.8239C460.963 50.4583 460.523 49.9436 460.208 49.2798C459.895 48.6133 459.739 47.83 459.739 46.93C459.739 46.2522 459.829 45.6405 460.009 45.0948C460.189 44.5492 460.444 44.0823 460.773 43.6942C461.105 43.3061 461.497 43.0094 461.95 42.8041C462.403 42.5959 462.903 42.4919 463.452 42.4919C463.924 42.4919 464.356 42.5664 464.747 42.7155C465.141 42.8645 465.487 43.0698 465.785 43.3314C466.086 43.5902 466.332 43.8897 466.523 44.23C466.717 44.5675 466.848 44.9275 466.915 45.31H466.105ZM471.296 51.385C470.736 51.385 470.241 51.243 469.811 50.9589C469.383 50.6748 469.048 50.2825 468.806 49.7819C468.565 49.2784 468.444 48.6977 468.444 48.0395C468.444 47.3758 468.565 46.7922 468.806 46.2887C469.048 45.7825 469.383 45.3887 469.811 45.1075C470.241 44.8234 470.736 44.6814 471.296 44.6814C471.855 44.6814 472.349 44.8234 472.776 45.1075C473.204 45.3916 473.539 45.7853 473.78 46.2887C474.025 46.7922 474.147 47.3758 474.147 48.0395C474.147 48.6977 474.026 49.2784 473.785 49.7819C473.543 50.2825 473.207 50.6748 472.776 50.9589C472.349 51.243 471.855 51.385 471.296 51.385ZM471.296 50.6973C471.746 50.6973 472.127 50.5764 472.439 50.3345C472.751 50.0927 472.987 49.7706 473.148 49.3684C473.311 48.9662 473.392 48.5233 473.392 48.0395C473.392 47.5558 473.311 47.1114 473.148 46.7064C472.987 46.3014 472.751 45.9766 472.439 45.7319C472.127 45.4872 471.746 45.3648 471.296 45.3648C470.848 45.3648 470.467 45.4872 470.152 45.7319C469.84 45.9766 469.602 46.3014 469.439 46.7064C469.279 47.1114 469.199 47.5558 469.199 48.0395C469.199 48.5233 469.279 48.9662 469.439 49.3684C469.602 49.7706 469.84 50.0927 470.152 50.3345C470.464 50.5764 470.846 50.6973 471.296 50.6973ZM481.689 44.77V45.4239H478.597V44.77H481.689ZM479.563 43.2175H480.318V49.5583C480.318 49.8283 480.365 50.0406 480.458 50.1953C480.55 50.3472 480.671 50.4555 480.82 50.5202C480.969 50.582 481.128 50.613 481.297 50.613C481.396 50.613 481.48 50.6073 481.55 50.5961C481.621 50.582 481.682 50.568 481.736 50.5539L481.896 51.2331C481.823 51.2613 481.733 51.2866 481.626 51.3091C481.519 51.3344 481.387 51.347 481.23 51.347C480.954 51.347 480.688 51.2866 480.432 51.1656C480.179 51.0447 479.971 50.8647 479.808 50.6256C479.645 50.3866 479.563 50.0898 479.563 49.7355V43.2175ZM485.844 51.385C485.284 51.385 484.789 51.243 484.359 50.9589C483.931 50.6748 483.597 50.2825 483.355 49.7819C483.113 49.2784 482.992 48.6977 482.992 48.0395C482.992 47.3758 483.113 46.7922 483.355 46.2887C483.597 45.7825 483.931 45.3887 484.359 45.1075C484.789 44.8234 485.284 44.6814 485.844 44.6814C486.404 44.6814 486.897 44.8234 487.325 45.1075C487.752 45.3916 488.087 45.7853 488.329 46.2887C488.573 46.7922 488.696 47.3758 488.696 48.0395C488.696 48.6977 488.575 49.2784 488.333 49.7819C488.091 50.2825 487.755 50.6748 487.325 50.9589C486.897 51.243 486.404 51.385 485.844 51.385ZM485.844 50.6973C486.294 50.6973 486.675 50.5764 486.987 50.3345C487.299 50.0927 487.536 49.7706 487.696 49.3684C487.859 48.9662 487.941 48.5233 487.941 48.0395C487.941 47.5558 487.859 47.1114 487.696 46.7064C487.536 46.3014 487.299 45.9766 486.987 45.7319C486.675 45.4872 486.294 45.3648 485.844 45.3648C485.397 45.3648 485.016 45.4872 484.701 45.7319C484.388 45.9766 484.151 46.3014 483.988 46.7064C483.827 47.1114 483.747 47.5558 483.747 48.0395C483.747 48.5233 483.827 48.9662 483.988 49.3684C484.151 49.7706 484.388 50.0927 484.701 50.3345C485.013 50.5764 485.394 50.6973 485.844 50.6973ZM494.436 47.2V51.25H493.685V44.77H494.415V45.7867H494.483C494.635 45.4548 494.871 45.1891 495.192 44.9894C495.515 44.7869 495.914 44.6856 496.39 44.6856C496.826 44.6856 497.208 44.777 497.537 44.9598C497.869 45.1398 498.126 45.4056 498.309 45.7572C498.495 46.1087 498.588 46.5405 498.588 47.0523V51.25H497.837V47.0987C497.837 46.5672 497.688 46.1467 497.39 45.8373C497.094 45.528 496.698 45.3733 496.2 45.3733C495.86 45.3733 495.557 45.4464 495.293 45.5927C495.028 45.7389 494.819 45.9498 494.664 46.2255C494.512 46.4983 494.436 46.8231 494.436 47.2ZM503.185 51.385C502.58 51.385 502.057 51.2444 501.616 50.9631C501.174 50.6791 500.832 50.2867 500.591 49.7861C500.351 49.2827 500.232 48.7033 500.232 48.048C500.232 47.3955 500.351 46.8161 500.591 46.3098C500.832 45.8008 501.166 45.4028 501.59 45.1159C502.018 44.8262 502.511 44.6814 503.071 44.6814C503.423 44.6814 503.762 44.7461 504.088 44.8755C504.414 45.002 504.707 45.1975 504.965 45.4619C505.227 45.7234 505.434 46.0539 505.586 46.4533C505.737 46.8498 505.813 47.3195 505.813 47.8623V48.2336H500.751V47.5712H505.046C505.046 47.155 504.961 46.7809 504.792 46.4491C504.626 46.1144 504.394 45.85 504.096 45.6559C503.801 45.4619 503.459 45.3648 503.071 45.3648C502.661 45.3648 502.299 45.4745 501.987 45.6939C501.675 45.9133 501.43 46.203 501.253 46.563C501.079 46.923 500.99 47.3167 500.987 47.7442V48.1408C500.987 48.6555 501.076 49.1055 501.253 49.4908C501.433 49.8733 501.687 50.17 502.016 50.3809C502.346 50.5919 502.735 50.6973 503.185 50.6973C503.492 50.6973 503.76 50.6495 503.991 50.5539C504.224 50.4583 504.42 50.3303 504.577 50.17C504.738 50.0069 504.859 49.8283 504.94 49.6342L505.653 49.8662C505.555 50.1391 505.393 50.3908 505.168 50.6214C504.946 50.852 504.667 51.0377 504.333 51.1783C504.001 51.3161 503.618 51.385 503.185 51.385ZM509.278 51.3977C508.887 51.3977 508.53 51.3217 508.206 51.1698C507.883 51.0152 507.626 50.793 507.434 50.5033C507.243 50.2108 507.148 49.8564 507.148 49.4402C507.148 49.1195 507.208 48.8495 507.329 48.6302C507.45 48.4108 507.621 48.2308 507.844 48.0902C508.066 47.9495 508.329 47.8384 508.633 47.7569C508.936 47.6753 509.271 47.612 509.637 47.567C509.999 47.522 510.306 47.4827 510.556 47.4489C510.809 47.4152 511.002 47.3617 511.134 47.2886C511.266 47.2155 511.333 47.0973 511.333 46.9342V46.7823C511.333 46.3408 511.2 45.9934 510.936 45.7403C510.674 45.4844 510.298 45.3564 509.805 45.3564C509.338 45.3564 508.957 45.4591 508.662 45.6644C508.37 45.8697 508.164 46.1116 508.046 46.39L507.333 46.1327C507.479 45.7783 507.682 45.4956 507.941 45.2847C508.199 45.0709 508.489 44.9177 508.81 44.8248C509.13 44.7292 509.455 44.6814 509.784 44.6814C510.032 44.6814 510.289 44.7137 510.556 44.7784C510.826 44.8431 511.077 44.9556 511.307 45.1159C511.538 45.2734 511.725 45.4942 511.868 45.7783C512.012 46.0595 512.083 46.4167 512.083 46.8498V51.25H511.333V50.2248H511.286C511.196 50.4161 511.063 50.6017 510.885 50.7817C510.708 50.9617 510.486 51.1094 510.219 51.2247C509.952 51.34 509.638 51.3977 509.278 51.3977ZM509.379 50.71C509.779 50.71 510.125 50.6214 510.417 50.4442C510.71 50.267 510.935 50.0322 511.092 49.7397C511.252 49.4444 511.333 49.1195 511.333 48.7652V47.8286C511.276 47.882 511.182 47.9298 511.05 47.972C510.92 48.0142 510.77 48.0522 510.598 48.0859C510.43 48.1169 510.261 48.1436 510.092 48.1661C509.923 48.1886 509.772 48.2083 509.637 48.2252C509.271 48.2702 508.959 48.3405 508.7 48.4361C508.441 48.5317 508.243 48.6639 508.105 48.8327C507.967 48.9986 507.898 49.2123 507.898 49.4739C507.898 49.8677 508.039 50.1728 508.32 50.3894C508.602 50.6031 508.955 50.71 509.379 50.71ZM514.081 51.25V44.77H514.811V45.7656H514.866C514.995 45.4394 515.22 45.1764 515.541 44.9767C515.864 44.7742 516.23 44.673 516.638 44.673C516.699 44.673 516.768 44.6744 516.844 44.6772C516.92 44.68 516.984 44.6828 517.034 44.6856V45.4492C517 45.4436 516.941 45.4352 516.857 45.4239C516.773 45.4127 516.681 45.407 516.583 45.407C516.245 45.407 515.944 45.4787 515.68 45.6222C515.418 45.7628 515.212 45.9583 515.06 46.2086C514.908 46.4589 514.832 46.7444 514.832 47.065V51.25H514.081ZM521.657 53.68V44.77H522.387V46.0061H522.475C522.565 45.812 522.689 45.6137 522.847 45.4112C523.004 45.2059 523.212 45.033 523.471 44.8923C523.732 44.7517 524.062 44.6814 524.458 44.6814C524.992 44.6814 525.459 44.822 525.859 45.1033C526.261 45.3817 526.573 45.7727 526.795 46.2761C527.02 46.7767 527.133 47.3603 527.133 48.0269C527.133 48.6962 527.02 49.2827 526.795 49.7861C526.573 50.2895 526.261 50.6819 525.859 50.9631C525.459 51.2444 524.995 51.385 524.467 51.385C524.076 51.385 523.748 51.3147 523.484 51.1741C523.222 51.0334 523.01 50.8605 522.847 50.6552C522.686 50.447 522.562 50.2445 522.475 50.0477H522.408V53.68H521.657ZM522.399 48.0142C522.399 48.5373 522.477 49.0014 522.631 49.4064C522.789 49.8086 523.014 50.125 523.306 50.3556C523.602 50.5834 523.959 50.6973 524.378 50.6973C524.808 50.6973 525.171 50.5792 525.466 50.343C525.765 50.1039 525.991 49.7819 526.146 49.3769C526.303 48.9719 526.382 48.5177 526.382 48.0142C526.382 47.5164 526.305 47.0678 526.15 46.6684C525.998 46.2691 525.773 45.9527 525.475 45.7192C525.177 45.483 524.811 45.3648 524.378 45.3648C523.956 45.3648 523.597 45.4787 523.302 45.7066C523.007 45.9316 522.782 46.2437 522.627 46.6431C522.475 47.0397 522.399 47.4967 522.399 48.0142ZM529.531 42.61V51.25H528.78V42.61H529.531ZM533.328 51.3977C532.937 51.3977 532.58 51.3217 532.256 51.1698C531.933 51.0152 531.676 50.793 531.484 50.5033C531.293 50.2108 531.198 49.8564 531.198 49.4402C531.198 49.1195 531.258 48.8495 531.379 48.6302C531.5 48.4108 531.671 48.2308 531.894 48.0902C532.116 47.9495 532.379 47.8384 532.683 47.7569C532.986 47.6753 533.321 47.612 533.687 47.567C534.049 47.522 534.356 47.4827 534.606 47.4489C534.859 47.4152 535.052 47.3617 535.184 47.2886C535.316 47.2155 535.383 47.0973 535.383 46.9342V46.7823C535.383 46.3408 535.25 45.9934 534.986 45.7403C534.724 45.4844 534.348 45.3564 533.855 45.3564C533.389 45.3564 533.007 45.4591 532.712 45.6644C532.42 45.8697 532.214 46.1116 532.096 46.39L531.383 46.1327C531.529 45.7783 531.732 45.4956 531.991 45.2847C532.249 45.0709 532.539 44.9177 532.86 44.8248C533.18 44.7292 533.505 44.6814 533.834 44.6814C534.082 44.6814 534.339 44.7137 534.606 44.7784C534.876 44.8431 535.127 44.9556 535.357 45.1159C535.588 45.2734 535.775 45.4942 535.918 45.7783C536.062 46.0595 536.134 46.4167 536.134 46.8498V51.25H535.383V50.2248H535.336C535.246 50.4161 535.113 50.6017 534.935 50.7817C534.758 50.9617 534.536 51.1094 534.269 51.2247C534.002 51.34 533.688 51.3977 533.328 51.3977ZM533.429 50.71C533.829 50.71 534.175 50.6214 534.467 50.4442C534.76 50.267 534.985 50.0322 535.142 49.7397C535.302 49.4444 535.383 49.1195 535.383 48.7652V47.8286C535.326 47.882 535.232 47.9298 535.1 47.972C534.971 48.0142 534.82 48.0522 534.649 48.0859C534.48 48.1169 534.311 48.1436 534.142 48.1661C533.974 48.1886 533.822 48.2083 533.687 48.2252C533.321 48.2702 533.009 48.3405 532.75 48.4361C532.491 48.5317 532.293 48.6639 532.155 48.8327C532.017 48.9986 531.949 49.2123 531.949 49.4739C531.949 49.8677 532.089 50.1728 532.37 50.3894C532.652 50.6031 533.005 50.71 533.429 50.71ZM540.662 51.385C540.083 51.385 539.578 51.2402 539.148 50.9505C538.72 50.6608 538.388 50.2642 538.152 49.7608C537.916 49.2573 537.798 48.6836 537.798 48.0395C537.798 47.3898 537.917 46.8119 538.156 46.3056C538.398 45.7994 538.733 45.4028 539.16 45.1159C539.588 44.8262 540.084 44.6814 540.65 44.6814C541.083 44.6814 541.475 44.7658 541.827 44.9345C542.178 45.1005 542.468 45.3353 542.696 45.6391C542.926 45.94 543.071 46.2916 543.13 46.6937H542.371C542.292 46.3281 542.102 46.0159 541.801 45.7572C541.503 45.4956 541.124 45.3648 540.662 45.3648C540.249 45.3648 539.883 45.4773 539.565 45.7023C539.248 45.9245 538.999 46.2353 538.819 46.6347C538.642 47.0312 538.553 47.4911 538.553 48.0142C538.553 48.5402 538.64 49.0056 538.815 49.4106C538.989 49.8128 539.234 50.1278 539.549 50.3556C539.866 50.5834 540.238 50.6973 540.662 50.6973C540.949 50.6973 541.211 50.6439 541.447 50.537C541.686 50.4273 541.886 50.2727 542.046 50.073C542.209 49.8733 542.319 49.6356 542.375 49.36H543.135C543.078 49.7509 542.939 50.0997 542.717 50.4062C542.497 50.71 542.212 50.9491 541.86 51.1234C541.512 51.2978 541.112 51.385 540.662 51.385ZM547.364 51.385C546.759 51.385 546.236 51.2444 545.794 50.9631C545.353 50.6791 545.011 50.2867 544.769 49.7861C544.53 49.2827 544.411 48.7033 544.411 48.048C544.411 47.3955 544.53 46.8161 544.769 46.3098C545.011 45.8008 545.344 45.4028 545.769 45.1159C546.197 44.8262 546.69 44.6814 547.25 44.6814C547.601 44.6814 547.94 44.7461 548.267 44.8755C548.593 45.002 548.885 45.1975 549.144 45.4619C549.406 45.7234 549.612 46.0539 549.764 46.4533C549.916 46.8498 549.992 47.3195 549.992 47.8623V48.2336H544.93V47.5712H549.224C549.224 47.155 549.14 46.7809 548.971 46.4491C548.805 46.1144 548.573 45.85 548.275 45.6559C547.98 45.4619 547.638 45.3648 547.25 45.3648C546.839 45.3648 546.478 45.4745 546.166 45.6939C545.854 45.9133 545.609 46.203 545.432 46.563C545.257 46.923 545.169 47.3167 545.166 47.7442V48.1408C545.166 48.6555 545.254 49.1055 545.432 49.4908C545.612 49.8733 545.866 50.17 546.195 50.3809C546.524 50.5919 546.914 50.6973 547.364 50.6973C547.67 50.6973 547.939 50.6495 548.17 50.5539C548.403 50.4583 548.599 50.3303 548.756 50.17C548.916 50.0069 549.037 49.8283 549.119 49.6342L549.832 49.8662C549.733 50.1391 549.572 50.3908 549.347 50.6214C549.124 50.852 548.846 51.0377 548.511 51.1783C548.179 51.3161 547.797 51.385 547.364 51.385ZM557.654 44.77V45.4239H554.469V44.77H557.654ZM555.465 51.25V43.8208C555.465 43.472 555.545 43.1781 555.705 42.9391C555.868 42.7 556.081 42.5186 556.342 42.3948C556.604 42.2711 556.881 42.2092 557.173 42.2092C557.37 42.2092 557.533 42.2261 557.663 42.2598C557.795 42.2908 557.899 42.3217 557.975 42.3527L557.756 43.0108C557.699 42.9939 557.631 42.9742 557.549 42.9517C557.467 42.9292 557.365 42.918 557.241 42.918C556.915 42.918 556.663 43.0094 556.486 43.1922C556.309 43.375 556.22 43.6366 556.22 43.9769L556.216 51.25H555.465ZM561.405 51.385C560.845 51.385 560.35 51.243 559.92 50.9589C559.492 50.6748 559.158 50.2825 558.916 49.7819C558.674 49.2784 558.553 48.6977 558.553 48.0395C558.553 47.3758 558.674 46.7922 558.916 46.2887C559.158 45.7825 559.492 45.3887 559.92 45.1075C560.35 44.8234 560.845 44.6814 561.405 44.6814C561.965 44.6814 562.458 44.8234 562.886 45.1075C563.313 45.3916 563.648 45.7853 563.89 46.2887C564.134 46.7922 564.257 47.3758 564.257 48.0395C564.257 48.6977 564.136 49.2784 563.894 49.7819C563.652 50.2825 563.316 50.6748 562.886 50.9589C562.458 51.243 561.965 51.385 561.405 51.385ZM561.405 50.6973C561.855 50.6973 562.236 50.5764 562.548 50.3345C562.86 50.0927 563.097 49.7706 563.257 49.3684C563.42 48.9662 563.502 48.5233 563.502 48.0395C563.502 47.5558 563.42 47.1114 563.257 46.7064C563.097 46.3014 562.86 45.9766 562.548 45.7319C562.236 45.4872 561.855 45.3648 561.405 45.3648C560.958 45.3648 560.577 45.4872 560.262 45.7319C559.949 45.9766 559.712 46.3014 559.549 46.7064C559.388 47.1114 559.308 47.5558 559.308 48.0395C559.308 48.5233 559.388 48.9662 559.549 49.3684C559.712 49.7706 559.949 50.0927 560.262 50.3345C560.574 50.5764 560.955 50.6973 561.405 50.6973ZM565.905 51.25V44.77H566.635V45.7656H566.69C566.819 45.4394 567.044 45.1764 567.365 44.9767C567.688 44.7742 568.054 44.673 568.462 44.673C568.524 44.673 568.593 44.6744 568.669 44.6772C568.744 44.68 568.808 44.6828 568.858 44.6856V45.4492C568.825 45.4436 568.766 45.4352 568.681 45.4239C568.597 45.4127 568.505 45.407 568.407 45.407C568.069 45.407 567.769 45.4787 567.504 45.6222C567.243 45.7628 567.036 45.9583 566.884 46.2086C566.732 46.4589 566.656 46.7444 566.656 47.065V51.25H565.905ZM576.012 51.385C575.433 51.385 574.928 51.2402 574.498 50.9505C574.07 50.6608 573.738 50.2642 573.502 49.7608C573.266 49.2573 573.148 48.6836 573.148 48.0395C573.148 47.3898 573.267 46.8119 573.506 46.3056C573.748 45.7994 574.083 45.4028 574.51 45.1159C574.938 44.8262 575.434 44.6814 576 44.6814C576.433 44.6814 576.825 44.7658 577.177 44.9345C577.528 45.1005 577.818 45.3353 578.046 45.6391C578.276 45.94 578.421 46.2916 578.48 46.6937H577.721C577.642 46.3281 577.452 46.0159 577.151 45.7572C576.853 45.4956 576.474 45.3648 576.012 45.3648C575.599 45.3648 575.233 45.4773 574.915 45.7023C574.598 45.9245 574.349 46.2353 574.169 46.6347C573.992 47.0312 573.903 47.4911 573.903 48.0142C573.903 48.5402 573.99 49.0056 574.164 49.4106C574.339 49.8128 574.584 50.1278 574.899 50.3556C575.216 50.5834 575.588 50.6973 576.012 50.6973C576.299 50.6973 576.561 50.6439 576.797 50.537C577.036 50.4273 577.236 50.2727 577.396 50.073C577.559 49.8733 577.669 49.6356 577.725 49.36H578.484C578.428 49.7509 578.289 50.0997 578.067 50.4062C577.847 50.71 577.562 50.9491 577.21 51.1234C576.862 51.2978 576.462 51.385 576.012 51.385ZM581.904 51.3977C581.513 51.3977 581.156 51.3217 580.832 51.1698C580.509 51.0152 580.251 50.793 580.06 50.5033C579.869 50.2108 579.773 49.8564 579.773 49.4402C579.773 49.1195 579.834 48.8495 579.955 48.6302C580.076 48.4108 580.247 48.2308 580.469 48.0902C580.692 47.9495 580.955 47.8384 581.258 47.7569C581.562 47.6753 581.897 47.612 582.262 47.567C582.625 47.522 582.932 47.4827 583.182 47.4489C583.435 47.4152 583.628 47.3617 583.76 47.2886C583.892 47.2155 583.958 47.0973 583.958 46.9342V46.7823C583.958 46.3408 583.826 45.9934 583.562 45.7403C583.3 45.4844 582.923 45.3564 582.431 45.3564C581.964 45.3564 581.583 45.4591 581.288 45.6644C580.995 45.8697 580.79 46.1116 580.672 46.39L579.959 46.1327C580.105 45.7783 580.308 45.4956 580.566 45.2847C580.825 45.0709 581.115 44.9177 581.436 44.8248C581.756 44.7292 582.081 44.6814 582.41 44.6814C582.658 44.6814 582.915 44.7137 583.182 44.7784C583.452 44.8431 583.702 44.9556 583.933 45.1159C584.164 45.2734 584.351 45.4942 584.494 45.7783C584.638 46.0595 584.709 46.4167 584.709 46.8498V51.25H583.958V50.2248H583.912C583.822 50.4161 583.688 50.6017 583.511 50.7817C583.334 50.9617 583.112 51.1094 582.845 51.2247C582.577 51.34 582.264 51.3977 581.904 51.3977ZM582.005 50.71C582.404 50.71 582.75 50.6214 583.043 50.4442C583.335 50.267 583.56 50.0322 583.718 49.7397C583.878 49.4444 583.958 49.1195 583.958 48.7652V47.8286C583.902 47.882 583.808 47.9298 583.676 47.972C583.546 48.0142 583.396 48.0522 583.224 48.0859C583.056 48.1169 582.887 48.1436 582.718 48.1661C582.549 48.1886 582.397 48.2083 582.262 48.2252C581.897 48.2702 581.585 48.3405 581.326 48.4361C581.067 48.5317 580.869 48.6639 580.731 48.8327C580.593 48.9986 580.524 49.2123 580.524 49.4739C580.524 49.8677 580.665 50.1728 580.946 50.3894C581.227 50.6031 581.58 50.71 582.005 50.71ZM586.707 51.25V44.77H587.437V45.7656H587.492C587.621 45.4394 587.846 45.1764 588.167 44.9767C588.49 44.7742 588.856 44.673 589.263 44.673C589.325 44.673 589.394 44.6744 589.47 44.6772C589.546 44.68 589.609 44.6828 589.66 44.6856V45.4492C589.626 45.4436 589.567 45.4352 589.483 45.4239C589.398 45.4127 589.307 45.407 589.209 45.407C588.871 45.407 588.57 45.4787 588.306 45.6222C588.044 45.7628 587.837 45.9583 587.686 46.2086C587.534 46.4589 587.458 46.7444 587.458 47.065V51.25H586.707ZM594.283 51.25V44.77H595.012V45.7656H595.067C595.197 45.4394 595.422 45.1764 595.742 44.9767C596.066 44.7742 596.431 44.673 596.839 44.673C596.901 44.673 596.97 44.6744 597.046 44.6772C597.122 44.68 597.185 44.6828 597.236 44.6856V45.4492C597.202 45.4436 597.143 45.4352 597.059 45.4239C596.974 45.4127 596.883 45.407 596.784 45.407C596.447 45.407 596.146 45.4787 595.882 45.6222C595.62 45.7628 595.413 45.9583 595.261 46.2086C595.11 46.4589 595.034 46.7444 595.034 47.065V51.25H594.283ZM600.94 51.385C600.335 51.385 599.812 51.2444 599.37 50.9631C598.929 50.6791 598.587 50.2867 598.345 49.7861C598.106 49.2827 597.987 48.7033 597.987 48.048C597.987 47.3955 598.106 46.8161 598.345 46.3098C598.587 45.8008 598.92 45.4028 599.345 45.1159C599.773 44.8262 600.266 44.6814 600.826 44.6814C601.177 44.6814 601.516 44.7461 601.843 44.8755C602.169 45.002 602.461 45.1975 602.72 45.4619C602.982 45.7234 603.188 46.0539 603.34 46.4533C603.492 46.8498 603.568 47.3195 603.568 47.8623V48.2336H598.506V47.5712H602.8C602.8 47.155 602.716 46.7809 602.547 46.4491C602.381 46.1144 602.149 45.85 601.851 45.6559C601.556 45.4619 601.214 45.3648 600.826 45.3648C600.415 45.3648 600.054 45.4745 599.742 45.6939C599.43 45.9133 599.185 46.203 599.008 46.563C598.833 46.923 598.745 47.3167 598.742 47.7442V48.1408C598.742 48.6555 598.83 49.1055 599.008 49.4908C599.188 49.8733 599.442 50.17 599.771 50.3809C600.1 50.5919 600.49 50.6973 600.94 50.6973C601.246 50.6973 601.515 50.6495 601.746 50.5539C601.979 50.4583 602.175 50.3303 602.332 50.17C602.492 50.0069 602.613 49.8283 602.695 49.6342L603.408 49.8662C603.309 50.1391 603.148 50.3908 602.923 50.6214C602.7 50.852 602.422 51.0377 602.087 51.1783C601.755 51.3161 601.373 51.385 600.94 51.385ZM607.775 44.77V45.4239H604.683V44.77H607.775ZM605.649 43.2175H606.404V49.5583C606.404 49.8283 606.451 50.0406 606.543 50.1953C606.636 50.3472 606.757 50.4555 606.906 50.5202C607.055 50.582 607.214 50.613 607.383 50.613C607.481 50.613 607.566 50.6073 607.636 50.5961C607.706 50.582 607.768 50.568 607.822 50.5539L607.982 51.2331C607.909 51.2613 607.819 51.2866 607.712 51.3091C607.605 51.3344 607.473 51.347 607.315 51.347C607.04 51.347 606.774 51.2866 606.518 51.1656C606.265 51.0447 606.057 50.8647 605.894 50.6256C605.731 50.3866 605.649 50.0898 605.649 49.7355V43.2175ZM613.598 48.7736V44.77H614.349V51.25H613.598V50.1742H613.539C613.387 50.5061 613.147 50.7831 612.818 51.0053C612.489 51.2247 612.086 51.3344 611.611 51.3344C611.198 51.3344 610.831 51.2444 610.51 51.0644C610.189 50.8816 609.938 50.6144 609.755 50.2628C609.572 49.9112 609.481 49.4795 609.481 48.9677V44.77H610.232V48.9212C610.232 49.4275 610.381 49.8353 610.679 50.1447C610.977 50.4512 611.359 50.6045 611.826 50.6045C612.119 50.6045 612.4 50.5342 612.67 50.3936C612.94 50.253 613.162 50.0477 613.337 49.7777C613.511 49.5048 613.598 49.1702 613.598 48.7736ZM616.337 51.25V44.77H617.067V45.7656H617.122C617.251 45.4394 617.476 45.1764 617.797 44.9767C618.12 44.7742 618.486 44.673 618.894 44.673C618.956 44.673 619.025 44.6744 619.1 44.6772C619.176 44.68 619.24 44.6828 619.29 44.6856V45.4492C619.257 45.4436 619.198 45.4352 619.113 45.4239C619.029 45.4127 618.937 45.407 618.839 45.407C618.501 45.407 618.2 45.4787 617.936 45.6222C617.675 45.7628 617.468 45.9583 617.316 46.2086C617.164 46.4589 617.088 46.7444 617.088 47.065V51.25H616.337ZM621.323 47.2V51.25H620.572V44.77H621.302V45.7867H621.369C621.521 45.4548 621.757 45.1891 622.078 44.9894C622.401 44.7869 622.801 44.6856 623.276 44.6856C623.712 44.6856 624.094 44.777 624.424 44.9598C624.755 45.1398 625.013 45.4056 625.196 45.7572C625.381 46.1087 625.474 46.5405 625.474 47.0523V51.25H624.723V47.0987C624.723 46.5672 624.574 46.1467 624.276 45.8373C623.981 45.528 623.584 45.3733 623.086 45.3733C622.746 45.3733 622.444 45.4464 622.179 45.5927C621.915 45.7389 621.705 45.9498 621.551 46.2255C621.399 46.4983 621.323 46.8231 621.323 47.2Z" fill="#322D4C"/>
<path d="M418.136 147.606L423.852 141.89L418.136 136.174L412.42 141.89L418.136 147.606ZM418.136 82.4902L418.136 81.5002L417.146 81.5002L417.146 82.4902L418.136 82.4902ZM545.837 83.4802C546.384 83.4802 546.827 83.037 546.827 82.4902C546.827 81.9435 546.384 81.5002 545.837 81.5002L545.837 83.4802ZM419.126 141.89L419.126 139.769L417.146 139.769L417.146 141.89L419.126 141.89ZM419.126 135.526L419.126 131.283L417.146 131.283L417.146 135.526L419.126 135.526ZM419.126 127.04L419.126 122.797L417.146 122.797L417.146 127.04L419.126 127.04ZM419.126 118.555L419.126 114.312L417.146 114.312L417.146 118.555L419.126 118.555ZM419.126 110.069L419.126 105.826L417.146 105.826L417.146 110.069L419.126 110.069ZM419.126 101.583L419.126 97.3402L417.146 97.3402L417.146 101.583L419.126 101.583ZM419.126 93.0974L419.126 88.8545L417.146 88.8545L417.146 93.0974L419.126 93.0974ZM419.126 84.6117L419.126 82.4902L417.146 82.4902L417.146 84.6117L419.126 84.6117ZM418.136 82.4902C418.136 83.4802 418.136 83.4802 418.136 83.4802C418.136 83.4802 418.136 83.4802 418.136 83.4802C418.136 83.4802 418.135 83.4802 418.136 83.4802C418.137 83.4802 418.135 83.4802 418.136 83.4802C418.136 83.4802 418.136 83.4802 418.136 83.4802C418.136 83.4802 418.136 83.4802 418.136 83.4802C418.136 83.4802 418.137 83.4802 418.138 83.4802C418.139 83.4802 418.141 83.4802 418.144 83.4802C418.149 83.4802 418.157 83.4802 418.167 83.4802C418.188 83.4802 418.22 83.4802 418.262 83.4802C418.345 83.4802 418.47 83.4802 418.635 83.4802C418.965 83.4802 419.455 83.4802 420.097 83.4802L420.097 81.5002C419.455 81.5002 418.965 81.5002 418.635 81.5002C418.47 81.5002 418.345 81.5002 418.262 81.5002C418.22 81.5002 418.188 81.5002 418.167 81.5002C418.157 81.5002 418.149 81.5002 418.144 81.5002C418.141 81.5002 418.139 81.5002 418.138 81.5002C418.137 81.5002 418.136 81.5002 418.136 81.5002C418.134 81.5002 418.138 81.5002 418.136 81.5002C418.135 81.5002 418.136 81.5002 418.136 81.5002C418.136 81.5002 418.136 81.5002 418.136 81.5002C418.136 81.5002 418.136 81.5002 418.136 82.4902ZM424.097 83.4802C425.267 83.4802 426.598 83.4802 428.077 83.4802L428.077 81.5002C426.598 81.5002 425.267 81.5002 424.097 81.5002L424.097 83.4802ZM432.098 83.4802C433.348 83.4802 434.672 83.4802 436.066 83.4802L436.066 81.5002C434.672 81.5002 433.348 81.5002 432.098 81.5002L432.098 83.4802ZM440.055 83.4802C441.339 83.4802 442.671 83.4802 444.048 83.4802L444.048 81.5002C442.671 81.5002 441.339 81.5002 440.055 81.5002L440.055 83.4802ZM448.04 83.4802C449.338 83.4802 450.669 83.4802 452.032 83.4802L452.032 81.5002C450.669 81.5002 449.338 81.5002 448.04 81.5002L448.04 83.4802ZM456.023 83.4802C457.33 83.4802 458.661 83.4802 460.017 83.4802L460.017 81.5002C458.661 81.5002 457.33 81.5002 456.023 81.5002L456.023 83.4802ZM464.013 83.4802C465.327 83.4802 466.661 83.4802 468.014 83.4802L468.014 81.5002C466.661 81.5002 465.327 81.5002 464.013 81.5002L464.013 83.4802ZM472.002 83.4802C473.315 83.4802 474.642 83.4802 475.985 83.4802L475.985 81.5002C474.642 81.5002 473.315 81.5002 472.002 81.5002L472.002 83.4802ZM479.975 83.4802C481.295 83.4802 482.627 83.4802 483.972 83.4802L483.972 81.5002C482.627 81.5002 481.295 81.5002 479.975 81.5002L479.975 83.4802ZM487.97 83.4802C489.288 83.4802 490.615 83.4802 491.952 83.4802L491.952 81.5002C490.615 81.5002 489.288 81.5002 487.97 81.5002L487.97 83.4802ZM495.942 83.4802C497.267 83.4802 498.6 83.4802 499.94 83.4802L499.94 81.5002C498.6 81.5002 497.267 81.5002 495.942 81.5002L495.942 83.4802ZM503.93 83.4802C505.253 83.4802 506.582 83.4802 507.917 83.4802L507.917 81.5002C506.582 81.5002 505.253 81.5002 503.93 81.5002L503.93 83.4802ZM511.911 83.4802C513.238 83.4802 514.569 83.4802 515.905 83.4802L515.905 81.5002C514.569 81.5002 513.238 81.5002 511.911 81.5002L511.911 83.4802ZM519.892 83.4802C521.22 83.4802 522.551 83.4802 523.885 83.4802L523.885 81.5002C522.551 81.5002 521.22 81.5002 519.892 81.5002L519.892 83.4802ZM527.879 83.4802C529.206 83.4802 530.536 83.4802 531.867 83.4802L531.867 81.5002C530.536 81.5002 529.206 81.5002 527.879 81.5002L527.879 83.4802ZM535.859 83.4802C537.189 83.4802 538.52 83.4802 539.851 83.4802L539.851 81.5002C538.52 81.5002 537.189 81.5002 535.859 81.5002L535.859 83.4802ZM543.842 83.4802C544.507 83.4802 545.172 83.4802 545.837 83.4802L545.837 81.5002C545.172 81.5002 544.507 81.5002 543.842 81.5002L543.842 83.4802Z" fill="#322D4C"/>
<path d="M414.437 328.807L408.721 334.523L414.437 340.239L420.152 334.523L414.437 328.807ZM413.447 334.523L413.447 336.369L415.427 336.369L415.427 334.523L413.447 334.523ZM413.447 340.061L413.447 343.754L415.427 343.754L415.427 340.061L413.447 340.061ZM413.447 347.446L413.447 351.138L415.427 351.138L415.427 347.446L413.447 347.446ZM413.447 354.83L413.447 358.523L415.427 358.523L415.427 354.83L413.447 354.83ZM413.447 362.215L413.447 365.907L415.427 365.907L415.427 362.215L413.447 362.215ZM413.447 369.599L413.447 373.292L415.427 373.292L415.427 369.599L413.447 369.599ZM413.447 376.984L413.447 378.83L415.427 378.83L415.427 376.984L413.447 376.984Z" fill="#322D4C"/>
<path d="M619.773 226.268C619.773 226.815 619.329 227.258 618.783 227.258C618.236 227.258 617.793 226.815 617.793 226.268L619.773 226.268ZM618.783 84.1514L618.783 83.1614L619.773 83.1614L619.773 84.1514L618.783 84.1514ZM552.997 84.1514L558.712 78.4356L564.428 84.1514L558.712 89.8671L552.997 84.1514ZM617.793 226.268L617.793 224.294L619.773 224.294L619.773 226.268L617.793 226.268ZM617.793 220.347L617.793 216.399L619.773 216.399L619.773 220.347L617.793 220.347ZM617.793 212.451L617.793 208.503L619.773 208.503L619.773 212.451L617.793 212.451ZM617.793 204.556L617.793 200.608L619.773 200.608L619.773 204.556L617.793 204.556ZM617.793 196.66L617.793 192.713L619.773 192.713L619.773 196.66L617.793 196.66ZM617.793 188.765L617.793 184.817L619.773 184.817L619.773 188.765L617.793 188.765ZM617.793 180.87L617.793 176.922L619.773 176.922L619.773 180.87L617.793 180.87ZM617.793 172.974L617.793 169.027L619.773 169.027L619.773 172.974L617.793 172.974ZM617.793 165.079L617.793 161.131L619.773 161.131L619.773 165.079L617.793 165.079ZM617.793 157.184L617.793 153.236L619.773 153.236L619.773 157.184L617.793 157.184ZM617.793 149.288L617.793 145.34L619.773 145.34L619.773 149.288L617.793 149.288ZM617.793 141.393L617.793 137.445L619.773 137.445L619.773 141.393L617.793 141.393ZM617.793 133.497L617.793 129.55L619.773 129.55L619.773 133.497L617.793 133.497ZM617.793 125.602L617.793 121.654L619.773 121.654L619.773 125.602L617.793 125.602ZM617.793 117.707L617.793 113.759L619.773 113.759L619.773 117.707L617.793 117.707ZM617.793 109.811L617.793 105.864L619.773 105.864L619.773 109.811L617.793 109.811ZM617.793 101.916L617.793 97.9683L619.773 97.9683L619.773 101.916L617.793 101.916ZM617.793 94.0206L617.793 90.0729L619.773 90.0729L619.773 94.0206L617.793 94.0206ZM617.793 86.1252L617.793 84.1514L619.773 84.1514L619.773 86.1252L617.793 86.1252ZM618.783 84.1514C618.783 85.1414 618.783 85.1414 618.783 85.1414C618.783 85.1414 618.783 85.1414 618.783 85.1414C618.783 85.1414 618.783 85.1414 618.783 85.1414C618.783 85.1414 618.783 85.1414 618.783 85.1414C618.783 85.1414 618.782 85.1414 618.782 85.1414C618.782 85.1414 618.781 85.1414 618.781 85.1414C618.78 85.1414 618.778 85.1414 618.775 85.1414C618.77 85.1414 618.762 85.1414 618.752 85.1414C618.732 85.1414 618.702 85.1414 618.662 85.1414C618.582 85.1414 618.462 85.1414 618.305 85.1414C617.991 85.1414 617.526 85.1414 616.922 85.1414L616.922 83.1614C617.526 83.1614 617.991 83.1614 618.305 83.1614C618.462 83.1614 618.582 83.1614 618.662 83.1614C618.702 83.1614 618.732 83.1614 618.752 83.1614C618.762 83.1614 618.77 83.1614 618.775 83.1614C618.778 83.1614 618.78 83.1614 618.781 83.1614C618.781 83.1614 618.782 83.1614 618.782 83.1614C618.782 83.1614 618.783 83.1614 618.783 83.1614C618.783 83.1614 618.783 83.1614 618.783 83.1614C618.783 83.1614 618.783 83.1614 618.783 83.1614C618.783 83.1614 618.783 83.1614 618.783 83.1614C618.783 83.1614 618.783 83.1614 618.783 84.1514ZM613.165 85.1414C612.052 85.1414 610.792 85.1414 609.401 85.1414L609.401 83.1614C610.792 83.1614 612.052 83.1614 613.165 83.1614L613.165 85.1414ZM605.647 85.1414C604.457 85.1414 603.202 85.1414 601.89 85.1414L601.89 83.1614C603.202 83.1614 604.457 83.1614 605.647 83.1614L605.647 85.1414ZM598.14 85.1414C596.926 85.1414 595.674 85.1414 594.388 85.1414L594.388 83.1614C595.674 83.1614 596.926 83.1614 598.14 83.1614L598.14 85.1414ZM590.627 85.1414C589.4 85.1414 588.149 85.1414 586.877 85.1414L586.877 83.1614C588.149 83.1614 589.4 83.1614 590.627 83.1614L590.627 85.1414ZM583.117 85.1414C581.882 85.1414 580.631 85.1414 579.367 85.1414L579.367 83.1614C580.631 83.1614 581.882 83.1614 583.117 83.1614L583.117 85.1414ZM575.609 85.1414C574.367 85.1414 573.115 85.1414 571.855 85.1414L571.855 83.1614C573.115 83.1614 574.367 83.1614 575.609 83.1614L575.609 85.1414ZM568.1 85.1414C566.852 85.1414 565.599 85.1414 564.344 85.1414L564.344 83.1614C565.599 83.1614 566.852 83.1614 568.1 83.1614L568.1 85.1414ZM560.59 85.1414C559.964 85.1414 559.338 85.1414 558.712 85.1414L558.712 83.1614C559.338 83.1614 559.964 83.1614 560.59 83.1614L560.59 85.1414Z" fill="#322D4C"/>
<g clip-path="url(#clip0_384_1430)">
<path d="M649.89 245.251V248.714C649.89 249.991 648.62 251.023 647.048 251.023H644.09C643.414 254.298 639.906 256.795 635.677 256.795C631.449 256.795 627.94 254.298 627.265 251.023H615.663C614.988 254.298 611.48 256.795 607.251 256.795C603.023 256.795 599.517 254.298 598.841 251.023H595.881C594.311 251.023 593.038 249.991 593.038 248.714V240.633C593.038 238.678 594.531 237.012 596.641 236.333L600.34 228.826C601.635 226.197 604.773 224.472 608.255 224.472H624.413C627.007 224.472 629.379 225.429 631.076 227.072L639.959 236.088C645.555 236.6 649.89 240.547 649.89 245.186V245.251ZM608.255 229.09C607.091 229.09 606.052 229.602 605.617 230.54L602.925 236.016H612.936V229.09H608.255ZM617.2 236.016H632.604L626.634 229.955C626.101 229.407 625.204 229.09 624.413 229.09H617.2V236.016ZM639.701 251.023C639.852 250.597 639.941 250.272 639.941 249.868C639.941 247.957 638.031 246.405 635.677 246.405C633.323 246.405 631.413 247.957 631.413 249.868C631.413 250.272 631.422 250.597 631.653 251.023C632.239 252.365 633.821 253.332 635.677 253.332C637.534 253.332 639.115 252.365 639.701 251.023ZM611.275 251.023C611.426 250.597 611.515 250.272 611.515 249.868C611.515 247.957 609.605 246.405 607.251 246.405C604.897 246.405 602.987 247.957 602.987 249.868C602.987 250.272 602.996 250.597 603.227 251.023C603.813 252.365 605.395 253.332 607.251 253.332C609.108 253.332 610.689 252.365 611.275 251.023Z" fill="#E1A924"/>
</g>
<path d="M504.006 87.2943V91.7676C504.006 93.4171 505.612 94.7497 507.6 94.7497H511.339C512.193 98.9806 516.628 102.205 521.974 102.205C527.319 102.205 531.755 98.9806 532.608 94.7497H547.274C548.128 98.9806 552.563 102.205 557.909 102.205C563.254 102.205 567.685 98.9806 568.54 94.7497H572.282C574.267 94.7497 575.876 93.4171 575.876 91.7676V81.3301C575.876 78.8046 573.988 76.6518 571.321 75.7758L566.645 66.0792C565.008 62.6824 561.042 60.4551 556.64 60.4551H536.213C532.934 60.4551 529.935 61.6908 527.791 63.8128L516.561 75.459C509.486 76.1206 504.006 81.2182 504.006 87.2105V87.2943ZM556.64 66.4194C558.111 66.4194 559.425 67.081 559.975 68.2925L563.377 75.3658H550.722V66.4194H556.64ZM545.331 75.3658H525.859L533.405 67.5377C534.079 66.8294 535.213 66.4194 536.213 66.4194H545.331V75.3658ZM516.887 94.7497C516.696 94.1999 516.583 93.7805 516.583 93.2586C516.583 90.789 518.998 88.7854 521.974 88.7854C524.95 88.7854 527.364 90.789 527.364 93.2586C527.364 93.7805 527.353 94.1999 527.061 94.7497C526.32 96.4831 524.321 97.7318 521.974 97.7318C519.627 97.7318 517.628 96.4831 516.887 94.7497ZM552.822 94.7497C552.631 94.1999 552.518 93.7805 552.518 93.2586C552.518 90.789 554.933 88.7854 557.909 88.7854C560.884 88.7854 563.299 90.789 563.299 93.2586C563.299 93.7805 563.288 94.1999 562.996 94.7497C562.254 96.4831 560.256 97.7318 557.909 97.7318C555.562 97.7318 553.563 96.4831 552.822 94.7497Z" fill="#E1A924"/>
<g clip-path="url(#clip1_384_1430)">
<path d="M401.346 389.39C400.244 389.39 399.186 389.863 398.407 390.705C397.627 391.546 397.189 392.688 397.189 393.879V420.814C397.189 422.005 397.627 423.147 398.407 423.989C399.186 424.831 400.244 425.304 401.346 425.304H426.286C427.388 425.304 428.446 424.831 429.225 423.989C430.005 423.147 430.443 422.005 430.443 420.814V393.879C430.443 392.688 430.005 391.546 429.225 390.705C428.446 389.863 427.388 389.39 426.286 389.39H401.346ZM422.192 400.545C422.48 400.857 422.644 401.278 422.649 401.719C422.653 402.159 422.497 402.584 422.215 402.902L413.918 414.103C413.775 414.269 413.603 414.402 413.412 414.494C413.221 414.587 413.014 414.637 412.804 414.641C412.595 414.645 412.387 414.603 412.192 414.519C411.998 414.434 411.821 414.308 411.673 414.148L406.176 408.209C406.023 408.054 405.9 407.869 405.815 407.662C405.73 407.456 405.684 407.233 405.68 407.007C405.677 406.781 405.715 406.556 405.793 406.346C405.872 406.137 405.989 405.946 406.137 405.787C406.285 405.627 406.461 405.501 406.655 405.416C406.849 405.331 407.057 405.29 407.266 405.294C407.476 405.298 407.682 405.347 407.873 405.439C408.064 405.531 408.236 405.664 408.379 405.829L412.731 410.527L419.949 400.595C420.091 400.429 420.263 400.295 420.455 400.202C420.646 400.11 420.852 400.059 421.062 400.055C421.271 400.05 421.48 400.091 421.674 400.176C421.869 400.26 422.045 400.386 422.194 400.545H422.192Z" fill="#E1A924"/>
</g>
<path d="M293.224 241.146L334.522 241.147C334.522 241.147 339.877 241.147 383.329 241.147" stroke="#322D4C" stroke-width="1.98" stroke-linecap="round" stroke-dasharray="3.96 3.96"/>
<path d="M445.008 241.66L470.782 241.607C470.782 241.607 474.124 241.601 501.243 241.545" stroke="#322D4C" stroke-width="1.98" stroke-linecap="round" stroke-dasharray="3.96 3.96"/>
<path d="M533.675 240.89L560.883 240.772C560.883 240.772 564.411 240.757 593.038 240.633" stroke="#322D4C" stroke-width="1.98" stroke-linecap="round" stroke-dasharray="3.96 3.96"/>
<path d="M338.812 240.89L359.215 213.024C359.215 213.024 361.861 209.411 383.328 180.092" stroke="#322D4C" stroke-width="1.98" stroke-linecap="round" stroke-dasharray="3.96 3.96"/>
<path d="M338.812 240.89L359.215 268.755C359.215 268.755 361.861 272.368 383.328 301.687" stroke="#322D4C" stroke-width="1.98" stroke-linecap="round" stroke-dasharray="3.96 3.96"/>
<path d="M419.013 172.393C418.904 171.988 418.64 171.643 418.279 171.434C417.919 171.224 417.491 171.167 417.088 171.274L411.542 172.772L404.298 165.99L402.292 166.533L406.631 174.089L401.427 175.488L399.372 173.875L397.854 174.286L400.563 179.027L417.888 174.352C418.736 174.105 419.225 173.233 419.013 172.393ZM428.851 179.109L427.219 182.401H419.062L417.431 179.109L419.062 177.463H422.325V174.171H423.956V177.463H427.219L428.851 179.109ZM430.482 195.57V198.862H397.854V195.57H419.062V184.047H427.219V195.57H430.482Z" fill="#E1A924"/>
<path d="M401.117 237.744V227.209C401.117 226.773 401.289 226.354 401.595 226.045C401.901 225.737 402.316 225.563 402.749 225.563H410.905V222.271H417.431V225.563H425.588C426.02 225.563 426.435 225.737 426.741 226.045C427.047 226.354 427.219 226.773 427.219 227.209V237.744L428.991 238.281C429.392 238.402 429.732 238.676 429.939 239.043C430.146 239.411 430.205 239.845 430.103 240.256L427.63 250.244C426.296 250.313 424.965 250.05 423.756 249.477C422.546 248.905 421.494 248.041 420.694 246.962C419.935 247.985 418.95 248.815 417.817 249.386C416.684 249.958 415.435 250.255 414.168 250.254C412.902 250.255 411.652 249.958 410.52 249.386C409.387 248.815 408.402 247.985 407.643 246.962C406.842 248.041 405.791 248.905 404.581 249.477C403.371 250.05 402.04 250.313 400.706 250.244L398.233 240.256C398.131 239.845 398.19 239.411 398.397 239.043C398.605 238.676 398.944 238.402 399.346 238.281L401.117 237.744ZM404.38 236.756L414.168 233.793L418.661 235.153L421.612 236.047L423.956 236.756V228.855H404.38V236.756ZM401.117 253.546C403.526 253.549 405.85 252.654 407.643 251.031C409.435 252.654 411.76 253.549 414.168 253.546C416.577 253.549 418.901 252.654 420.694 251.031C422.486 252.654 424.811 253.549 427.219 253.546H430.482V256.838H427.219C424.928 256.842 422.677 256.234 420.694 255.077C418.711 256.234 416.459 256.842 414.168 256.838C411.877 256.842 409.626 256.234 407.643 255.077C405.66 256.234 403.408 256.842 401.117 256.838H397.854V253.546H401.117Z" fill="#E1A924"/>
<path d="M421.718 314.504L421.629 314.331L421.674 314.266L421.719 314.202C422.514 313.869 423.267 313.438 423.959 312.918C424.628 312.406 425.076 311.658 425.307 310.67L425.475 309.879V289.453C425.475 288.96 425.331 288.448 425.047 287.928C424.764 287.4 424.403 286.921 423.978 286.506C423.553 286.088 423.072 285.734 422.549 285.456C422.02 285.181 421.516 285.045 421.031 285.045H406.729C406.272 285.045 405.78 285.173 405.253 285.435C404.724 285.697 404.235 286.036 403.801 286.441C403.369 286.836 403.001 287.298 402.712 287.812C402.427 288.328 402.284 288.826 402.284 289.324V310.055C402.284 310.404 402.374 310.768 402.54 311.146C402.712 311.525 402.925 311.88 403.181 312.211C403.436 312.552 403.717 312.857 404.016 313.131C404.315 313.406 404.606 313.633 404.892 313.807C405.029 313.866 405.282 313.957 405.641 314.073C405.992 314.189 406.156 314.274 406.13 314.33L400.275 323.411H403.69L407.963 317.081H419.752L424.021 323.411H427.48L421.718 314.504ZM410.483 286.789C410.483 286.642 410.551 286.493 410.697 286.329C410.837 286.169 410.979 286.093 411.124 286.093H416.591C416.646 286.093 416.764 286.149 416.934 286.263C417.103 286.38 417.188 286.496 417.188 286.612V288.751C417.188 288.897 417.116 289.032 416.976 289.143C416.832 289.263 416.702 289.324 416.592 289.324H411.083L410.909 289.185C410.808 289.116 410.716 289.035 410.633 288.944C410.587 288.905 410.551 288.855 410.525 288.8C410.499 288.745 410.485 288.685 410.483 288.623V286.789ZM404.973 292.769C404.973 292.479 405.04 292.194 405.166 291.916C405.293 291.64 405.458 291.388 405.657 291.152C405.858 290.918 406.093 290.735 406.361 290.588C406.617 290.446 406.905 290.37 407.197 290.369H420.48C420.732 290.369 420.989 290.43 421.245 290.54C421.502 290.657 421.736 290.82 421.951 291.022C422.166 291.224 422.334 291.448 422.464 291.68C422.591 291.907 422.654 292.157 422.654 292.419V297.047C422.654 297.31 422.585 297.558 422.442 297.808C422.299 298.062 422.111 298.286 421.887 298.469C421.666 298.652 421.421 298.804 421.16 298.921C420.921 299.038 420.659 299.098 420.394 299.097H407.282L407.066 299.058C406.977 299.037 406.891 299.007 406.808 298.967C406.327 298.882 405.901 298.619 405.53 298.181C405.159 297.744 404.973 297.266 404.973 296.743V292.769ZM408.927 310.798C408.486 311.263 407.934 311.495 407.282 311.495C406.627 311.495 406.092 311.263 405.677 310.798C405.265 310.334 405.059 309.763 405.059 309.093C405.059 308.482 405.274 307.953 405.702 307.503C406.128 307.051 406.655 306.822 407.282 306.822C407.934 306.822 408.485 307.038 408.927 307.454C409.368 307.88 409.588 308.435 409.588 309.138C409.588 309.779 409.368 310.334 408.927 310.798ZM418.706 310.798C418.266 310.334 418.042 309.763 418.042 309.093C418.042 308.422 418.276 307.88 418.747 307.454C419.201 307.042 419.788 306.816 420.395 306.822C421.044 306.822 421.582 307.05 421.994 307.503C422.405 307.953 422.615 308.483 422.615 309.093C422.615 309.763 422.4 310.334 421.973 310.798C421.543 311.263 421.005 311.495 420.348 311.495C419.694 311.495 419.146 311.263 418.706 310.798Z" fill="#E1A924"/>
<path d="M219.727 220.21V211.57H222.516C223.129 211.57 223.641 211.681 224.051 211.903C224.465 212.123 224.776 212.428 224.984 212.819C225.195 213.207 225.3 213.653 225.3 214.156C225.3 214.659 225.195 215.104 224.984 215.489C224.776 215.874 224.466 216.175 224.056 216.392C223.645 216.609 223.136 216.717 222.528 216.717H220.153V215.995H222.507C222.957 215.995 223.331 215.921 223.63 215.772C223.93 215.623 224.154 215.41 224.3 215.135C224.449 214.859 224.524 214.533 224.524 214.156C224.524 213.779 224.449 213.45 224.3 213.169C224.151 212.885 223.926 212.665 223.625 212.511C223.327 212.356 222.95 212.279 222.495 212.279H220.516V220.21H219.727ZM223.537 216.312L225.663 220.21H224.752L222.647 216.312H223.537ZM229.616 220.345C229.011 220.345 228.488 220.204 228.047 219.923C227.605 219.639 227.263 219.247 227.021 218.746C226.782 218.243 226.663 217.663 226.663 217.008C226.663 216.355 226.782 215.776 227.021 215.27C227.263 214.761 227.597 214.363 228.021 214.076C228.449 213.786 228.942 213.641 229.502 213.641C229.854 213.641 230.193 213.706 230.519 213.835C230.845 213.962 231.138 214.157 231.396 214.422C231.658 214.683 231.865 215.014 232.016 215.413C232.168 215.81 232.244 216.279 232.244 216.822V217.194H227.182V216.531H231.476C231.476 216.115 231.392 215.741 231.223 215.409C231.057 215.074 230.825 214.81 230.527 214.616C230.232 214.422 229.89 214.325 229.502 214.325C229.091 214.325 228.73 214.434 228.418 214.654C228.106 214.873 227.861 215.163 227.684 215.523C227.509 215.883 227.421 216.277 227.418 216.704V217.101C227.418 217.615 227.507 218.065 227.684 218.451C227.864 218.833 228.118 219.13 228.447 219.341C228.776 219.552 229.166 219.657 229.616 219.657C229.923 219.657 230.191 219.609 230.422 219.514C230.655 219.418 230.851 219.29 231.008 219.13C231.168 218.967 231.289 218.788 231.371 218.594L232.084 218.826C231.985 219.099 231.824 219.351 231.599 219.581C231.377 219.812 231.098 219.998 230.763 220.138C230.432 220.276 230.049 220.345 229.616 220.345ZM234.65 216.16V220.21H233.899V213.73H234.629V214.747H234.696C234.848 214.415 235.085 214.149 235.405 213.949C235.729 213.747 236.128 213.646 236.603 213.646C237.039 213.646 237.422 213.737 237.751 213.92C238.083 214.1 238.34 214.366 238.523 214.717C238.708 215.069 238.801 215.5 238.801 216.012V220.21H238.05V216.059C238.05 215.527 237.901 215.107 237.603 214.797C237.308 214.488 236.911 214.333 236.413 214.333C236.073 214.333 235.771 214.406 235.506 214.553C235.242 214.699 235.032 214.91 234.878 215.185C234.726 215.458 234.65 215.783 234.65 216.16ZM243.331 213.73V214.384H240.239V213.73H243.331ZM241.205 212.177H241.96V218.518C241.96 218.788 242.006 219.001 242.099 219.155C242.192 219.307 242.313 219.415 242.462 219.48C242.611 219.542 242.77 219.573 242.939 219.573C243.037 219.573 243.122 219.567 243.192 219.556C243.262 219.542 243.324 219.528 243.378 219.514L243.538 220.193C243.465 220.221 243.375 220.247 243.268 220.269C243.161 220.294 243.029 220.307 242.871 220.307C242.596 220.307 242.33 220.247 242.074 220.126C241.821 220.005 241.613 219.825 241.45 219.586C241.286 219.347 241.205 219.05 241.205 218.695V212.177ZM217.296 226.73L214.929 233.21H214.127L211.761 226.73H212.575L214.499 232.219H214.558L216.481 226.73H217.296ZM218.773 233.21V226.73H219.528V233.21H218.773ZM219.157 225.616C219.002 225.616 218.87 225.564 218.761 225.46C218.651 225.353 218.596 225.225 218.596 225.076C218.596 224.927 218.651 224.801 218.761 224.697C218.87 224.59 219.002 224.536 219.157 224.536C219.312 224.536 219.444 224.59 219.554 224.697C219.663 224.801 219.718 224.927 219.718 225.076C219.718 225.225 219.663 225.353 219.554 225.46C219.444 225.564 219.312 225.616 219.157 225.616ZM223.324 233.358C222.933 233.358 222.576 233.282 222.253 233.13C221.929 232.975 221.672 232.753 221.481 232.463C221.289 232.171 221.194 231.816 221.194 231.4C221.194 231.079 221.254 230.809 221.375 230.59C221.496 230.371 221.668 230.191 221.89 230.05C222.112 229.909 222.375 229.798 222.679 229.717C222.983 229.635 223.317 229.572 223.683 229.527C224.046 229.482 224.352 229.443 224.603 229.409C224.856 229.375 225.048 229.322 225.18 229.249C225.313 229.175 225.379 229.057 225.379 228.894V228.742C225.379 228.301 225.247 227.953 224.982 227.7C224.721 227.444 224.344 227.316 223.852 227.316C223.385 227.316 223.004 227.419 222.708 227.624C222.416 227.83 222.21 228.072 222.092 228.35L221.379 228.093C221.526 227.738 221.728 227.456 221.987 227.245C222.246 227.031 222.535 226.878 222.856 226.785C223.177 226.689 223.501 226.641 223.83 226.641C224.078 226.641 224.335 226.674 224.603 226.738C224.873 226.803 225.123 226.916 225.353 227.076C225.584 227.233 225.771 227.454 225.915 227.738C226.058 228.019 226.13 228.377 226.13 228.81V233.21H225.379V232.185H225.332C225.242 232.376 225.109 232.562 224.932 232.742C224.754 232.922 224.532 233.069 224.265 233.185C223.998 233.3 223.684 233.358 223.324 233.358ZM223.425 232.67C223.825 232.67 224.171 232.581 224.463 232.404C224.756 232.227 224.981 231.992 225.138 231.7C225.299 231.404 225.379 231.079 225.379 230.725V229.789C225.323 229.842 225.228 229.89 225.096 229.932C224.967 229.974 224.816 230.012 224.645 230.046C224.476 230.077 224.307 230.104 224.138 230.126C223.97 230.149 223.818 230.168 223.683 230.185C223.317 230.23 223.005 230.3 222.746 230.396C222.488 230.492 222.289 230.624 222.151 230.793C222.014 230.959 221.945 231.172 221.945 231.434C221.945 231.828 222.085 232.133 222.367 232.349C222.648 232.563 223.001 232.67 223.425 232.67ZM233.278 233.358C232.887 233.358 232.53 233.282 232.207 233.13C231.883 232.975 231.626 232.753 231.435 232.463C231.244 232.171 231.148 231.816 231.148 231.4C231.148 231.079 231.208 230.809 231.329 230.59C231.45 230.371 231.622 230.191 231.844 230.05C232.066 229.909 232.329 229.798 232.633 229.717C232.937 229.635 233.271 229.572 233.637 229.527C234 229.482 234.306 229.443 234.557 229.409C234.81 229.375 235.002 229.322 235.135 229.249C235.267 229.175 235.333 229.057 235.333 228.894V228.742C235.333 228.301 235.201 227.953 234.936 227.7C234.675 227.444 234.298 227.316 233.806 227.316C233.339 227.316 232.958 227.419 232.662 227.624C232.37 227.83 232.165 228.072 232.046 228.35L231.334 228.093C231.48 227.738 231.682 227.456 231.941 227.245C232.2 227.031 232.489 226.878 232.81 226.785C233.131 226.689 233.456 226.641 233.785 226.641C234.032 226.641 234.289 226.674 234.557 226.738C234.827 226.803 235.077 226.916 235.308 227.076C235.538 227.233 235.725 227.454 235.869 227.738C236.012 228.019 236.084 228.377 236.084 228.81V233.21H235.333V232.185H235.286C235.196 232.376 235.063 232.562 234.886 232.742C234.709 232.922 234.486 233.069 234.219 233.185C233.952 233.3 233.638 233.358 233.278 233.358ZM233.38 232.67C233.779 232.67 234.125 232.581 234.417 232.404C234.71 232.227 234.935 231.992 235.092 231.7C235.253 231.404 235.333 231.079 235.333 230.725V229.789C235.277 229.842 235.182 229.89 235.05 229.932C234.921 229.974 234.77 230.012 234.599 230.046C234.43 230.077 234.261 230.104 234.093 230.126C233.924 230.149 233.772 230.168 233.637 230.185C233.271 230.23 232.959 230.3 232.7 230.396C232.442 230.492 232.243 230.624 232.106 230.793C231.968 230.959 231.899 231.172 231.899 231.434C231.899 231.828 232.039 232.133 232.321 232.349C232.602 232.563 232.955 232.67 233.38 232.67ZM238.081 235.64V226.73H238.811V227.966H238.9C238.99 227.772 239.114 227.574 239.271 227.371C239.429 227.166 239.637 226.993 239.895 226.852C240.157 226.712 240.486 226.641 240.883 226.641C241.417 226.641 241.884 226.782 242.283 227.063C242.685 227.342 242.998 227.733 243.22 228.236C243.445 228.737 243.557 229.32 243.557 229.987C243.557 230.656 243.445 231.243 243.22 231.746C242.998 232.249 242.685 232.642 242.283 232.923C241.884 233.204 241.42 233.345 240.891 233.345C240.5 233.345 240.173 233.275 239.908 233.134C239.647 232.993 239.434 232.82 239.271 232.615C239.111 232.407 238.987 232.204 238.9 232.008H238.832V235.64H238.081ZM238.824 229.974C238.824 230.497 238.901 230.961 239.056 231.366C239.213 231.769 239.438 232.085 239.731 232.316C240.026 232.543 240.383 232.657 240.803 232.657C241.233 232.657 241.596 232.539 241.891 232.303C242.189 232.064 242.415 231.742 242.57 231.337C242.728 230.932 242.806 230.478 242.806 229.974C242.806 229.476 242.729 229.028 242.574 228.628C242.423 228.229 242.198 227.913 241.899 227.679C241.601 227.443 241.236 227.325 240.803 227.325C240.381 227.325 240.022 227.439 239.727 227.667C239.431 227.892 239.206 228.204 239.052 228.603C238.9 229 238.824 229.457 238.824 229.974ZM245.205 235.64V226.73H245.935V227.966H246.023C246.113 227.772 246.237 227.574 246.394 227.371C246.552 227.166 246.76 226.993 247.019 226.852C247.28 226.712 247.609 226.641 248.006 226.641C248.54 226.641 249.007 226.782 249.407 227.063C249.809 227.342 250.121 227.733 250.343 228.236C250.568 228.737 250.681 229.32 250.681 229.987C250.681 230.656 250.568 231.243 250.343 231.746C250.121 232.249 249.809 232.642 249.407 232.923C249.007 233.204 248.543 233.345 248.014 233.345C247.624 233.345 247.296 233.275 247.031 233.134C246.77 232.993 246.558 232.82 246.394 232.615C246.234 232.407 246.11 232.204 246.023 232.008H245.956V235.64H245.205ZM245.947 229.974C245.947 230.497 246.025 230.961 246.179 231.366C246.337 231.769 246.562 232.085 246.854 232.316C247.15 232.543 247.507 232.657 247.926 232.657C248.356 232.657 248.719 232.539 249.014 232.303C249.312 232.064 249.539 231.742 249.694 231.337C249.851 230.932 249.93 230.478 249.93 229.974C249.93 229.476 249.852 229.028 249.698 228.628C249.546 228.229 249.321 227.913 249.023 227.679C248.725 227.443 248.359 227.325 247.926 227.325C247.504 227.325 247.145 227.439 246.85 227.667C246.555 227.892 246.33 228.204 246.175 228.603C246.023 229 245.947 229.457 245.947 229.974Z" fill="#322D4C"/>
<path d="M308.724 219.55C308.645 219.263 308.53 218.995 308.378 218.744C308.226 218.491 308.038 218.271 307.813 218.082C307.591 217.891 307.333 217.742 307.041 217.635C306.751 217.528 306.428 217.475 306.071 217.475C305.508 217.475 305.005 217.621 304.56 217.913C304.116 218.206 303.764 218.628 303.506 219.179C303.25 219.73 303.122 220.394 303.122 221.17C303.122 221.944 303.251 222.606 303.51 223.157C303.769 223.709 304.123 224.132 304.573 224.427C305.026 224.72 305.543 224.866 306.125 224.866C306.657 224.866 307.127 224.748 307.535 224.511C307.942 224.275 308.26 223.938 308.488 223.499C308.719 223.06 308.831 222.539 308.825 221.934L309.079 222.014H306.311V221.305H309.593V222.014C309.593 222.751 309.444 223.388 309.146 223.925C308.848 224.462 308.439 224.877 307.918 225.17C307.398 225.462 306.8 225.608 306.125 225.608C305.372 225.608 304.712 225.427 304.147 225.064C303.582 224.699 303.141 224.184 302.826 223.52C302.514 222.854 302.358 222.07 302.358 221.17C302.358 220.492 302.448 219.881 302.628 219.335C302.808 218.789 303.063 218.323 303.392 217.934C303.724 217.546 304.116 217.25 304.569 217.044C305.022 216.836 305.522 216.732 306.071 216.732C306.543 216.732 306.975 216.807 307.366 216.956C307.76 217.105 308.105 217.31 308.404 217.572C308.705 217.83 308.951 218.13 309.142 218.47C309.336 218.808 309.467 219.168 309.534 219.55H308.724ZM313.914 225.625C313.355 225.625 312.86 225.483 312.429 225.199C312.002 224.915 311.667 224.523 311.425 224.022C311.183 223.519 311.062 222.938 311.062 222.28C311.062 221.616 311.183 221.032 311.425 220.529C311.667 220.023 312.002 219.629 312.429 219.348C312.86 219.064 313.355 218.922 313.914 218.922C314.474 218.922 314.968 219.064 315.395 219.348C315.823 219.632 316.157 220.026 316.399 220.529C316.644 221.032 316.766 221.616 316.766 222.28C316.766 222.938 316.645 223.519 316.403 224.022C316.162 224.523 315.825 224.915 315.395 225.199C314.968 225.483 314.474 225.625 313.914 225.625ZM313.914 224.938C314.364 224.938 314.745 224.817 315.058 224.575C315.37 224.333 315.606 224.011 315.766 223.609C315.93 223.206 316.011 222.764 316.011 222.28C316.011 221.796 315.93 221.352 315.766 220.947C315.606 220.542 315.37 220.217 315.058 219.972C314.745 219.727 314.364 219.605 313.914 219.605C313.467 219.605 313.086 219.727 312.771 219.972C312.459 220.217 312.221 220.542 312.058 220.947C311.898 221.352 311.818 221.796 311.818 222.28C311.818 222.764 311.898 223.206 312.058 223.609C312.221 224.011 312.459 224.333 312.771 224.575C313.083 224.817 313.464 224.938 313.914 224.938ZM324.308 219.01V219.664H321.216V219.01H324.308ZM322.182 217.458H322.937V223.799C322.937 224.069 322.984 224.281 323.076 224.436C323.169 224.587 323.29 224.696 323.439 224.76C323.588 224.822 323.747 224.853 323.916 224.853C324.014 224.853 324.099 224.848 324.169 224.836C324.239 224.822 324.301 224.808 324.355 224.794L324.515 225.473C324.442 225.501 324.352 225.527 324.245 225.549C324.138 225.575 324.006 225.587 323.848 225.587C323.573 225.587 323.307 225.527 323.051 225.406C322.798 225.285 322.59 225.105 322.427 224.866C322.264 224.627 322.182 224.33 322.182 223.976V217.458ZM328.463 225.625C327.903 225.625 327.408 225.483 326.978 225.199C326.55 224.915 326.216 224.523 325.974 224.022C325.732 223.519 325.611 222.938 325.611 222.28C325.611 221.616 325.732 221.032 325.974 220.529C326.216 220.023 326.55 219.629 326.978 219.348C327.408 219.064 327.903 218.922 328.463 218.922C329.022 218.922 329.516 219.064 329.943 219.348C330.371 219.632 330.706 220.026 330.948 220.529C331.192 221.032 331.315 221.616 331.315 222.28C331.315 222.938 331.194 223.519 330.952 224.022C330.71 224.523 330.374 224.915 329.943 225.199C329.516 225.483 329.022 225.625 328.463 225.625ZM328.463 224.938C328.913 224.938 329.294 224.817 329.606 224.575C329.918 224.333 330.154 224.011 330.315 223.609C330.478 223.206 330.559 222.764 330.559 222.28C330.559 221.796 330.478 221.352 330.315 220.947C330.154 220.542 329.918 220.217 329.606 219.972C329.294 219.727 328.913 219.605 328.463 219.605C328.016 219.605 327.634 219.727 327.319 219.972C327.007 220.217 326.77 220.542 326.606 220.947C326.446 221.352 326.366 221.796 326.366 222.28C326.366 222.764 326.446 223.206 326.606 223.609C326.77 224.011 327.007 224.333 327.319 224.575C327.632 224.817 328.013 224.938 328.463 224.938Z" fill="#322D4C"/>
<path d="M410.951 213.745C410.391 213.745 409.896 213.603 409.466 213.319C409.038 213.035 408.704 212.643 408.462 212.142C408.22 211.639 408.099 211.058 408.099 210.4C408.099 209.736 408.22 209.153 408.462 208.649C408.704 208.143 409.038 207.749 409.466 207.468C409.896 207.184 410.391 207.042 410.951 207.042C411.511 207.042 412.004 207.184 412.432 207.468C412.859 207.752 413.194 208.146 413.436 208.649C413.68 209.153 413.803 209.736 413.803 210.4C413.803 211.058 413.682 211.639 413.44 212.142C413.198 212.643 412.862 213.035 412.432 213.319C412.004 213.603 411.511 213.745 410.951 213.745ZM410.951 213.058C411.401 213.058 411.782 212.937 412.094 212.695C412.406 212.453 412.643 212.131 412.803 211.729C412.966 211.327 413.048 210.884 413.048 210.4C413.048 209.916 412.966 209.472 412.803 209.067C412.643 208.662 412.406 208.337 412.094 208.092C411.782 207.848 411.401 207.725 410.951 207.725C410.504 207.725 410.123 207.848 409.808 208.092C409.495 208.337 409.258 208.662 409.095 209.067C408.934 209.472 408.854 209.916 408.854 210.4C408.854 210.884 408.934 211.327 409.095 211.729C409.258 212.131 409.495 212.453 409.808 212.695C410.12 212.937 410.501 213.058 410.951 213.058ZM415.451 213.61V207.13H416.181V208.126H416.236C416.365 207.8 416.59 207.537 416.911 207.337C417.234 207.135 417.6 207.033 418.008 207.033C418.07 207.033 418.139 207.035 418.215 207.038C418.29 207.04 418.354 207.043 418.404 207.046V207.81C418.371 207.804 418.312 207.796 418.227 207.784C418.143 207.773 418.051 207.767 417.953 207.767C417.615 207.767 417.315 207.839 417.05 207.983C416.789 208.123 416.582 208.319 416.43 208.569C416.278 208.819 416.202 209.105 416.202 209.425V213.61H415.451Z" fill="#322D4C"/>
<path d="M411.627 275.125C411.067 275.125 410.572 274.983 410.142 274.699C409.714 274.415 409.38 274.023 409.138 273.522C408.896 273.019 408.775 272.438 408.775 271.78C408.775 271.116 408.896 270.532 409.138 270.029C409.38 269.523 409.714 269.129 410.142 268.848C410.572 268.564 411.067 268.422 411.627 268.422C412.186 268.422 412.68 268.564 413.107 268.848C413.535 269.132 413.87 269.526 414.112 270.029C414.356 270.532 414.479 271.116 414.479 271.78C414.479 272.438 414.358 273.019 414.116 273.522C413.874 274.023 413.538 274.415 413.107 274.699C412.68 274.983 412.186 275.125 411.627 275.125ZM411.627 274.438C412.077 274.438 412.458 274.317 412.77 274.075C413.082 273.833 413.318 273.511 413.479 273.109C413.642 272.706 413.723 272.264 413.723 271.78C413.723 271.296 413.642 270.852 413.479 270.447C413.318 270.042 413.082 269.717 412.77 269.472C412.458 269.227 412.077 269.105 411.627 269.105C411.18 269.105 410.798 269.227 410.483 269.472C410.171 269.717 409.934 270.042 409.77 270.447C409.61 270.852 409.53 271.296 409.53 271.78C409.53 272.264 409.61 272.706 409.77 273.109C409.934 273.511 410.171 273.833 410.483 274.075C410.796 274.317 411.177 274.438 411.627 274.438ZM416.127 274.99V268.51H416.857V269.506H416.912C417.041 269.18 417.266 268.917 417.587 268.717C417.91 268.514 418.276 268.413 418.684 268.413C418.745 268.413 418.814 268.415 418.89 268.417C418.966 268.42 419.03 268.423 419.08 268.426V269.189C419.046 269.184 418.987 269.175 418.903 269.164C418.819 269.153 418.727 269.147 418.629 269.147C418.291 269.147 417.99 269.219 417.726 269.362C417.464 269.503 417.258 269.699 417.106 269.949C416.954 270.199 416.878 270.485 416.878 270.805V274.99H416.127Z" fill="#322D4C"/>
<path d="M466.015 198.419V197.711H472.28V198.419H469.542V206.351H468.753V198.419H466.015ZM475.479 206.486C474.919 206.486 474.424 206.344 473.994 206.059C473.566 205.775 473.231 205.383 472.99 204.882C472.748 204.379 472.627 203.798 472.627 203.14C472.627 202.476 472.748 201.893 472.99 201.389C473.231 200.883 473.566 200.489 473.994 200.208C474.424 199.924 474.919 199.782 475.479 199.782C476.038 199.782 476.532 199.924 476.959 200.208C477.387 200.492 477.722 200.886 477.963 201.389C478.208 201.893 478.33 202.476 478.33 203.14C478.33 203.798 478.21 204.379 477.968 204.882C477.726 205.383 477.39 205.775 476.959 206.059C476.532 206.344 476.038 206.486 475.479 206.486ZM475.479 205.798C475.929 205.798 476.31 205.677 476.622 205.435C476.934 205.193 477.17 204.871 477.331 204.469C477.494 204.067 477.575 203.624 477.575 203.14C477.575 202.656 477.494 202.212 477.331 201.807C477.17 201.402 476.934 201.077 476.622 200.832C476.31 200.588 475.929 200.465 475.479 200.465C475.031 200.465 474.65 200.588 474.335 200.832C474.023 201.077 473.785 201.402 473.622 201.807C473.462 202.212 473.382 202.656 473.382 203.14C473.382 203.624 473.462 204.067 473.622 204.469C473.785 204.871 474.023 205.193 474.335 205.435C474.648 205.677 475.029 205.798 475.479 205.798ZM459.929 210.711H460.718V216.431C460.718 217.019 460.58 217.545 460.305 218.009C460.029 218.47 459.645 218.834 459.153 219.102C458.664 219.366 458.094 219.498 457.445 219.498C456.798 219.498 456.228 219.365 455.736 219.097C455.244 218.83 454.86 218.466 454.584 218.005C454.309 217.544 454.171 217.019 454.171 216.431V210.711H454.96V216.376C454.96 216.835 455.062 217.244 455.268 217.604C455.473 217.961 455.761 218.242 456.132 218.448C456.507 218.653 456.944 218.756 457.445 218.756C457.945 218.756 458.382 218.653 458.757 218.448C459.131 218.242 459.419 217.961 459.621 217.604C459.827 217.244 459.929 216.835 459.929 216.376V210.711ZM463.606 215.301V219.351H462.855V212.871H463.585V213.887H463.652C463.804 213.555 464.041 213.29 464.361 213.09C464.685 212.887 465.084 212.786 465.559 212.786C465.995 212.786 466.378 212.878 466.707 213.06C467.039 213.24 467.296 213.506 467.479 213.858C467.664 214.209 467.757 214.641 467.757 215.153V219.351H467.006V215.199C467.006 214.668 466.857 214.247 466.559 213.938C466.264 213.629 465.867 213.474 465.369 213.474C465.029 213.474 464.727 213.547 464.462 213.693C464.198 213.839 463.988 214.05 463.834 214.326C463.682 214.599 463.606 214.924 463.606 215.301ZM470.486 210.711V219.351H469.735V210.711H470.486ZM474.991 219.486C474.432 219.486 473.937 219.344 473.506 219.059C473.079 218.775 472.744 218.383 472.502 217.882C472.26 217.379 472.139 216.798 472.139 216.14C472.139 215.476 472.26 214.893 472.502 214.389C472.744 213.883 473.079 213.489 473.506 213.208C473.937 212.924 474.432 212.782 474.991 212.782C475.551 212.782 476.045 212.924 476.472 213.208C476.9 213.492 477.234 213.886 477.476 214.389C477.721 214.893 477.843 215.476 477.843 216.14C477.843 216.798 477.722 217.379 477.48 217.882C477.239 218.383 476.902 218.775 476.472 219.059C476.045 219.344 475.551 219.486 474.991 219.486ZM474.991 218.798C475.441 218.798 475.822 218.677 476.135 218.435C476.447 218.193 476.683 217.871 476.843 217.469C477.006 217.067 477.088 216.624 477.088 216.14C477.088 215.656 477.006 215.212 476.843 214.807C476.683 214.402 476.447 214.077 476.135 213.832C475.822 213.588 475.441 213.465 474.991 213.465C474.544 213.465 474.163 213.588 473.848 213.832C473.536 214.077 473.298 214.402 473.135 214.807C472.975 215.212 472.895 215.656 472.895 216.14C472.895 216.624 472.975 217.067 473.135 217.469C473.298 217.871 473.536 218.193 473.848 218.435C474.16 218.677 474.541 218.798 474.991 218.798ZM482.023 219.486C481.444 219.486 480.939 219.341 480.508 219.051C480.081 218.761 479.749 218.365 479.513 217.861C479.277 217.358 479.158 216.784 479.158 216.14C479.158 215.49 479.278 214.912 479.517 214.406C479.759 213.9 480.094 213.503 480.521 213.217C480.949 212.927 481.445 212.782 482.01 212.782C482.443 212.782 482.836 212.866 483.187 213.035C483.539 213.201 483.829 213.436 484.056 213.74C484.287 214.041 484.432 214.392 484.491 214.794H483.732C483.653 214.429 483.463 214.117 483.162 213.858C482.864 213.596 482.484 213.465 482.023 213.465C481.61 213.465 481.244 213.578 480.926 213.803C480.608 214.025 480.359 214.336 480.179 214.735C480.002 215.132 479.914 215.592 479.914 216.115C479.914 216.641 480.001 217.106 480.175 217.511C480.35 217.913 480.594 218.228 480.909 218.456C481.227 218.684 481.598 218.798 482.023 218.798C482.31 218.798 482.571 218.744 482.808 218.638C483.047 218.528 483.246 218.373 483.407 218.174C483.57 217.974 483.68 217.736 483.736 217.461H484.495C484.439 217.852 484.3 218.2 484.077 218.507C483.858 218.811 483.573 219.05 483.221 219.224C482.872 219.398 482.473 219.486 482.023 219.486ZM486.788 216.904L486.78 215.921H486.948L489.986 212.871H490.935L487.936 215.874L487.868 215.887L486.788 216.904ZM486.105 219.351V210.711H486.856V219.351H486.105ZM490.142 219.351L487.509 216.022L488.049 215.503L491.104 219.351H490.142ZM455.067 232.486C454.487 232.486 453.982 232.341 453.552 232.051C453.125 231.761 452.793 231.365 452.557 230.861C452.32 230.358 452.202 229.784 452.202 229.14C452.202 228.49 452.322 227.912 452.561 227.406C452.803 226.9 453.137 226.503 453.565 226.217C453.992 225.927 454.489 225.782 455.054 225.782C455.487 225.782 455.88 225.866 456.231 226.035C456.583 226.201 456.872 226.436 457.1 226.74C457.331 227.041 457.476 227.392 457.535 227.794H456.775C456.697 227.429 456.507 227.117 456.206 226.858C455.908 226.596 455.528 226.465 455.067 226.465C454.653 226.465 454.288 226.578 453.97 226.803C453.652 227.025 453.403 227.336 453.223 227.735C453.046 228.132 452.957 228.592 452.957 229.115C452.957 229.641 453.045 230.106 453.219 230.511C453.393 230.913 453.638 231.228 453.953 231.456C454.271 231.684 454.642 231.798 455.067 231.798C455.354 231.798 455.615 231.744 455.851 231.638C456.09 231.528 456.29 231.373 456.45 231.174C456.614 230.974 456.723 230.736 456.78 230.461H457.539C457.483 230.852 457.343 231.2 457.121 231.507C456.902 231.811 456.616 232.05 456.265 232.224C455.916 232.398 455.517 232.486 455.067 232.486ZM460.958 232.498C460.567 232.498 460.21 232.422 459.887 232.27C459.563 232.116 459.306 231.894 459.115 231.604C458.923 231.311 458.828 230.957 458.828 230.541C458.828 230.22 458.888 229.95 459.009 229.731C459.13 229.511 459.302 229.331 459.524 229.191C459.746 229.05 460.009 228.939 460.313 228.857C460.616 228.776 460.951 228.713 461.317 228.668C461.68 228.623 461.986 228.583 462.236 228.549C462.49 228.516 462.682 228.462 462.814 228.389C462.947 228.316 463.013 228.198 463.013 228.035V227.883C463.013 227.441 462.881 227.094 462.616 226.841C462.355 226.585 461.978 226.457 461.486 226.457C461.019 226.457 460.638 226.56 460.342 226.765C460.05 226.97 459.844 227.212 459.726 227.491L459.013 227.233C459.16 226.879 459.362 226.596 459.621 226.385C459.88 226.172 460.169 226.018 460.49 225.925C460.811 225.83 461.135 225.782 461.464 225.782C461.712 225.782 461.969 225.814 462.236 225.879C462.506 225.944 462.757 226.056 462.987 226.217C463.218 226.374 463.405 226.595 463.549 226.879C463.692 227.16 463.764 227.517 463.764 227.95V232.351H463.013V231.325H462.966C462.876 231.517 462.743 231.702 462.566 231.882C462.388 232.062 462.166 232.21 461.899 232.325C461.632 232.441 461.318 232.498 460.958 232.498ZM461.059 231.811C461.459 231.811 461.805 231.722 462.097 231.545C462.39 231.368 462.615 231.133 462.772 230.84C462.933 230.545 463.013 230.22 463.013 229.866V228.929C462.956 228.983 462.862 229.03 462.73 229.073C462.601 229.115 462.45 229.153 462.279 229.187C462.11 229.217 461.941 229.244 461.772 229.267C461.604 229.289 461.452 229.309 461.317 229.326C460.951 229.371 460.639 229.441 460.38 229.537C460.121 229.632 459.923 229.764 459.785 229.933C459.648 230.099 459.579 230.313 459.579 230.574C459.579 230.968 459.719 231.273 460.001 231.49C460.282 231.704 460.635 231.811 461.059 231.811ZM465.761 232.351V225.871H466.491V226.866H466.546C466.675 226.54 466.9 226.277 467.221 226.077C467.544 225.875 467.91 225.774 468.318 225.774C468.38 225.774 468.449 225.775 468.525 225.778C468.6 225.781 468.664 225.783 468.714 225.786V226.55C468.681 226.544 468.622 226.536 468.537 226.524C468.453 226.513 468.361 226.508 468.263 226.508C467.925 226.508 467.625 226.579 467.36 226.723C467.099 226.863 466.892 227.059 466.74 227.309C466.588 227.559 466.512 227.845 466.512 228.166V232.351H465.761ZM470.502 231.169L470.426 231.621C470.378 231.924 470.311 232.259 470.224 232.625C470.136 232.99 470.046 233.338 469.954 233.667C469.861 233.996 469.781 234.26 469.713 234.46H469.135C469.172 234.269 469.218 234.025 469.274 233.73C469.333 233.435 469.394 233.107 469.456 232.747C469.518 232.39 469.574 232.022 469.625 231.642L469.684 231.169H470.502ZM478.384 225.871V226.524H475.291V225.871H478.384ZM476.257 224.318H477.013V230.659C477.013 230.929 477.059 231.141 477.152 231.296C477.245 231.448 477.366 231.556 477.515 231.621C477.664 231.683 477.823 231.714 477.991 231.714C478.09 231.714 478.174 231.708 478.245 231.697C478.315 231.683 478.377 231.669 478.43 231.654L478.59 232.334C478.517 232.362 478.427 232.387 478.32 232.41C478.214 232.435 478.081 232.448 477.924 232.448C477.648 232.448 477.382 232.387 477.127 232.266C476.873 232.145 476.665 231.965 476.502 231.726C476.339 231.487 476.257 231.19 476.257 230.836V224.318ZM481.899 232.498C481.508 232.498 481.151 232.422 480.827 232.27C480.504 232.116 480.247 231.894 480.055 231.604C479.864 231.311 479.769 230.957 479.769 230.541C479.769 230.22 479.829 229.95 479.95 229.731C480.071 229.511 480.242 229.331 480.465 229.191C480.687 229.05 480.95 228.939 481.254 228.857C481.557 228.776 481.892 228.713 482.258 228.668C482.62 228.623 482.927 228.583 483.177 228.549C483.43 228.516 483.623 228.462 483.755 228.389C483.887 228.316 483.954 228.198 483.954 228.035V227.883C483.954 227.441 483.821 227.094 483.557 226.841C483.295 226.585 482.919 226.457 482.426 226.457C481.959 226.457 481.578 226.56 481.283 226.765C480.991 226.97 480.785 227.212 480.667 227.491L479.954 227.233C480.1 226.879 480.303 226.596 480.562 226.385C480.82 226.172 481.11 226.018 481.431 225.925C481.751 225.83 482.076 225.782 482.405 225.782C482.653 225.782 482.91 225.814 483.177 225.879C483.447 225.944 483.698 226.056 483.928 226.217C484.159 226.374 484.346 226.595 484.489 226.879C484.633 227.16 484.704 227.517 484.704 227.95V232.351H483.954V231.325H483.907C483.817 231.517 483.684 231.702 483.506 231.882C483.329 232.062 483.107 232.21 482.84 232.325C482.573 232.441 482.259 232.498 481.899 232.498ZM482 231.811C482.4 231.811 482.746 231.722 483.038 231.545C483.331 231.368 483.556 231.133 483.713 230.84C483.873 230.545 483.954 230.22 483.954 229.866V228.929C483.897 228.983 483.803 229.03 483.671 229.073C483.542 229.115 483.391 229.153 483.219 229.187C483.051 229.217 482.882 229.244 482.713 229.267C482.544 229.289 482.393 229.309 482.258 229.326C481.892 229.371 481.58 229.441 481.321 229.537C481.062 229.632 480.864 229.764 480.726 229.933C480.588 230.099 480.519 230.313 480.519 230.574C480.519 230.968 480.66 231.273 480.941 231.49C481.223 231.704 481.576 231.811 482 231.811ZM486.702 234.781V225.871H487.432V227.107H487.52C487.61 226.913 487.734 226.714 487.892 226.512C488.049 226.307 488.257 226.134 488.516 225.993C488.778 225.852 489.107 225.782 489.503 225.782C490.038 225.782 490.505 225.923 490.904 226.204C491.306 226.482 491.618 226.873 491.84 227.377C492.065 227.877 492.178 228.461 492.178 229.127C492.178 229.797 492.065 230.383 491.84 230.887C491.618 231.39 491.306 231.782 490.904 232.064C490.505 232.345 490.04 232.486 489.512 232.486C489.121 232.486 488.793 232.415 488.529 232.275C488.267 232.134 488.055 231.961 487.892 231.756C487.731 231.548 487.608 231.345 487.52 231.148H487.453V234.781H486.702ZM487.445 229.115C487.445 229.638 487.522 230.102 487.677 230.507C487.834 230.909 488.059 231.226 488.352 231.456C488.647 231.684 489.004 231.798 489.423 231.798C489.853 231.798 490.216 231.68 490.512 231.444C490.81 231.204 491.036 230.882 491.191 230.477C491.348 230.072 491.427 229.618 491.427 229.115C491.427 228.617 491.35 228.168 491.195 227.769C491.043 227.37 490.818 227.053 490.52 226.82C490.222 226.584 489.856 226.465 489.423 226.465C489.001 226.465 488.643 226.579 488.347 226.807C488.052 227.032 487.827 227.344 487.672 227.744C487.52 228.14 487.445 228.597 487.445 229.115Z" fill="#322D4C"/>
<path d="M553.291 207.669V199.029H558.303V199.738H554.08V202.991H558.037V203.7H554.08V206.961H558.387V207.669H553.291ZM560.94 203.619V207.669H560.189V201.189H560.918V202.206H560.986C561.138 201.874 561.374 201.608 561.695 201.409C562.018 201.206 562.418 201.105 562.893 201.105C563.329 201.105 563.711 201.196 564.04 201.379C564.372 201.559 564.63 201.825 564.812 202.177C564.998 202.528 565.091 202.96 565.091 203.472V207.669H564.34V203.518C564.34 202.987 564.191 202.566 563.893 202.257C563.597 201.947 563.201 201.793 562.703 201.793C562.363 201.793 562.06 201.866 561.796 202.012C561.532 202.158 561.322 202.369 561.167 202.645C561.015 202.918 560.94 203.243 560.94 203.619ZM567.077 201.189H567.832V208.298C567.832 208.666 567.763 208.984 567.625 209.251C567.49 209.521 567.293 209.73 567.035 209.876C566.776 210.025 566.464 210.099 566.098 210.099C566.07 210.099 566.042 210.099 566.014 210.099C565.986 210.099 565.955 210.098 565.921 210.095L565.929 209.391C565.957 209.391 565.984 209.391 566.009 209.391C566.035 209.391 566.061 209.391 566.09 209.391C566.399 209.391 566.641 209.295 566.815 209.104C566.99 208.913 567.077 208.644 567.077 208.298V201.189ZM567.448 200.076C567.296 200.076 567.164 200.024 567.051 199.92C566.942 199.813 566.887 199.685 566.887 199.536C566.887 199.387 566.942 199.26 567.051 199.156C567.164 199.049 567.296 198.996 567.448 198.996C567.603 198.996 567.735 199.049 567.845 199.156C567.957 199.26 568.013 199.387 568.013 199.536C568.013 199.685 567.957 199.813 567.845 199.92C567.735 200.024 567.603 200.076 567.448 200.076ZM572.336 207.804C571.777 207.804 571.282 207.662 570.851 207.378C570.424 207.094 570.089 206.702 569.847 206.201C569.606 205.698 569.485 205.117 569.485 204.459C569.485 203.795 569.606 203.212 569.847 202.708C570.089 202.202 570.424 201.808 570.851 201.527C571.282 201.243 571.777 201.101 572.336 201.101C572.896 201.101 573.39 201.243 573.817 201.527C574.245 201.811 574.579 202.205 574.821 202.708C575.066 203.212 575.188 203.795 575.188 204.459C575.188 205.117 575.067 205.698 574.826 206.201C574.584 206.702 574.248 207.094 573.817 207.378C573.39 207.662 572.896 207.804 572.336 207.804ZM572.336 207.117C572.786 207.117 573.168 206.996 573.48 206.754C573.792 206.512 574.028 206.19 574.189 205.788C574.352 205.386 574.433 204.943 574.433 204.459C574.433 203.975 574.352 203.531 574.189 203.126C574.028 202.721 573.792 202.396 573.48 202.151C573.168 201.907 572.786 201.784 572.336 201.784C571.889 201.784 571.508 201.907 571.193 202.151C570.881 202.396 570.643 202.721 570.48 203.126C570.32 203.531 570.24 203.975 570.24 204.459C570.24 204.943 570.32 205.386 570.48 205.788C570.643 206.19 570.881 206.512 571.193 206.754C571.505 206.996 571.886 207.117 572.336 207.117ZM577.128 210.099C576.979 210.099 576.84 210.085 576.71 210.057C576.581 210.029 576.478 209.998 576.402 209.964L576.605 209.302C576.861 209.381 577.089 209.409 577.288 209.386C577.488 209.367 577.665 209.277 577.82 209.116C577.975 208.959 578.112 208.717 578.233 208.391L578.47 207.733L576.086 201.189H576.9L578.824 206.678H578.883L580.807 201.189H581.621L578.879 208.695C578.763 209.007 578.621 209.267 578.453 209.475C578.284 209.686 578.088 209.842 577.866 209.943C577.647 210.047 577.401 210.099 577.128 210.099ZM549.295 214.189V214.843H546.202V214.189H549.295ZM547.168 212.637H547.924V218.978C547.924 219.248 547.97 219.46 548.063 219.615C548.156 219.767 548.277 219.875 548.426 219.94C548.575 220.001 548.734 220.032 548.902 220.032C549.001 220.032 549.085 220.027 549.156 220.016C549.226 220.001 549.288 219.987 549.341 219.973L549.501 220.653C549.428 220.681 549.338 220.706 549.231 220.728C549.125 220.754 548.992 220.766 548.835 220.766C548.559 220.766 548.293 220.706 548.038 220.585C547.784 220.464 547.576 220.284 547.413 220.045C547.25 219.806 547.168 219.509 547.168 219.155V212.637ZM551.89 216.619V220.669H551.139V212.029H551.89V215.206H551.958C552.11 214.871 552.345 214.604 552.662 214.405C552.983 214.205 553.388 214.105 553.877 214.105C554.316 214.105 554.701 214.195 555.033 214.375C555.365 214.555 555.624 214.821 555.81 215.172C555.995 215.524 556.088 215.957 556.088 216.472V220.669H555.333V216.518C555.333 215.984 555.184 215.563 554.886 215.257C554.59 214.947 554.191 214.793 553.688 214.793C553.342 214.793 553.034 214.866 552.764 215.012C552.494 215.158 552.28 215.369 552.122 215.645C551.968 215.918 551.89 216.243 551.89 216.619ZM560.685 220.804C560.081 220.804 559.558 220.664 559.116 220.383C558.674 220.098 558.333 219.706 558.091 219.206C557.852 218.702 557.732 218.123 557.732 217.467C557.732 216.815 557.852 216.236 558.091 215.729C558.333 215.22 558.666 214.822 559.091 214.535C559.518 214.246 560.012 214.101 560.571 214.101C560.923 214.101 561.262 214.166 561.588 214.295C561.914 214.421 562.207 214.617 562.466 214.881C562.727 215.143 562.934 215.473 563.086 215.873C563.238 216.269 563.314 216.739 563.314 217.282V217.653H558.251V216.991H562.546C562.546 216.574 562.461 216.2 562.293 215.868C562.127 215.534 561.895 215.269 561.597 215.075C561.301 214.881 560.96 214.784 560.571 214.784C560.161 214.784 559.799 214.894 559.487 215.113C559.175 215.333 558.93 215.622 558.753 215.982C558.579 216.342 558.49 216.736 558.487 217.164V217.56C558.487 218.075 558.576 218.525 558.753 218.91C558.933 219.293 559.188 219.589 559.517 219.8C559.846 220.011 560.235 220.117 560.685 220.117C560.992 220.117 561.261 220.069 561.491 219.973C561.725 219.878 561.92 219.75 562.078 219.589C562.238 219.426 562.359 219.248 562.44 219.054L563.153 219.286C563.055 219.558 562.893 219.81 562.668 220.041C562.446 220.271 562.168 220.457 561.833 220.598C561.501 220.736 561.118 220.804 560.685 220.804ZM568.31 220.669V214.189H569.04V215.185H569.094C569.224 214.859 569.449 214.596 569.769 214.396C570.093 214.194 570.458 214.092 570.866 214.092C570.928 214.092 570.997 214.094 571.073 214.097C571.149 214.099 571.212 214.102 571.263 214.105V214.869C571.229 214.863 571.17 214.855 571.086 214.843C571.001 214.832 570.91 214.826 570.811 214.826C570.474 214.826 570.173 214.898 569.909 215.042C569.647 215.182 569.44 215.378 569.288 215.628C569.137 215.878 569.061 216.164 569.061 216.484V220.669H568.31ZM572.553 220.669V214.189H573.308V220.669H572.553ZM572.937 213.076C572.782 213.076 572.65 213.024 572.54 212.92C572.43 212.813 572.376 212.685 572.376 212.536C572.376 212.387 572.43 212.26 572.54 212.156C572.65 212.049 572.782 211.996 572.937 211.996C573.091 211.996 573.223 212.049 573.333 212.156C573.443 212.26 573.498 212.387 573.498 212.536C573.498 212.685 573.443 212.813 573.333 212.92C573.223 213.024 573.091 213.076 572.937 213.076ZM577.627 220.804C577.095 220.804 576.63 220.664 576.23 220.383C575.831 220.101 575.519 219.709 575.294 219.206C575.072 218.702 574.961 218.116 574.961 217.446C574.961 216.78 575.072 216.196 575.294 215.696C575.519 215.192 575.832 214.801 576.235 214.523C576.637 214.241 577.105 214.101 577.639 214.101C578.033 214.101 578.361 214.171 578.622 214.312C578.884 214.45 579.094 214.621 579.251 214.826C579.409 215.032 579.531 215.231 579.618 215.426H579.686V212.029H580.441V220.669H579.707V219.467H579.618C579.531 219.664 579.407 219.866 579.247 220.075C579.086 220.28 578.874 220.453 578.61 220.593C578.348 220.734 578.021 220.804 577.627 220.804ZM577.715 220.117C578.134 220.117 578.492 220.003 578.787 219.775C579.082 219.544 579.307 219.228 579.462 218.826C579.619 218.421 579.698 217.957 579.698 217.434C579.698 216.916 579.621 216.459 579.466 216.063C579.311 215.663 579.086 215.351 578.791 215.126C578.496 214.898 578.137 214.784 577.715 214.784C577.282 214.784 576.917 214.902 576.619 215.139C576.323 215.372 576.098 215.688 575.944 216.088C575.792 216.487 575.716 216.936 575.716 217.434C575.716 217.937 575.793 218.391 575.948 218.796C576.102 219.201 576.327 219.523 576.623 219.762C576.921 219.999 577.285 220.117 577.715 220.117ZM585.199 220.804C584.595 220.804 584.072 220.664 583.63 220.383C583.189 220.098 582.847 219.706 582.605 219.206C582.366 218.702 582.246 218.123 582.246 217.467C582.246 216.815 582.366 216.236 582.605 215.729C582.847 215.22 583.18 214.822 583.605 214.535C584.032 214.246 584.526 214.101 585.086 214.101C585.437 214.101 585.776 214.166 586.102 214.295C586.429 214.421 586.721 214.617 586.98 214.881C587.241 215.143 587.448 215.473 587.6 215.873C587.752 216.269 587.828 216.739 587.828 217.282V217.653H582.765V216.991H587.06C587.06 216.574 586.976 216.2 586.807 215.868C586.641 215.534 586.409 215.269 586.111 215.075C585.815 214.881 585.474 214.784 585.086 214.784C584.675 214.784 584.314 214.894 584.001 215.113C583.689 215.333 583.444 215.622 583.267 215.982C583.093 216.342 583.004 216.736 583.001 217.164V217.56C583.001 218.075 583.09 218.525 583.267 218.91C583.447 219.293 583.702 219.589 584.031 219.8C584.36 220.011 584.749 220.117 585.199 220.117C585.506 220.117 585.775 220.069 586.005 219.973C586.239 219.878 586.434 219.75 586.592 219.589C586.752 219.426 586.873 219.248 586.954 219.054L587.667 219.286C587.569 219.558 587.407 219.81 587.182 220.041C586.96 220.271 586.682 220.457 586.347 220.598C586.015 220.736 585.633 220.804 585.199 220.804Z" fill="#322D4C"/>
<path d="M205.263 241.166L230.829 241.16C230.829 241.16 234.144 241.159 261.043 241.153" stroke="#322D4C" stroke-width="1.98" stroke-linecap="round" stroke-dasharray="3.96 3.96"/>
<g clip-path="url(#clip2_384_1430)">
<path d="M173.452 226.845C173.452 225.603 173.967 224.412 174.885 223.534C175.803 222.656 177.048 222.163 178.346 222.163H193.028C194.326 222.163 195.571 222.656 196.489 223.534C197.407 224.412 197.922 225.603 197.922 226.845V254.935C197.922 256.176 197.407 257.367 196.489 258.245C195.571 259.123 194.326 259.616 193.028 259.616H178.346C177.048 259.616 175.803 259.123 174.885 258.245C173.967 257.367 173.452 256.176 173.452 254.935V226.845ZM188.134 252.594C188.134 251.973 187.876 251.378 187.417 250.939C186.958 250.5 186.336 250.253 185.687 250.253C185.038 250.253 184.416 250.5 183.957 250.939C183.498 251.378 183.24 251.973 183.24 252.594C183.24 253.215 183.498 253.81 183.957 254.249C184.416 254.688 185.038 254.935 185.687 254.935C186.336 254.935 186.958 254.688 187.417 254.249C187.876 253.81 188.134 253.215 188.134 252.594Z" fill="#E1A924"/>
</g>
<path d="M283.424 223.754C283.424 224.719 283.098 225.645 282.519 226.328C281.939 227.011 281.154 227.395 280.334 227.395C279.515 227.395 278.729 227.011 278.15 226.328C277.57 225.645 277.245 224.719 277.245 223.754C277.245 222.788 277.57 221.862 278.15 221.179C278.729 220.496 279.515 220.112 280.334 220.112C281.154 220.112 281.939 220.496 282.519 221.179C283.098 221.862 283.424 222.788 283.424 223.754Z" fill="#E1A924"/>
<path fill-rule="evenodd" clip-rule="evenodd" d="M280.334 225.314C280.685 225.314 281.022 225.15 281.27 224.857C281.518 224.564 281.658 224.167 281.658 223.754C281.658 223.34 281.518 222.943 281.27 222.65C281.022 222.357 280.685 222.193 280.334 222.193C279.983 222.193 279.646 222.357 279.397 222.65C279.149 222.943 279.01 223.34 279.01 223.754C279.01 224.167 279.149 224.564 279.397 224.857C279.646 225.15 279.983 225.314 280.334 225.314ZM280.334 227.395C280.739 227.395 281.141 227.301 281.516 227.118C281.891 226.935 282.231 226.666 282.518 226.328C282.805 225.99 283.033 225.589 283.188 225.147C283.343 224.705 283.423 224.232 283.423 223.754C283.423 223.275 283.343 222.802 283.188 222.36C283.033 221.918 282.805 221.517 282.518 221.179C282.231 220.841 281.891 220.572 281.516 220.389C281.141 220.206 280.739 220.112 280.334 220.112C279.514 220.112 278.729 220.496 278.149 221.179C277.57 221.862 277.244 222.788 277.244 223.754C277.244 224.719 277.57 225.645 278.149 226.328C278.729 227.011 279.514 227.395 280.334 227.395ZM269.3 230.516C268.831 230.516 268.382 230.735 268.051 231.125C267.72 231.516 267.534 232.045 267.534 232.597C267.534 233.148 267.72 233.678 268.051 234.068C268.382 234.458 268.831 234.677 269.3 234.677H275.479V255.485C275.479 256.036 275.665 256.566 275.996 256.956C276.327 257.346 276.776 257.565 277.244 257.565C277.712 257.565 278.161 257.346 278.493 256.956C278.824 256.566 279.01 256.036 279.01 255.485V246.121H281.658V255.485C281.658 256.036 281.844 256.566 282.175 256.956C282.506 257.346 282.955 257.565 283.423 257.565C283.892 257.565 284.341 257.346 284.672 256.956C285.003 256.566 285.189 256.036 285.189 255.485V242.914C286.495 242.649 287.67 241.816 288.481 240.58C289.292 239.344 289.681 237.795 289.57 236.238C289.459 234.681 288.857 233.23 287.882 232.17C286.908 231.111 285.632 230.521 284.306 230.516H269.3ZM286.954 236.758C286.954 236.206 286.768 235.677 286.437 235.287C286.106 234.897 285.657 234.677 285.189 234.677V238.839C285.657 238.839 286.106 238.62 286.437 238.229C286.768 237.839 286.954 237.31 286.954 236.758Z" fill="#E1A924"/>
<path fill-rule="evenodd" clip-rule="evenodd" d="M257.825 247.162C257.825 246.61 258.011 246.081 258.342 245.69C258.673 245.3 259.122 245.081 259.59 245.081H271.066C271.534 245.081 271.983 245.3 272.314 245.69C272.645 246.081 272.831 246.61 272.831 247.162V255.485C272.831 256.036 272.645 256.566 272.314 256.956C271.983 257.346 271.534 257.565 271.066 257.565H259.59C259.122 257.565 258.673 257.346 258.342 256.956C258.011 256.566 257.825 256.036 257.825 255.485V247.162ZM261.356 254.444V248.202H263.121V254.444H261.356ZM267.535 248.202V254.444H269.3V248.202H267.535ZM262.238 243C262.238 242.448 262.424 241.919 262.755 241.529C263.087 241.139 263.536 240.919 264.004 240.919H266.652C267.12 240.919 267.569 241.139 267.9 241.529C268.231 241.919 268.417 242.448 268.417 243V245.081H266.652V243H264.004V245.081H262.238V243Z" fill="#E1A924"/>
<path d="M503.143 243.282V247.297C508.228 247.297 512.355 251.794 512.355 257.334H516.04C516.04 249.565 510.273 243.282 503.143 243.282ZM503.143 251.312V257.334H508.67C508.67 254.002 506.201 251.312 503.143 251.312ZM503.143 235.252V239.267C507.541 239.267 511.758 241.17 514.868 244.559C517.978 247.947 519.725 252.543 519.725 257.334H523.41C523.41 245.129 514.345 235.252 503.143 235.252ZM530.78 213.19L512.355 213.169C510.328 213.169 508.67 214.976 508.67 217.184V231.98C509.941 232.301 511.176 232.722 512.355 233.265V221.199H530.78V247.297H525.197C526.155 249.806 526.745 252.496 526.948 255.327H530.78C532.807 255.327 534.465 253.52 534.465 251.312V217.184C534.465 214.976 532.807 213.19 530.78 213.19Z" fill="#E1A924"/>
<path d="M514.891 261.07V269.71H513.119L509.681 264.723H509.626V269.71H507.538V261.07H509.335L512.735 266.048H512.807V261.07H514.891ZM518.844 269.71V261.07H524.742V262.766H520.932V264.538H524.367V266.238H520.932V269.71H518.844ZM536.276 264.2H534.167C534.139 263.984 534.081 263.788 533.994 263.614C533.907 263.439 533.791 263.29 533.648 263.167C533.504 263.043 533.334 262.949 533.137 262.884C532.943 262.817 532.728 262.783 532.492 262.783C532.073 262.783 531.712 262.885 531.408 263.091C531.107 263.296 530.875 263.593 530.712 263.981C530.551 264.369 530.471 264.839 530.471 265.39C530.471 265.964 530.553 266.445 530.716 266.833C530.882 267.218 531.114 267.509 531.412 267.706C531.713 267.9 532.069 267.997 532.479 267.997C532.71 267.997 532.919 267.968 533.108 267.909C533.299 267.849 533.467 267.764 533.61 267.651C533.756 267.536 533.876 267.397 533.969 267.234C534.064 267.068 534.13 266.881 534.167 266.672L536.276 266.685C536.24 267.068 536.129 267.444 535.943 267.816C535.76 268.187 535.508 268.526 535.188 268.832C534.867 269.136 534.476 269.378 534.015 269.558C533.557 269.738 533.031 269.828 532.437 269.828C531.655 269.828 530.955 269.657 530.336 269.313C529.72 268.967 529.234 268.464 528.877 267.803C528.519 267.142 528.341 266.338 528.341 265.39C528.341 264.439 528.522 263.634 528.885 262.973C529.248 262.312 529.739 261.81 530.357 261.467C530.976 261.123 531.669 260.952 532.437 260.952C532.96 260.952 533.444 261.025 533.888 261.171C534.333 261.315 534.724 261.526 535.061 261.804C535.399 262.08 535.673 262.419 535.884 262.821C536.095 263.223 536.226 263.683 536.276 264.2Z" fill="#E1A924"/>
<rect x="0.5" y="0.75" width="815" height="464.054" stroke="#658864"/>
<defs>
<clipPath id="clip0_384_1430">
<rect width="56.8522" height="36.9401" fill="white" transform="translate(593.038 222.164)"/>
</clipPath>
<clipPath id="clip1_384_1430">
<rect width="33.2532" height="35.914" fill="white" transform="translate(397.189 389.39)"/>
</clipPath>
<clipPath id="clip2_384_1430">
<rect width="39.1529" height="37.4531" fill="white" transform="translate(166.11 222.163)"/>
</clipPath>
</defs>
</svg>
