<svg width="42" height="42" viewBox="0 0 42 42" fill="none" xmlns="http://www.w3.org/2000/svg">
<path d="M18.2017 18.4625L17.2007 21.658H20.5309L19.5107 18.4625C19.3077 17.8237 19.1309 17.122 18.9682 16.4797C18.9312 16.3321 18.8938 16.1845 18.8562 16.037H18.8177C18.7512 16.2942 18.6864 16.569 18.6182 16.8507C18.4887 17.3932 18.3539 17.9567 18.2017 18.4625Z" fill="#F1EDE9"/>
<path fill-rule="evenodd" clip-rule="evenodd" d="M11.8474 5.39349C17.9305 4.71922 24.0694 4.71922 30.1524 5.39349C33.4757 5.76449 36.1549 8.38074 36.5452 11.7162C37.2665 17.8844 37.2665 24.1156 36.5452 30.2837C36.1549 33.6192 33.4757 36.2355 30.1542 36.6082C24.0706 37.2827 17.931 37.2827 11.8474 36.6082C8.52418 36.2355 5.84493 33.6192 5.45468 30.2855C4.73321 24.1168 4.73321 17.885 5.45468 11.7162C5.84493 8.38074 8.52418 5.76449 11.8474 5.39349ZM27.8809 17.7502V27.125H25.4939V17.7502H27.8809ZM25.3609 15.1322C25.3609 14.4007 25.8982 13.8425 26.6874 13.8425C27.4977 13.8425 27.9964 14.4007 28.0174 15.1322C28.0174 15.8445 27.4959 16.4027 26.6699 16.4027C25.8807 16.4027 25.3609 15.8445 25.3609 15.1322ZM22.1077 27.125L20.9334 23.4482H16.8157L15.6992 27.125H13.2544L17.4124 14.1505H20.4347L24.6504 27.125H22.1077Z" fill="#F1EDE9"/>
</svg>
