<svg width="42" height="42" viewBox="0 0 42 42" fill="none" xmlns="http://www.w3.org/2000/svg">
<g clip-path="url(#clip0_125_211)">
<path d="M13.1284 0H17.6399V1.8865H15.0149V3.773H17.6399V5.6595H13.1284V0ZM18.5412 0H23.0544V1.6415H20.4294V1.96875H23.0544V5.74175H18.5412V4.01975H21.1662V3.69075H18.5412V0ZM23.9574 0H28.4672V1.6415H25.8422V1.96875H28.4672V5.74175H23.9574V4.01975H26.5824V3.69075H23.9574V0Z" fill="#F1EDE9"/>
<path fill-rule="evenodd" clip-rule="evenodd" d="M20.9843 42L8.83225 38.626L5.25 8.25476H36.75L33.1695 38.6225L20.9843 42ZM12.3322 22.0028L12.6665 25.7268H25.5763L25.144 30.5568L20.9895 31.6803H20.986L16.8385 30.5603L16.5725 27.5905H12.8328L13.3542 33.439L20.9843 35.5565L28.6265 33.439L29.5575 23.002L29.6485 22.0028L30.3205 14.462H11.662L12.0015 18.1878H26.2395L25.9 22.0028H12.3322Z" fill="#F1EDE9"/>
</g>
<defs>
<clipPath id="clip0_125_211">
<rect width="42" height="42" fill="white"/>
</clipPath>
</defs>
</svg>
