<svg width="42" height="42" viewBox="0 0 42 42" fill="none" xmlns="http://www.w3.org/2000/svg">
<path d="M21 5.25H15.75C14.3576 5.25 13.0223 5.80312 12.0377 6.78769C11.0531 7.77226 10.5 9.10761 10.5 10.5C10.5 11.8924 11.0531 13.2277 12.0377 14.2123C13.0223 15.1969 14.3576 15.75 15.75 15.75H21M21 5.25V15.75M21 5.25H26.25C27.6424 5.25 28.9777 5.80312 29.9623 6.78769C30.9469 7.77226 31.5 9.10761 31.5 10.5C31.5 11.8924 30.9469 13.2277 29.9623 14.2123C28.9777 15.1969 27.6424 15.75 26.25 15.75H21" stroke="#F1EDE9" stroke-width="1.5" stroke-linecap="round" stroke-linejoin="round"/>
<path d="M15.75 26.25C14.3576 26.25 13.0223 26.8031 12.0377 27.7877C11.0531 28.7723 10.5 30.1076 10.5 31.5C10.5 32.8924 11.0531 34.2277 12.0377 35.2123C13.0223 36.1969 14.3576 36.75 15.75 36.75C17.1424 36.75 18.4777 36.1969 19.4623 35.2123C20.4469 34.2277 21 32.8924 21 31.5V26.25M15.75 26.25H21M15.75 26.25C14.3576 26.25 13.0223 25.6969 12.0377 24.7123C11.0531 23.7277 10.5 22.3924 10.5 21C10.5 19.6076 11.0531 18.2723 12.0377 17.2877C13.0223 16.3031 14.3576 15.75 15.75 15.75H21V26.25M21 21C21 19.6076 21.5531 18.2723 22.5377 17.2877C23.5223 16.3031 24.8576 15.75 26.25 15.75C27.6424 15.75 28.9777 16.3031 29.9623 17.2877C30.9469 18.2723 31.5 19.6076 31.5 21C31.5 22.3924 30.9469 23.7277 29.9623 24.7123C28.9777 25.6969 27.6424 26.25 26.25 26.25C24.8576 26.25 23.5223 25.6969 22.5377 24.7123C21.5531 23.7277 21 22.3924 21 21Z" stroke="#F1EDE9" stroke-width="1.5" stroke-linecap="round" stroke-linejoin="round"/>
</svg>
