<svg width="42" height="42" viewBox="0 0 42 42" fill="none" xmlns="http://www.w3.org/2000/svg">
<g clip-path="url(#clip0_125_203)">
<mask id="mask0_125_203" style="mask-type:luminance" maskUnits="userSpaceOnUse" x="0" y="0" width="42" height="42">
<path d="M0 0H42V42H0V0Z" fill="white"/>
</mask>
<g mask="url(#mask0_125_203)">
<path d="M8.89014 0H10.7836V1.87075H12.5161V0H14.4096V5.663H12.5161V3.76775H10.7836V5.663H8.89189L8.89014 0ZM16.8981 1.87775H15.2321V0H20.4594V1.87775H18.7916V5.663H16.8981V1.87775ZM21.2889 0H23.2629L24.4774 1.98975L25.6901 0H27.6641V5.663H25.7794V2.856L24.4774 4.87025H24.4441L23.1404 2.85775V5.663H21.2889V0ZM28.6056 0H30.5009V3.79225H33.1609V5.66475H28.6056V0Z" fill="#F1EDE9"/>
<path fill-rule="evenodd" clip-rule="evenodd" d="M8.8305 38.626L5.25 8.25476H36.75L33.1677 38.6225L20.9825 42L8.8305 38.626ZM16.0702 22.001L15.7308 18.186H29.9845L30.317 14.462H11.662L12.6665 25.7268H25.5763L25.144 30.5568L20.9895 31.6803H20.986L16.8385 30.5603L16.5725 27.5905H12.831L13.3525 33.439L20.9825 35.5565L28.6248 33.439L29.5557 23.002L29.6467 22.0028H16.0702V22.001Z" fill="#F1EDE9"/>
</g>
</g>
<defs>
<clipPath id="clip0_125_203">
<rect width="42" height="42" fill="white"/>
</clipPath>
</defs>
</svg>
