<svg width="42" height="42" viewBox="0 0 42 42" fill="none" xmlns="http://www.w3.org/2000/svg">
<g clip-path="url(#clip0_125_214)">
<path d="M7.80346 7.36399C9.10896 8.42449 9.59896 8.34399 12.0525 8.17949L35.1787 6.79174C35.6687 6.79174 35.261 6.30174 35.0982 6.22124L31.2552 3.44399C30.5202 2.87349 29.5385 2.21899 27.659 2.38174L5.26771 4.01624C4.45221 4.09674 4.28771 4.50624 4.61321 4.83174L7.80346 7.36399ZM9.19121 12.754V37.086C9.19121 38.3932 9.84396 38.8832 11.3157 38.801L36.731 37.331C38.2027 37.2505 38.3672 36.351 38.3672 35.2887V11.1195C38.3672 10.059 37.9595 9.48674 37.0582 9.56724L10.4985 11.1195C9.51846 11.2017 9.19121 11.6935 9.19121 12.754ZM34.281 14.0577C34.4437 14.7927 34.281 15.5277 33.546 15.6117L32.321 15.8567V33.8187C31.257 34.391 30.277 34.7182 29.4597 34.7182C28.1507 34.7182 27.8235 34.3087 26.8435 33.0855L18.8337 20.51V32.676L21.3677 33.25C21.3677 33.25 21.3677 34.72 19.3237 34.72L13.6852 35.0455C13.5225 34.72 13.6852 33.9027 14.2575 33.74L15.7275 33.3322V17.2445L13.6887 17.08C13.5242 16.345 13.9337 15.2845 15.0765 15.2022L21.1245 14.7945L29.4615 27.5327V16.2627L27.3352 16.0195C27.1725 15.12 27.8252 14.4672 28.6425 14.3867L34.281 14.0577ZM3.38821 1.81124L26.6807 0.0962432C29.5402 -0.148757 30.277 0.0139931 32.0742 1.32124L39.51 6.54674C40.735 7.44449 41.1445 7.68949 41.1445 8.66949V37.331C41.1445 39.1265 40.4917 40.1905 38.2045 40.3515L11.153 41.986C9.43796 42.0682 8.61896 41.8232 7.71946 40.6787L2.24371 33.5737C1.26371 32.2665 0.855957 31.2882 0.855957 30.1437V4.66724C0.855957 3.19899 1.51046 1.97224 3.38821 1.81124Z" fill="#F1EDE9"/>
</g>
<defs>
<clipPath id="clip0_125_214">
<rect width="42" height="42" fill="white"/>
</clipPath>
</defs>
</svg>
