<svg width="42" height="42" viewBox="0 0 42 42" fill="none" xmlns="http://www.w3.org/2000/svg">
<path d="M9.18945 5.25H32.8145C33.8587 5.25 34.8603 5.66484 35.5987 6.40327C36.3371 7.14169 36.752 8.14321 36.752 9.1875V32.8125C36.752 33.8568 36.3371 34.8583 35.5987 35.5967C34.8603 36.3352 33.8587 36.75 32.8145 36.75H9.18945C8.14516 36.75 7.14364 36.3352 6.40522 35.5967C5.6668 34.8583 5.25195 33.8568 5.25195 32.8125V9.1875C5.25195 8.14321 5.6668 7.14169 6.40522 6.40327C7.14364 5.66484 8.14516 5.25 9.18945 5.25ZM23.0495 11.235V21.315C23.0495 22.358 23.8965 23.205 24.9395 23.205H30.767C31.2682 23.205 31.7489 23.0059 32.1034 22.6514C32.4578 22.297 32.657 21.8163 32.657 21.315V11.235C32.657 10.7337 32.4578 10.253 32.1034 9.89857C31.7489 9.54412 31.2682 9.345 30.767 9.345H24.9395C24.4382 9.345 23.9575 9.54412 23.603 9.89857C23.2486 10.253 23.0495 10.7337 23.0495 11.235ZM9.34695 11.235V29.19C9.34695 30.233 10.194 31.08 11.237 31.08H17.0645C17.5657 31.08 18.0464 30.8809 18.4009 30.5264C18.7553 30.172 18.9545 29.6913 18.9545 29.19V11.235C18.9545 10.7337 18.7553 10.253 18.4009 9.89857C18.0464 9.54412 17.5657 9.345 17.0645 9.345H11.237C10.7357 9.345 10.255 9.54412 9.90052 9.89857C9.54608 10.253 9.34695 10.7337 9.34695 11.235Z" fill="#F1EDE9"/>
</svg>
