<svg width="92" height="35" viewBox="0 0 92 35" fill="none" xmlns="http://www.w3.org/2000/svg">
<path d="M0.78125 34V2H13.5937C15.9479 2 17.9115 2.34896 19.4844 3.04687C21.0573 3.74479 22.2396 4.71354 23.0313 5.95312C23.8229 7.18229 24.2188 8.59896 24.2188 10.2031C24.2188 11.4531 23.9688 12.5521 23.4688 13.5C22.9688 14.4375 22.2813 15.2083 21.4063 15.8125C20.5417 16.4062 19.5521 16.8281 18.4375 17.0781V17.3906C19.6563 17.4427 20.7969 17.7865 21.8594 18.4219C22.9323 19.0573 23.8021 19.9479 24.4688 21.0937C25.1354 22.2292 25.4688 23.5833 25.4688 25.1562C25.4688 26.8542 25.0469 28.3698 24.2031 29.7031C23.3698 31.026 22.1354 32.0729 20.5 32.8437C18.8646 33.6146 16.849 34 14.4531 34H0.78125ZM7.54688 28.4687H13.0625C14.9479 28.4687 16.3229 28.1094 17.1875 27.3906C18.0521 26.6615 18.4844 25.6927 18.4844 24.4844C18.4844 23.599 18.2708 22.8177 17.8438 22.1406C17.4167 21.4635 16.8073 20.9323 16.0156 20.5469C15.2344 20.1615 14.3021 19.9687 13.2188 19.9687H7.54688V28.4687ZM7.54688 15.3906H12.5625C13.4896 15.3906 14.3125 15.2292 15.0313 14.9062C15.7604 14.5729 16.3333 14.1042 16.75 13.5C17.1771 12.8958 17.3906 12.1719 17.3906 11.3281C17.3906 10.1719 16.9792 9.23958 16.1563 8.53125C15.3438 7.82292 14.1875 7.46875 12.6875 7.46875H7.54688V15.3906ZM32.3861 34V10H39.0423V34H32.3861ZM35.7298 6.90625C34.7403 6.90625 33.8913 6.57812 33.183 5.92187C32.4851 5.25521 32.1361 4.45833 32.1361 3.53125C32.1361 2.61458 32.4851 1.82812 33.183 1.17188C33.8913 0.505207 34.7403 0.171873 35.7298 0.171873C36.7194 0.171873 37.5632 0.505207 38.2611 1.17188C38.9694 1.82812 39.3236 2.61458 39.3236 3.53125C39.3236 4.45833 38.9694 5.25521 38.2611 5.92187C37.5632 6.57812 36.7194 6.90625 35.7298 6.90625ZM53.6706 2V34H47.0144V2H53.6706ZM67.2208 2V5.375C67.2208 6.33333 67.0333 7.3125 66.6583 8.3125C66.2937 9.30208 65.8041 10.2396 65.1895 11.125C64.575 12 63.9031 12.7448 63.1739 13.3594L60.2364 11.625C60.7572 10.8021 61.2156 9.89062 61.6114 8.89062C62.0177 7.89062 62.2208 6.72916 62.2208 5.40625V2H67.2208ZM91.2553 16.8437L85.1616 17.2187C85.0574 16.6979 84.8334 16.2292 84.4897 15.8125C84.1459 15.3854 83.6928 15.0469 83.1303 14.7969C82.5782 14.5365 81.9168 14.4062 81.1459 14.4062C80.1147 14.4062 79.2449 14.625 78.5366 15.0625C77.8282 15.4896 77.4741 16.0625 77.4741 16.7812C77.4741 17.3542 77.7032 17.8385 78.1616 18.2344C78.6199 18.6302 79.4064 18.9479 80.5209 19.1875L84.8647 20.0625C87.198 20.5417 88.9376 21.3125 90.0834 22.375C91.2293 23.4375 91.8022 24.8333 91.8022 26.5625C91.8022 28.1354 91.3386 29.5156 90.4116 30.7031C89.4949 31.8906 88.2345 32.8177 86.6303 33.4844C85.0366 34.1406 83.198 34.4688 81.1147 34.4688C77.9376 34.4688 75.4064 33.8073 73.5209 32.4844C71.6459 31.151 70.547 29.3385 70.2241 27.0469L76.7709 26.7031C76.9689 27.6719 77.448 28.4115 78.2084 28.9219C78.9689 29.4219 79.9428 29.6719 81.1303 29.6719C82.297 29.6719 83.2345 29.4479 83.9428 29C84.6616 28.5417 85.0261 27.9531 85.0366 27.2344C85.0261 26.6302 84.7709 26.1354 84.2709 25.75C83.7709 25.3542 83.0001 25.0521 81.9584 24.8437L77.8022 24.0156C75.4584 23.5469 73.7136 22.7344 72.5678 21.5781C71.4324 20.4219 70.8647 18.9479 70.8647 17.1562C70.8647 15.6146 71.2814 14.2865 72.1147 13.1719C72.9584 12.0573 74.1407 11.1979 75.6616 10.5937C77.1928 9.98958 78.9845 9.6875 81.0366 9.6875C84.0678 9.6875 86.4532 10.3281 88.1928 11.6094C89.9428 12.8906 90.9636 14.6354 91.2553 16.8437Z" fill="#484848"/>
</svg>
