<svg width="486" height="266" viewBox="0 0 486 266" fill="none" xmlns="http://www.w3.org/2000/svg">
<rect width="486" height="265.03" fill="#F8F7F7"/>
<mask id="path-1-outside-1_227_296" maskUnits="userSpaceOnUse" x="191.517" y="155.896" width="103" height="56" fill="black">
<rect fill="white" x="191.517" y="155.896" width="103" height="56"/>
<path fill-rule="evenodd" clip-rule="evenodd" d="M226.247 173.124L202.517 158.896H222.267L232.163 168.983C235.05 169.237 237.315 171.705 237.315 174.713C237.315 175.889 236.969 176.983 236.375 177.894V191.968H226.97V177.894C226.375 176.983 226.029 175.889 226.029 174.713C226.029 174.162 226.105 173.629 226.247 173.124ZM259.669 173.124L283.4 158.896H263.649L253.753 168.983C250.866 169.237 248.601 171.705 248.601 174.713C248.601 175.889 248.947 176.983 249.542 177.894V191.968H258.947V177.894C259.541 176.983 259.887 175.889 259.887 174.713C259.887 174.162 259.811 173.629 259.669 173.124ZM242.772 197.24H225.482L211.922 208.743H270.233L260.062 197.24H242.772Z"/>
</mask>
<path fill-rule="evenodd" clip-rule="evenodd" d="M226.247 173.124L202.517 158.896H222.267L232.163 168.983C235.05 169.237 237.315 171.705 237.315 174.713C237.315 175.889 236.969 176.983 236.375 177.894V191.968H226.97V177.894C226.375 176.983 226.029 175.889 226.029 174.713C226.029 174.162 226.105 173.629 226.247 173.124ZM259.669 173.124L283.4 158.896H263.649L253.753 168.983C250.866 169.237 248.601 171.705 248.601 174.713C248.601 175.889 248.947 176.983 249.542 177.894V191.968H258.947V177.894C259.541 176.983 259.887 175.889 259.887 174.713C259.887 174.162 259.811 173.629 259.669 173.124ZM242.772 197.24H225.482L211.922 208.743H270.233L260.062 197.24H242.772Z" fill="#DAD7D3"/>
<path d="M202.517 158.896V156.075H192.324L201.066 161.316L202.517 158.896ZM226.247 173.124L228.963 173.889L229.547 171.813L227.698 170.704L226.247 173.124ZM222.267 158.896L224.281 156.92L223.452 156.075H222.267V158.896ZM232.163 168.983L230.149 170.959L230.879 171.703L231.916 171.794L232.163 168.983ZM236.375 177.894L234.011 176.352L233.553 177.055V177.894H236.375ZM236.375 191.968V194.789H239.196V191.968H236.375ZM226.97 191.968H224.148V194.789H226.97V191.968ZM226.97 177.894H229.791V177.055L229.333 176.352L226.97 177.894ZM283.4 158.896L284.85 161.316L293.593 156.075H283.4V158.896ZM259.669 173.124L258.218 170.704L256.369 171.813L256.953 173.889L259.669 173.124ZM263.649 158.896V156.075H262.465L261.635 156.92L263.649 158.896ZM253.753 168.983L254 171.794L255.037 171.703L255.767 170.959L253.753 168.983ZM249.542 177.894H252.363V177.055L251.905 176.352L249.542 177.894ZM249.542 191.968H246.72V194.789H249.542V191.968ZM258.947 191.968V194.789H261.768V191.968H258.947ZM258.947 177.894L256.583 176.352L256.125 177.055V177.894H258.947ZM225.482 197.24V194.418H224.447L223.657 195.088L225.482 197.24ZM211.922 208.743L210.096 206.591L204.234 211.564H211.922V208.743ZM270.233 208.743V211.564H276.493L272.346 206.874L270.233 208.743ZM260.062 197.24L262.176 195.371L261.334 194.418H260.062V197.24ZM201.066 161.316L224.796 175.544L227.698 170.704L203.967 156.477L201.066 161.316ZM222.267 156.075H202.517V161.718H222.267V156.075ZM234.177 167.007L224.281 156.92L220.253 160.872L230.149 170.959L234.177 167.007ZM240.137 174.713C240.137 170.275 236.785 166.557 232.411 166.172L231.916 171.794C233.315 171.917 234.494 173.136 234.494 174.713H240.137ZM238.738 179.435C239.624 178.077 240.137 176.45 240.137 174.713H234.494C234.494 175.328 234.314 175.888 234.011 176.352L238.738 179.435ZM239.196 191.968V177.894H233.553V191.968H239.196ZM226.97 194.789H236.375V189.146H226.97V194.789ZM224.148 177.894V191.968H229.791V177.894H224.148ZM223.208 174.713C223.208 176.45 223.72 178.077 224.606 179.435L229.333 176.352C229.03 175.888 228.851 175.328 228.851 174.713H223.208ZM223.531 172.36C223.32 173.111 223.208 173.901 223.208 174.713H228.851C228.851 174.423 228.891 174.147 228.963 173.889L223.531 172.36ZM281.949 156.477L258.218 170.704L261.12 175.544L284.85 161.316L281.949 156.477ZM263.649 161.718H283.4V156.075H263.649V161.718ZM255.767 170.959L265.663 160.872L261.635 156.92L251.739 167.007L255.767 170.959ZM251.423 174.713C251.423 173.136 252.602 171.917 254 171.794L253.506 166.172C249.131 166.557 245.78 170.275 245.78 174.713H251.423ZM251.905 176.352C251.602 175.888 251.423 175.328 251.423 174.713H245.78C245.78 176.45 246.292 178.077 247.178 179.435L251.905 176.352ZM252.363 191.968V177.894H246.72V191.968H252.363ZM258.947 189.146H249.542V194.789H258.947V189.146ZM256.125 177.894V191.968H261.768V177.894H256.125ZM257.066 174.713C257.066 175.328 256.886 175.888 256.583 176.352L261.31 179.435C262.196 178.077 262.709 176.45 262.709 174.713H257.066ZM256.953 173.889C257.026 174.147 257.066 174.423 257.066 174.713H262.709C262.709 173.901 262.596 173.111 262.385 172.36L256.953 173.889ZM225.482 200.061H242.772V194.418H225.482V200.061ZM213.747 210.895L227.307 199.392L223.657 195.088L210.096 206.591L213.747 210.895ZM270.233 205.921H211.922V211.564H270.233V205.921ZM257.948 199.109L268.119 210.612L272.346 206.874L262.176 195.371L257.948 199.109ZM242.772 200.061H260.062V194.418H242.772V200.061Z" fill="#DAD7D3" mask="url(#path-1-outside-1_227_296)"/>
<mask id="path-3-inside-2_227_296" fill="white">
<path fill-rule="evenodd" clip-rule="evenodd" d="M226.247 173.124L202.517 158.896H222.267L232.163 168.983C235.05 169.237 237.315 171.705 237.315 174.713C237.315 175.889 236.969 176.983 236.375 177.894V197.24L242.772 197.24H249.542V177.894C248.947 176.983 248.601 175.889 248.601 174.713C248.601 171.705 250.866 169.237 253.753 168.983L263.649 158.896H283.4L259.669 173.124C259.811 173.629 259.887 174.162 259.887 174.713C259.887 175.889 259.541 176.983 258.947 177.894V197.24H260.062L270.233 208.743H211.922L225.482 197.24L226.97 197.24V177.894C226.375 176.983 226.029 175.889 226.029 174.713C226.029 174.162 226.105 173.629 226.247 173.124Z"/>
</mask>
<path d="M202.517 158.896V157.956H199.119L202.033 159.703L202.517 158.896ZM226.247 173.124L227.153 173.379L227.347 172.687L226.731 172.317L226.247 173.124ZM222.267 158.896L222.938 158.238L222.662 157.956H222.267V158.896ZM232.163 168.983L231.492 169.642L231.735 169.89L232.081 169.92L232.163 168.983ZM236.375 177.894L235.587 177.38L235.434 177.614V177.894H236.375ZM236.375 197.24H235.434V198.18L236.375 198.18V197.24ZM242.772 197.24V196.299V197.24ZM249.542 197.24V198.18H250.482V197.24H249.542ZM249.542 177.894H250.482V177.614L250.329 177.38L249.542 177.894ZM253.753 168.983L253.835 169.92L254.181 169.89L254.424 169.642L253.753 168.983ZM263.649 158.896V157.956H263.254L262.978 158.238L263.649 158.896ZM283.4 158.896L283.883 159.703L286.797 157.956H283.4V158.896ZM259.669 173.124L259.185 172.317L258.569 172.687L258.764 173.379L259.669 173.124ZM258.947 177.894L258.159 177.38L258.006 177.614V177.894H258.947ZM258.947 197.24H258.006V198.18H258.947V197.24ZM260.062 197.24L260.767 196.617L260.486 196.299H260.062V197.24ZM270.233 208.743V209.683H272.32L270.937 208.12L270.233 208.743ZM211.922 208.743L211.313 208.026L209.359 209.683H211.922V208.743ZM225.482 197.24L225.482 196.299L225.137 196.299L224.874 196.523L225.482 197.24ZM226.97 197.24L226.97 198.18L227.91 198.18V197.24H226.97ZM226.97 177.894H227.91V177.614L227.757 177.38L226.97 177.894ZM202.033 159.703L225.764 173.931L226.731 172.317L203 158.09L202.033 159.703ZM222.267 157.956H202.517V159.837H222.267V157.956ZM232.835 168.324L222.938 158.238L221.596 159.555L231.492 169.642L232.835 168.324ZM238.256 174.713C238.256 171.228 235.628 168.344 232.246 168.046L232.081 169.92C234.471 170.13 236.375 172.182 236.375 174.713H238.256ZM237.162 178.407C237.854 177.347 238.256 176.076 238.256 174.713H236.375C236.375 175.702 236.084 176.618 235.587 177.38L237.162 178.407ZM237.315 197.24V177.894H235.434V197.24H237.315ZM236.375 198.18L242.772 198.18V196.299L236.375 196.299V198.18ZM242.772 198.18H249.542V196.299H242.772V198.18ZM250.482 197.24V177.894H248.601V197.24H250.482ZM250.329 177.38C249.832 176.618 249.542 175.702 249.542 174.713H247.661C247.661 176.076 248.062 177.347 248.754 178.407L250.329 177.38ZM249.542 174.713C249.542 172.182 251.445 170.13 253.835 169.92L253.67 168.046C250.288 168.344 247.661 171.228 247.661 174.713H249.542ZM254.424 169.642L264.32 159.555L262.978 158.238L253.081 168.324L254.424 169.642ZM263.649 159.837H283.4V157.956H263.649V159.837ZM282.916 158.09L259.185 172.317L260.153 173.931L283.883 159.703L282.916 158.09ZM258.764 173.379C258.883 173.801 258.947 174.249 258.947 174.713H260.828C260.828 174.075 260.739 173.456 260.574 172.869L258.764 173.379ZM258.947 174.713C258.947 175.702 258.656 176.618 258.159 177.38L259.734 178.407C260.426 177.347 260.828 176.076 260.828 174.713H258.947ZM258.006 177.894V197.24H259.887V177.894H258.006ZM258.947 198.18H260.062V196.299H258.947V198.18ZM259.357 197.863L269.528 209.366L270.937 208.12L260.767 196.617L259.357 197.863ZM270.233 207.802H211.922V209.683H270.233V207.802ZM212.53 209.46L226.091 197.957L224.874 196.523L211.313 208.026L212.53 209.46ZM225.482 198.18L226.97 198.18L226.97 196.299L225.482 196.299L225.482 198.18ZM226.029 177.894V197.24H227.91V177.894H226.029ZM225.089 174.713C225.089 176.076 225.49 177.347 226.182 178.407L227.757 177.38C227.26 176.618 226.97 175.702 226.97 174.713H225.089ZM225.342 172.869C225.177 173.456 225.089 174.075 225.089 174.713H226.97C226.97 174.249 227.034 173.801 227.153 173.379L225.342 172.869Z" fill="#658864" mask="url(#path-3-inside-2_227_296)"/>
<path d="M27.3362 15.661L231.237 20.2822C234.328 20.3523 236.798 22.8785 236.798 25.9708V151.141C236.798 154.221 234.347 156.742 231.269 156.829L27.3684 162.605C24.1641 162.696 21.5173 160.123 21.5173 156.918V21.3496C21.5173 18.1566 24.1441 15.5887 27.3362 15.661Z" fill="#EAE4DF" stroke="#658864" stroke-width="1.03455"/>
<path d="M231.286 18.1196L27.3852 13.4984C22.9795 13.3986 19.3541 16.9427 19.3541 21.3496V156.918C19.3541 161.342 23.0071 164.893 27.4297 164.768L231.33 158.991C235.579 158.871 238.961 155.392 238.961 151.141V25.9708C238.961 21.7029 235.552 18.2163 231.286 18.1196Z" stroke="#EAE4DF" stroke-width="3.29175"/>
<path d="M458.58 15.6604L254.68 20.2615C251.588 20.3313 249.118 22.8576 249.118 25.9501V150.522C249.118 153.602 251.569 156.123 254.648 156.21L458.548 161.961C461.752 162.052 464.399 159.479 464.399 156.274V21.3489C464.399 18.1562 461.772 15.5883 458.58 15.6604Z" fill="#EAE4DF" stroke="#658864" stroke-width="1.03455"/>
<path d="M254.631 18.0989L458.532 13.4978C462.937 13.3984 466.562 16.9424 466.562 21.3489V156.274C466.562 160.698 462.909 164.248 458.487 164.124L254.587 158.372C250.338 158.252 246.955 154.773 246.955 150.522V25.9501C246.955 21.6819 250.364 18.1952 254.631 18.0989Z" stroke="#EAE4DF" stroke-width="3.29175"/>
<path d="M27.3366 15.6614L231.237 20.2949C234.328 20.3652 236.798 22.8913 236.798 25.9835V136.769L21.5173 141.05V21.35C21.5173 18.1568 24.1443 15.5889 27.3366 15.6614Z" fill="#EFEBE6" stroke="#658864" stroke-width="1.03455"/>
<path d="M458.58 15.6608L254.68 20.2741C251.588 20.3441 249.118 22.8703 249.118 25.9627V136.237L464.399 140.499V21.3493C464.399 18.1564 461.772 15.5885 458.58 15.6608Z" fill="#EFEBE6" stroke="#658864" stroke-width="1.03455"/>
<path d="M156.583 253.579L155.5 250H271.5L270.822 253.392C270.635 254.327 269.814 255 268.86 255H158.497C157.616 255 156.838 254.423 156.583 253.579Z" fill="#DAD7D3"/>
<path d="M260.456 222H166.193C165.319 222 164.546 222.568 164.284 223.402L156.453 248.402C156.049 249.69 157.011 251 158.361 251H268.621C269.981 251 270.945 249.672 270.523 248.379L262.357 223.379C262.088 222.556 261.321 222 260.456 222Z" fill="#EAE4DF" stroke="#EAE4DF" stroke-width="2"/>
<path d="M166.193 223.25H260.456C260.78 223.25 261.068 223.459 261.169 223.767L269.334 248.767C269.493 249.252 269.131 249.75 268.621 249.75H158.361C157.855 249.75 157.494 249.259 157.645 248.776L165.477 223.776C165.575 223.463 165.865 223.25 166.193 223.25Z" stroke="#658864" stroke-width="0.5"/>
<path d="M166.847 225.125H173.5C173.983 225.125 174.375 225.517 174.375 226V227C174.375 227.483 173.983 227.875 173.5 227.875H166.68C166.14 227.875 165.728 227.389 165.817 226.856L165.984 225.856C166.054 225.434 166.419 225.125 166.847 225.125Z" fill="#EFEBE6" stroke="#658864" stroke-width="0.25"/>
<rect x="175.875" y="225.125" width="4.75" height="2.75" rx="0.875" fill="#EFEBE6" stroke="#658864" stroke-width="0.25"/>
<rect x="182.125" y="225.125" width="5.75" height="2.75" rx="0.875" fill="#EFEBE6" stroke="#658864" stroke-width="0.25"/>
<rect x="189.375" y="225.125" width="4.75" height="2.75" rx="0.875" fill="#EFEBE6" stroke="#658864" stroke-width="0.25"/>
<rect x="195.625" y="225.125" width="4.75" height="2.75" rx="0.875" fill="#EFEBE6" stroke="#658864" stroke-width="0.25"/>
<rect x="201.875" y="225.125" width="4.75" height="2.75" rx="0.875" fill="#EFEBE6" stroke="#658864" stroke-width="0.25"/>
<rect x="208.125" y="225.125" width="4.75" height="2.75" rx="0.875" fill="#EFEBE6" stroke="#658864" stroke-width="0.25"/>
<rect x="214.375" y="225.125" width="5.75" height="2.75" rx="0.875" fill="#EFEBE6" stroke="#658864" stroke-width="0.25"/>
<rect x="221.625" y="225.125" width="4.75" height="2.75" rx="0.875" fill="#EFEBE6" stroke="#658864" stroke-width="0.25"/>
<rect x="227.875" y="225.125" width="4.75" height="2.75" rx="0.875" fill="#EFEBE6" stroke="#658864" stroke-width="0.25"/>
<rect x="234.125" y="225.125" width="4.75" height="2.75" rx="0.875" fill="#EFEBE6" stroke="#658864" stroke-width="0.25"/>
<rect x="240.375" y="225.125" width="4.75" height="2.75" rx="0.875" fill="#EFEBE6" stroke="#658864" stroke-width="0.25"/>
<rect x="246.625" y="225.125" width="5.75" height="2.75" rx="0.875" fill="#EFEBE6" stroke="#658864" stroke-width="0.25"/>
<path d="M254.75 225.125H258.969C259.371 225.125 259.721 225.398 259.818 225.788L260.068 226.788C260.206 227.34 259.788 227.875 259.219 227.875H254.75C254.267 227.875 253.875 227.483 253.875 227V226C253.875 225.517 254.267 225.125 254.75 225.125Z" fill="#EFEBE6" stroke="#658864" stroke-width="0.25"/>
<path d="M166.221 229.125H171C171.483 229.125 171.875 229.517 171.875 230V231C171.875 231.483 171.483 231.875 171 231.875H165.887C165.29 231.875 164.868 231.29 165.057 230.723L165.391 229.723C165.51 229.366 165.844 229.125 166.221 229.125Z" fill="#EFEBE6" stroke="#658864" stroke-width="0.25"/>
<rect x="173.375" y="229.125" width="5.75" height="2.75" rx="0.875" fill="#EFEBE6" stroke="#658864" stroke-width="0.25"/>
<rect x="180.625" y="229.125" width="4.75" height="2.75" rx="0.875" fill="#EFEBE6" stroke="#658864" stroke-width="0.25"/>
<rect x="186.875" y="229.125" width="5.75" height="2.75" rx="0.875" fill="#EFEBE6" stroke="#658864" stroke-width="0.25"/>
<rect x="194.125" y="229.125" width="4.75" height="2.75" rx="0.875" fill="#EFEBE6" stroke="#658864" stroke-width="0.25"/>
<rect x="200.375" y="229.125" width="4.75" height="2.75" rx="0.875" fill="#EFEBE6" stroke="#658864" stroke-width="0.25"/>
<rect x="206.625" y="229.125" width="5.75" height="2.75" rx="0.875" fill="#EFEBE6" stroke="#658864" stroke-width="0.25"/>
<rect x="213.875" y="229.125" width="4.75" height="2.75" rx="0.875" fill="#EFEBE6" stroke="#658864" stroke-width="0.25"/>
<rect x="220.125" y="229.125" width="5.75" height="2.75" rx="0.875" fill="#EFEBE6" stroke="#658864" stroke-width="0.25"/>
<rect x="227.375" y="229.125" width="4.75" height="2.75" rx="0.875" fill="#EFEBE6" stroke="#658864" stroke-width="0.25"/>
<rect x="233.625" y="229.125" width="4.75" height="2.75" rx="0.875" fill="#EFEBE6" stroke="#658864" stroke-width="0.25"/>
<rect x="239.875" y="229.125" width="5.75" height="2.75" rx="0.875" fill="#EFEBE6" stroke="#658864" stroke-width="0.25"/>
<rect x="247.125" y="229.125" width="4.75" height="2.75" rx="0.875" fill="#EFEBE6" stroke="#658864" stroke-width="0.25"/>
<path d="M254.25 229.125H260.653C261.081 229.125 261.446 229.434 261.516 229.856L261.683 230.856C261.772 231.389 261.36 231.875 260.82 231.875H254.25C253.767 231.875 253.375 231.483 253.375 231V230C253.375 229.517 253.767 229.125 254.25 229.125Z" fill="#EFEBE6" stroke="#658864" stroke-width="0.25"/>
<path d="M164.721 233.125H172C172.483 233.125 172.875 233.517 172.875 234V235C172.875 235.483 172.483 235.875 172 235.875H164.387C163.79 235.875 163.368 235.29 163.557 234.723L163.891 233.723C164.01 233.366 164.344 233.125 164.721 233.125Z" fill="#EFEBE6" stroke="#658864" stroke-width="0.25"/>
<rect x="174.375" y="233.125" width="4.75" height="2.75" rx="0.875" fill="#EFEBE6" stroke="#658864" stroke-width="0.25"/>
<rect x="180.625" y="233.125" width="5.75" height="2.75" rx="0.875" fill="#EFEBE6" stroke="#658864" stroke-width="0.25"/>
<rect x="187.875" y="233.125" width="4.75" height="2.75" rx="0.875" fill="#EFEBE6" stroke="#658864" stroke-width="0.25"/>
<rect x="194.125" y="233.125" width="4.75" height="2.75" rx="0.875" fill="#EFEBE6" stroke="#658864" stroke-width="0.25"/>
<rect x="200.375" y="233.125" width="4.75" height="2.75" rx="0.875" fill="#EFEBE6" stroke="#658864" stroke-width="0.25"/>
<rect x="206.625" y="233.125" width="4.75" height="2.75" rx="0.875" fill="#EFEBE6" stroke="#658864" stroke-width="0.25"/>
<rect x="212.875" y="233.125" width="5.75" height="2.75" rx="0.875" fill="#EFEBE6" stroke="#658864" stroke-width="0.25"/>
<rect x="220.125" y="233.125" width="4.75" height="2.75" rx="0.875" fill="#EFEBE6" stroke="#658864" stroke-width="0.25"/>
<rect x="226.375" y="233.125" width="4.75" height="2.75" rx="0.875" fill="#EFEBE6" stroke="#658864" stroke-width="0.25"/>
<rect x="232.625" y="233.125" width="4.75" height="2.75" rx="0.875" fill="#EFEBE6" stroke="#658864" stroke-width="0.25"/>
<rect x="238.875" y="233.125" width="4.75" height="2.75" rx="0.875" fill="#EFEBE6" stroke="#658864" stroke-width="0.25"/>
<rect x="245.125" y="233.125" width="5.75" height="2.75" rx="0.875" fill="#EFEBE6" stroke="#658864" stroke-width="0.25"/>
<path d="M253.25 233.125H262.469C262.871 233.125 263.221 233.398 263.318 233.788L263.568 234.788C263.706 235.34 263.288 235.875 262.719 235.875H253.25C252.767 235.875 252.375 235.483 252.375 235V234C252.375 233.517 252.767 233.125 253.25 233.125Z" fill="#EFEBE6" stroke="#658864" stroke-width="0.25"/>
<path d="M163.458 237.125H176C176.483 237.125 176.875 237.517 176.875 238V239C176.875 239.483 176.483 239.875 176 239.875H163.241C162.683 239.875 162.267 239.36 162.386 238.814L162.603 237.814C162.691 237.412 163.047 237.125 163.458 237.125Z" fill="#EFEBE6" stroke="#658864" stroke-width="0.25"/>
<rect x="178.375" y="237.125" width="4.75" height="2.75" rx="0.875" fill="#EFEBE6" stroke="#658864" stroke-width="0.25"/>
<rect x="184.625" y="237.125" width="4.75" height="2.75" rx="0.875" fill="#EFEBE6" stroke="#658864" stroke-width="0.25"/>
<rect x="190.875" y="237.125" width="4.75" height="2.75" rx="0.875" fill="#EFEBE6" stroke="#658864" stroke-width="0.25"/>
<rect x="197.125" y="237.125" width="4.75" height="2.75" rx="0.875" fill="#EFEBE6" stroke="#658864" stroke-width="0.25"/>
<rect x="203.375" y="237.125" width="5.75" height="2.75" rx="0.875" fill="#EFEBE6" stroke="#658864" stroke-width="0.25"/>
<rect x="210.625" y="237.125" width="4.75" height="2.75" rx="0.875" fill="#EFEBE6" stroke="#658864" stroke-width="0.25"/>
<rect x="216.875" y="237.125" width="4.75" height="2.75" rx="0.875" fill="#EFEBE6" stroke="#658864" stroke-width="0.25"/>
<rect x="223.125" y="237.125" width="4.75" height="2.75" rx="0.875" fill="#EFEBE6" stroke="#658864" stroke-width="0.25"/>
<rect x="229.375" y="237.125" width="4.75" height="2.75" rx="0.875" fill="#EFEBE6" stroke="#658864" stroke-width="0.25"/>
<rect x="235.625" y="237.125" width="5.75" height="2.75" rx="0.875" fill="#EFEBE6" stroke="#658864" stroke-width="0.25"/>
<rect x="242.875" y="237.125" width="4.75" height="2.75" rx="0.875" fill="#EFEBE6" stroke="#658864" stroke-width="0.25"/>
<rect x="249.125" y="237.125" width="4.75" height="2.75" rx="0.875" fill="#EFEBE6" stroke="#658864" stroke-width="0.25"/>
<path d="M256.25 237.125H263.87C264.293 237.125 264.655 237.427 264.731 237.843L264.913 238.843C265.01 239.381 264.598 239.875 264.052 239.875H256.25C255.767 239.875 255.375 239.483 255.375 239V238C255.375 237.517 255.767 237.125 256.25 237.125Z" fill="#EFEBE6" stroke="#658864" stroke-width="0.25"/>
<path d="M162.221 241.125H172C172.483 241.125 172.875 241.517 172.875 242V243C172.875 243.483 172.483 243.875 172 243.875H161.679C161.016 243.875 160.594 243.166 160.91 242.583L161.451 241.583C161.604 241.301 161.899 241.125 162.221 241.125Z" fill="#EFEBE6" stroke="#658864" stroke-width="0.25"/>
<rect x="174.375" y="241.125" width="4.75" height="2.75" rx="0.875" fill="#EFEBE6" stroke="#658864" stroke-width="0.25"/>
<rect x="180.625" y="241.125" width="4.75" height="2.75" rx="0.875" fill="#EFEBE6" stroke="#658864" stroke-width="0.25"/>
<rect x="186.875" y="241.125" width="4.75" height="2.75" rx="0.875" fill="#EFEBE6" stroke="#658864" stroke-width="0.25"/>
<rect x="193.125" y="241.125" width="5.75" height="2.75" rx="0.875" fill="#EFEBE6" stroke="#658864" stroke-width="0.25"/>
<rect x="200.375" y="241.125" width="4.75" height="2.75" rx="0.875" fill="#EFEBE6" stroke="#658864" stroke-width="0.25"/>
<rect x="206.625" y="241.125" width="5.75" height="2.75" rx="0.875" fill="#EFEBE6" stroke="#658864" stroke-width="0.25"/>
<rect x="213.875" y="241.125" width="4.75" height="2.75" rx="0.875" fill="#EFEBE6" stroke="#658864" stroke-width="0.25"/>
<rect x="220.125" y="241.125" width="4.75" height="2.75" rx="0.875" fill="#EFEBE6" stroke="#658864" stroke-width="0.25"/>
<rect x="226.375" y="241.125" width="5.75" height="2.75" rx="0.875" fill="#EFEBE6" stroke="#658864" stroke-width="0.25"/>
<rect x="233.625" y="241.125" width="4.75" height="2.75" rx="0.875" fill="#EFEBE6" stroke="#658864" stroke-width="0.25"/>
<rect x="239.875" y="241.125" width="5.75" height="2.75" rx="0.875" fill="#EFEBE6" stroke="#658864" stroke-width="0.25"/>
<path d="M248 241.125H264.598C265.018 241.125 265.378 241.423 265.457 241.835L265.649 242.835C265.753 243.375 265.339 243.875 264.79 243.875H248C247.517 243.875 247.125 243.483 247.125 243V242C247.125 241.517 247.517 241.125 248 241.125Z" fill="#EFEBE6" stroke="#658864" stroke-width="0.25"/>
<path d="M161.221 245.125H164.5C164.983 245.125 165.375 245.517 165.375 246V247C165.375 247.483 164.983 247.875 164.5 247.875H160.887C160.29 247.875 159.868 247.29 160.057 246.723L160.391 245.723C160.51 245.366 160.844 245.125 161.221 245.125Z" fill="#EFEBE6" stroke="#658864" stroke-width="0.25"/>
<rect x="166.875" y="245.125" width="9.75" height="2.75" rx="0.875" fill="#EFEBE6" stroke="#658864" stroke-width="0.25"/>
<rect x="178.125" y="245.125" width="4.75" height="2.75" rx="0.875" fill="#EFEBE6" stroke="#658864" stroke-width="0.25"/>
<rect x="184.375" y="245.125" width="10.75" height="2.75" rx="0.875" fill="#EFEBE6" stroke="#658864" stroke-width="0.25"/>
<rect x="196.625" y="245.125" width="30.75" height="2.75" rx="0.875" fill="#EFEBE6" stroke="#658864" stroke-width="0.25"/>
<rect x="228.875" y="245.125" width="10.75" height="2.75" rx="0.875" fill="#EFEBE6" stroke="#658864" stroke-width="0.25"/>
<rect x="241.125" y="245.125" width="4.75" height="2.75" rx="0.875" fill="#EFEBE6" stroke="#658864" stroke-width="0.25"/>
<rect x="247.375" y="245.125" width="4.75" height="2.75" rx="0.875" fill="#EFEBE6" stroke="#658864" stroke-width="0.25"/>
<rect x="253.625" y="245.125" width="5.75" height="2.75" rx="0.875" fill="#EFEBE6" stroke="#658864" stroke-width="0.25"/>
<path d="M261.75 245.125H264.969C265.371 245.125 265.721 245.398 265.818 245.788L266.068 246.788C266.206 247.34 265.788 247.875 265.219 247.875H261.75C261.267 247.875 260.875 247.483 260.875 247V246C260.875 245.517 261.267 245.125 261.75 245.125Z" fill="#EFEBE6" stroke="#658864" stroke-width="0.25"/>
<path d="M303.118 234.272C303.404 235.127 304.166 235.984 304.943 236.748C305.573 237.368 306.329 238.035 307.089 238.705C307.307 238.897 307.526 239.091 307.743 239.283C308.731 240.161 309.686 241.042 310.45 241.907C311.227 242.788 311.723 243.563 311.902 244.219C312.212 245.355 312.571 246.328 313.105 247.125C313.657 247.948 314.367 248.543 315.305 248.967C316.215 249.378 317.318 249.618 318.649 249.785C319.984 249.953 321.619 250.054 323.617 250.154C327.79 250.363 331.163 249.228 333.04 246.94C334.961 244.599 335.082 241.349 333.361 237.908C330.027 231.239 324.978 228.245 321.084 227.379C319.178 226.956 316.43 226.957 314.208 227.051C311.309 227.173 308.328 227.884 305.863 229.654C305.095 230.205 304.313 230.861 303.768 231.575C303.24 232.264 302.771 233.229 303.118 234.272Z" fill="#EAE4DF" stroke="#EAE4DF" stroke-width="2"/>
<path d="M313.156 243.877C312.898 242.929 312.241 241.972 311.424 241.047C310.604 240.117 309.597 239.192 308.606 238.311C308.379 238.109 308.153 237.91 307.93 237.713C307.175 237.048 306.457 236.414 305.855 235.822C305.064 235.044 304.526 234.384 304.352 233.861C304.21 233.436 304.363 232.936 304.8 232.365C305.231 231.801 305.893 231.233 306.621 230.71C308.816 229.134 311.524 228.465 314.263 228.35C316.486 228.255 319.08 228.266 320.802 228.648C324.314 229.429 329.039 232.171 332.199 238.49C333.763 241.617 333.539 244.283 332.035 246.115C330.518 247.964 327.63 249.053 323.682 248.856C321.682 248.756 320.092 248.656 318.811 248.495C317.528 248.334 316.575 248.114 315.84 247.782C315.114 247.454 314.596 247.015 314.185 246.401C313.768 245.779 313.453 244.966 313.156 243.877Z" stroke="#658864" stroke-width="0.6"/>
<path opacity="0.5" d="M310 229C311.167 229.333 313.588 230.059 315 231C316.5 232 318.5 234 319 234.5" stroke="#658864" stroke-width="0.8"/>
</svg>
