<svg width="486" height="266" viewBox="0 0 486 266" fill="none" xmlns="http://www.w3.org/2000/svg">
<rect width="486" height="265.03" fill="#F8F7F7"/>
<path d="M142.6 113.4L140.8 111.6L137.2 107.8L77.4 153.4L81.4 159L82.6 160.2L142.6 113.4Z" fill="#DAD7D3" stroke="#DAD7D3" stroke-width="2"/>
<path d="M29.6697 97.5522L28.6294 98.2028L29.4765 99.0904L83.8765 156.09L84.5019 156.746L85.2157 156.188L141.016 112.588L141.949 111.858L141.073 111.061L87.4732 62.2606L86.9125 61.7501L86.2697 62.1522L29.6697 97.5522Z" fill="#EFEBE6" stroke="#EFEBE6" stroke-width="2"/>
<path d="M139.79 111.786L84.4357 157.651L29.8235 98.8834L86.7543 63.4994L139.79 111.786Z" stroke="#658864" stroke-width="0.8"/>
<path d="M29.4371 103.485L30.4198 99.2263L84.4997 157.648L82.3378 161.141L29.4371 103.485Z" fill="#EAE4DF" stroke="#658864" stroke-width="0.8"/>
<path d="M207.501 91.2515H205.751V93.0015V108.001C205.751 113.11 209.892 117.251 215.001 117.251H273.501C278.61 117.251 282.751 113.11 282.751 108.001V93.0015V91.2515H281.001H207.501Z" fill="#DAD7D3" stroke="#DAD7D3" stroke-width="3.5"/>
<path d="M208.001 93.5015H280.501V108.001C280.501 111.867 277.367 115.001 273.501 115.001H215.001C211.135 115.001 208.001 111.867 208.001 108.001V93.5015Z" stroke="#658864"/>
<path d="M423.102 10.25H76.6289C71.4422 10.25 68.1934 15.8566 70.7727 20.3566L110.6 89.843C112.694 93.4965 116.583 95.75 120.794 95.75H371.93C375.838 95.75 379.49 93.8068 381.674 90.5657L428.7 20.7718C431.721 16.2883 428.508 10.25 423.102 10.25Z" fill="#EAE4DF" stroke="#EAE4DF" stroke-width="3.5"/>
<path d="M78.3547 12.5H421.222C425.628 12.5 428.245 17.4201 425.784 21.0733L379.808 89.3084C378.043 91.9289 375.09 93.5 371.93 93.5H120.794C117.39 93.5 114.245 91.678 112.552 88.7242L73.583 20.735C71.4814 17.0684 74.1285 12.5 78.3547 12.5Z" stroke="#658864"/>
<path d="M76.6159 12.5H421.211C425.618 12.5 428.235 17.4242 425.77 21.0771L384.984 81.5H108.29L72.7088 19.2326C70.9945 16.2327 73.1607 12.5 76.6159 12.5Z" fill="#EFEBE6" stroke="#658864"/>
<rect x="343.75" y="114.75" width="113.5" height="48.5" rx="3.25" fill="#EAE4DF" stroke="#EAE4DF" stroke-width="2.5"/>
<rect x="345.5" y="116.5" width="110" height="45" rx="1.5" stroke="#658864"/>
<rect x="348.125" y="118.625" width="9.75" height="5.75" rx="0.875" fill="#DAD7D3" stroke="#658864" stroke-width="0.25"/>
<rect x="359.375" y="118.625" width="5.75" height="5.75" rx="0.875" fill="#DAD7D3" stroke="#658864" stroke-width="0.25"/>
<rect x="366.625" y="118.625" width="5.75" height="5.75" rx="0.875" fill="#DAD7D3" stroke="#658864" stroke-width="0.25"/>
<rect x="373.875" y="118.625" width="5.75" height="5.75" rx="0.875" fill="#DAD7D3" stroke="#658864" stroke-width="0.25"/>
<rect x="381.125" y="118.625" width="5.75" height="5.75" rx="0.875" fill="#DAD7D3" stroke="#658864" stroke-width="0.25"/>
<rect x="388.375" y="118.625" width="5.75" height="5.75" rx="0.875" fill="#DAD7D3" stroke="#658864" stroke-width="0.25"/>
<rect x="395.625" y="118.625" width="5.75" height="5.75" rx="0.875" fill="#DAD7D3" stroke="#658864" stroke-width="0.25"/>
<rect x="402.875" y="118.625" width="5.75" height="5.75" rx="0.875" fill="#DAD7D3" stroke="#658864" stroke-width="0.25"/>
<rect x="410.125" y="118.625" width="5.75" height="5.75" rx="0.875" fill="#DAD7D3" stroke="#658864" stroke-width="0.25"/>
<rect x="417.375" y="118.625" width="5.75" height="5.75" rx="0.875" fill="#DAD7D3" stroke="#658864" stroke-width="0.25"/>
<rect x="424.625" y="118.625" width="5.75" height="5.75" rx="0.875" fill="#DAD7D3" stroke="#658864" stroke-width="0.25"/>
<rect x="431.875" y="118.625" width="5.75" height="5.75" rx="0.875" fill="#DAD7D3" stroke="#658864" stroke-width="0.25"/>
<rect x="439.125" y="118.625" width="5.75" height="5.75" rx="0.875" fill="#DAD7D3" stroke="#658864" stroke-width="0.25"/>
<rect x="446.375" y="118.625" width="6.25" height="5.75" rx="0.875" fill="#DAD7D3" stroke="#658864" stroke-width="0.25"/>
<rect x="348.125" y="125.625" width="5.75" height="5.75" rx="0.875" fill="#DAD7D3" stroke="#658864" stroke-width="0.25"/>
<rect x="355.375" y="125.625" width="5.75" height="5.75" rx="0.875" fill="#DAD7D3" stroke="#658864" stroke-width="0.25"/>
<rect x="362.625" y="125.625" width="5.75" height="5.75" rx="0.875" fill="#DAD7D3" stroke="#658864" stroke-width="0.25"/>
<rect x="369.875" y="125.625" width="5.75" height="5.75" rx="0.875" fill="#DAD7D3" stroke="#658864" stroke-width="0.25"/>
<rect x="377.125" y="125.625" width="5.75" height="5.75" rx="0.875" fill="#DAD7D3" stroke="#658864" stroke-width="0.25"/>
<rect x="384.375" y="125.625" width="5.75" height="5.75" rx="0.875" fill="#DAD7D3" stroke="#658864" stroke-width="0.25"/>
<rect x="391.625" y="125.625" width="5.75" height="5.75" rx="0.875" fill="#DAD7D3" stroke="#658864" stroke-width="0.25"/>
<rect x="398.875" y="125.625" width="5.75" height="5.75" rx="0.875" fill="#DAD7D3" stroke="#658864" stroke-width="0.25"/>
<rect x="406.125" y="125.625" width="5.75" height="5.75" rx="0.875" fill="#DAD7D3" stroke="#658864" stroke-width="0.25"/>
<rect x="413.375" y="125.625" width="5.75" height="5.75" rx="0.875" fill="#DAD7D3" stroke="#658864" stroke-width="0.25"/>
<rect x="420.625" y="125.625" width="5.75" height="5.75" rx="0.875" fill="#DAD7D3" stroke="#658864" stroke-width="0.25"/>
<rect x="427.875" y="125.625" width="5.75" height="5.75" rx="0.875" fill="#DAD7D3" stroke="#658864" stroke-width="0.25"/>
<rect x="435.125" y="125.625" width="5.75" height="5.75" rx="0.875" fill="#DAD7D3" stroke="#658864" stroke-width="0.25"/>
<rect x="442.375" y="125.625" width="10.25" height="5.75" rx="0.875" fill="#DAD7D3" stroke="#658864" stroke-width="0.25"/>
<rect x="348.125" y="132.625" width="9.75" height="5.75" rx="0.875" fill="#DAD7D3" stroke="#658864" stroke-width="0.25"/>
<rect x="359.375" y="132.625" width="5.75" height="5.75" rx="0.875" fill="#DAD7D3" stroke="#658864" stroke-width="0.25"/>
<rect x="366.625" y="132.625" width="5.75" height="5.75" rx="0.875" fill="#DAD7D3" stroke="#658864" stroke-width="0.25"/>
<rect x="373.875" y="132.625" width="5.75" height="5.75" rx="0.875" fill="#DAD7D3" stroke="#658864" stroke-width="0.25"/>
<rect x="381.125" y="132.625" width="5.75" height="5.75" rx="0.875" fill="#DAD7D3" stroke="#658864" stroke-width="0.25"/>
<rect x="388.375" y="132.625" width="5.75" height="5.75" rx="0.875" fill="#DAD7D3" stroke="#658864" stroke-width="0.25"/>
<rect x="395.625" y="132.625" width="5.75" height="5.75" rx="0.875" fill="#DAD7D3" stroke="#658864" stroke-width="0.25"/>
<rect x="402.875" y="132.625" width="5.75" height="5.75" rx="0.875" fill="#DAD7D3" stroke="#658864" stroke-width="0.25"/>
<rect x="410.125" y="132.625" width="5.75" height="5.75" rx="0.875" fill="#DAD7D3" stroke="#658864" stroke-width="0.25"/>
<rect x="417.375" y="132.625" width="5.75" height="5.75" rx="0.875" fill="#DAD7D3" stroke="#658864" stroke-width="0.25"/>
<rect x="424.625" y="132.625" width="5.75" height="5.75" rx="0.875" fill="#DAD7D3" stroke="#658864" stroke-width="0.25"/>
<rect x="431.875" y="132.625" width="5.75" height="5.75" rx="0.875" fill="#DAD7D3" stroke="#658864" stroke-width="0.25"/>
<rect x="439.125" y="132.625" width="5.75" height="5.75" rx="0.875" fill="#DAD7D3" stroke="#658864" stroke-width="0.25"/>
<rect x="446.375" y="132.625" width="6.25" height="5.75" rx="0.875" fill="#DAD7D3" stroke="#658864" stroke-width="0.25"/>
<rect x="348.125" y="139.625" width="11.75" height="5.75" rx="0.875" fill="#DAD7D3" stroke="#658864" stroke-width="0.25"/>
<rect x="361.375" y="139.625" width="5.75" height="5.75" rx="0.875" fill="#DAD7D3" stroke="#658864" stroke-width="0.25"/>
<rect x="368.625" y="139.625" width="5.75" height="5.75" rx="0.875" fill="#DAD7D3" stroke="#658864" stroke-width="0.25"/>
<rect x="375.875" y="139.625" width="5.75" height="5.75" rx="0.875" fill="#DAD7D3" stroke="#658864" stroke-width="0.25"/>
<rect x="383.125" y="139.625" width="5.75" height="5.75" rx="0.875" fill="#DAD7D3" stroke="#658864" stroke-width="0.25"/>
<rect x="390.375" y="139.625" width="5.75" height="5.75" rx="0.875" fill="#DAD7D3" stroke="#658864" stroke-width="0.25"/>
<rect x="397.625" y="139.625" width="5.75" height="5.75" rx="0.875" fill="#DAD7D3" stroke="#658864" stroke-width="0.25"/>
<rect x="404.875" y="139.625" width="5.75" height="5.75" rx="0.875" fill="#DAD7D3" stroke="#658864" stroke-width="0.25"/>
<rect x="412.125" y="139.625" width="5.75" height="5.75" rx="0.875" fill="#DAD7D3" stroke="#658864" stroke-width="0.25"/>
<rect x="419.375" y="139.625" width="5.75" height="5.75" rx="0.875" fill="#DAD7D3" stroke="#658864" stroke-width="0.25"/>
<rect x="426.625" y="139.625" width="5.75" height="5.75" rx="0.875" fill="#DAD7D3" stroke="#658864" stroke-width="0.25"/>
<rect x="433.875" y="139.625" width="5.75" height="5.75" rx="0.875" fill="#DAD7D3" stroke="#658864" stroke-width="0.25"/>
<rect x="441.125" y="139.625" width="5.75" height="5.75" rx="0.875" fill="#DAD7D3" stroke="#658864" stroke-width="0.25"/>
<rect x="448.375" y="139.625" width="4.25" height="5.75" rx="0.875" fill="#DAD7D3" stroke="#658864" stroke-width="0.25"/>
<rect x="348.125" y="146.625" width="7.75" height="5.75" rx="0.875" fill="#DAD7D3" stroke="#658864" stroke-width="0.25"/>
<rect x="357.375" y="146.625" width="5.75" height="5.75" rx="0.875" fill="#DAD7D3" stroke="#658864" stroke-width="0.25"/>
<rect x="364.625" y="146.625" width="5.75" height="5.75" rx="0.875" fill="#DAD7D3" stroke="#658864" stroke-width="0.25"/>
<rect x="371.875" y="146.625" width="5.75" height="5.75" rx="0.875" fill="#DAD7D3" stroke="#658864" stroke-width="0.25"/>
<rect x="379.125" y="146.625" width="5.75" height="5.75" rx="0.875" fill="#DAD7D3" stroke="#658864" stroke-width="0.25"/>
<rect x="386.375" y="146.625" width="5.75" height="5.75" rx="0.875" fill="#DAD7D3" stroke="#658864" stroke-width="0.25"/>
<rect x="393.625" y="146.625" width="5.75" height="5.75" rx="0.875" fill="#DAD7D3" stroke="#658864" stroke-width="0.25"/>
<rect x="400.875" y="146.625" width="5.75" height="5.75" rx="0.875" fill="#DAD7D3" stroke="#658864" stroke-width="0.25"/>
<rect x="408.125" y="146.625" width="5.75" height="5.75" rx="0.875" fill="#DAD7D3" stroke="#658864" stroke-width="0.25"/>
<rect x="415.375" y="146.625" width="5.75" height="5.75" rx="0.875" fill="#DAD7D3" stroke="#658864" stroke-width="0.25"/>
<rect x="422.625" y="146.625" width="5.75" height="5.75" rx="0.875" fill="#DAD7D3" stroke="#658864" stroke-width="0.25"/>
<rect x="429.875" y="146.625" width="5.75" height="5.75" rx="0.875" fill="#DAD7D3" stroke="#658864" stroke-width="0.25"/>
<rect x="437.125" y="146.625" width="15.25" height="5.75" rx="0.875" fill="#DAD7D3" stroke="#658864" stroke-width="0.25"/>
<rect x="348.125" y="153.625" width="5.75" height="5.75" rx="0.875" fill="#DAD7D3" stroke="#658864" stroke-width="0.25"/>
<rect x="355.375" y="153.625" width="5.75" height="5.75" rx="0.875" fill="#DAD7D3" stroke="#658864" stroke-width="0.25"/>
<rect x="362.625" y="153.625" width="5.75" height="5.75" rx="0.875" fill="#DAD7D3" stroke="#658864" stroke-width="0.25"/>
<rect x="369.875" y="153.625" width="8.25" height="5.75" rx="0.875" fill="#DAD7D3" stroke="#658864" stroke-width="0.25"/>
<rect x="379.625" y="153.625" width="35.25" height="5.75" rx="0.875" fill="#DAD7D3" stroke="#658864" stroke-width="0.25"/>
<rect x="416.375" y="153.625" width="7.75" height="5.75" rx="0.875" fill="#DAD7D3" stroke="#658864" stroke-width="0.25"/>
<rect x="425.625" y="153.625" width="5.75" height="5.75" rx="0.875" fill="#DAD7D3" stroke="#658864" stroke-width="0.25"/>
<rect x="432.875" y="153.625" width="5.75" height="5.75" rx="0.875" fill="#DAD7D3" stroke="#658864" stroke-width="0.25"/>
<rect x="440.125" y="153.625" width="5.75" height="5.75" rx="0.875" fill="#DAD7D3" stroke="#658864" stroke-width="0.25"/>
<rect x="447.375" y="153.625" width="5.25" height="5.75" rx="0.875" fill="#DAD7D3" stroke="#658864" stroke-width="0.25"/>
<rect x="154.5" y="132.5" width="173.34" height="114" fill="#EFEBE6" stroke="#EFEBE6" stroke-width="3"/>
<rect x="156.562" y="134.562" width="169.215" height="109.875" stroke="#658864" stroke-width="1.125"/>
<rect x="223.361" y="152.304" width="36.45" height="74.115" rx="4.55625" stroke="#658864" stroke-width="0.6075"/>
<path d="M233.992 156.556H240.979H248.572C249.243 156.556 249.787 156.012 249.787 155.341V154.734C249.787 154.398 250.059 154.126 250.395 154.126H254.951C256.629 154.126 257.989 155.486 257.989 157.164V220.951C257.989 222.629 256.629 223.989 254.951 223.989H228.221C226.544 223.989 225.184 222.629 225.184 220.951V157.164C225.184 155.486 226.544 154.126 228.221 154.126H232.17C232.505 154.126 232.777 154.398 232.777 154.734V155.341C232.777 156.012 233.321 156.556 233.992 156.556Z" stroke="#658864" stroke-width="0.6075"/>
<rect x="225.184" y="158.379" width="32.805" height="34.02" stroke="#658864" stroke-width="0.6075"/>
<path d="M225.184 221.255H257.989" stroke="#658864" stroke-width="0.6075"/>
<path d="M225.184 213.661H237.941L238.131 213.39C240.04 210.663 244.126 210.806 245.839 213.661V213.661H257.685" stroke="#658864" stroke-width="0.6075"/>
<path d="M245.292 216.395C245.292 218.274 243.769 219.797 241.89 219.797C240.011 219.797 238.488 218.274 238.488 216.395C238.488 214.516 240.011 212.993 241.89 212.993C243.769 212.993 245.292 214.516 245.292 216.395Z" stroke="#658864" stroke-width="0.486"/>
<path d="M233.841 217.61C233.841 218.533 233.093 219.281 232.17 219.281C231.247 219.281 230.499 218.533 230.499 217.61C230.499 216.687 231.247 215.939 232.17 215.939C233.093 215.939 233.841 216.687 233.841 217.61Z" stroke="#658864" stroke-width="0.30375"/>
<path d="M253.28 217.61C253.28 218.533 252.533 219.281 251.61 219.281C250.687 219.281 249.939 218.533 249.939 217.61C249.939 216.687 250.687 215.939 251.61 215.939C252.533 215.939 253.28 216.687 253.28 217.61Z" stroke="#658864" stroke-width="0.30375"/>
<path d="M240.067 214.573L243.712 218.218" stroke="#658864" stroke-width="0.486"/>
<path d="M240.067 218.218L243.712 214.573" stroke="#658864" stroke-width="0.486"/>
<path d="M231.259 216.699L233.081 218.521" stroke="#658864" stroke-width="0.30375"/>
<path d="M231.259 218.521L233.081 216.699" stroke="#658864" stroke-width="0.30375"/>
<path d="M250.699 216.699L252.521 218.521" stroke="#658864" stroke-width="0.30375"/>
<path d="M250.699 218.521L252.521 216.699" stroke="#658864" stroke-width="0.30375"/>
<g style="mix-blend-mode:multiply" opacity="0.55">
<path d="M228.525 196.803V195.284H228.489C228.45 195.284 228.411 195.291 228.378 195.311C228.267 195.377 228.019 195.576 228.019 196.044C228.019 196.182 227.959 196.364 227.898 196.516C227.845 196.648 227.939 196.803 228.083 196.803H228.525ZM240.675 195.284V196.803H240.711C240.75 196.803 240.789 196.796 240.822 196.776C240.933 196.711 241.181 196.511 241.181 196.044C241.181 195.905 241.24 195.723 241.301 195.572C241.355 195.439 241.261 195.284 241.117 195.284H240.675ZM228.525 196.803H240.675V195.284H228.525V196.803Z" fill="#EAD11F"/>
</g>
<path d="M229.436 196.044H239.764" stroke="#658864" stroke-width="0.6075"/>
<path d="M253.432 194.829L254.951 196.044L253.432 197.259" stroke="#658864" stroke-width="0.30375"/>
<g style="mix-blend-mode:multiply" opacity="0.55">
<path d="M228.525 201.663V200.144H228.489C228.45 200.144 228.411 200.151 228.378 200.171C228.267 200.237 228.019 200.436 228.019 200.904C228.019 201.042 227.959 201.224 227.898 201.376C227.845 201.508 227.939 201.663 228.083 201.663H228.525ZM240.675 200.144V201.663H240.711C240.75 201.663 240.789 201.656 240.822 201.636C240.933 201.571 241.181 201.371 241.181 200.904C241.181 200.765 241.24 200.583 241.301 200.432C241.355 200.299 241.261 200.144 241.117 200.144H240.675ZM228.525 201.663H240.675V200.144H228.525V201.663Z" fill="#EAD11F"/>
</g>
<path d="M229.436 200.904H239.764" stroke="#658864" stroke-width="0.6075"/>
<path d="M253.432 199.689L254.951 200.904L253.432 202.119" stroke="#658864" stroke-width="0.30375"/>
<g style="mix-blend-mode:multiply" opacity="0.55">
<path d="M228.525 206.523V205.004H228.489C228.45 205.004 228.411 205.011 228.378 205.031C228.267 205.097 228.019 205.296 228.019 205.764C228.019 205.902 227.959 206.084 227.898 206.235C227.845 206.368 227.939 206.523 228.083 206.523H228.525ZM240.675 205.004V206.523H240.711C240.75 206.523 240.789 206.516 240.822 206.496C240.933 206.431 241.181 206.231 241.181 205.764C241.181 205.625 241.24 205.443 241.301 205.292C241.355 205.159 241.261 205.004 241.117 205.004H240.675ZM228.525 206.523H240.675V205.004H228.525V206.523Z" fill="#EAD11F"/>
</g>
<path d="M229.436 205.764H239.764" stroke="#658864" stroke-width="0.6075"/>
<path d="M253.432 204.549L254.951 205.764L253.432 206.979" stroke="#658864" stroke-width="0.30375"/>
<rect x="271.669" y="152.304" width="36.45" height="74.115" rx="4.55625" stroke="#658864" stroke-width="0.6075"/>
<path d="M282.3 156.556H289.286H296.88C297.551 156.556 298.095 156.012 298.095 155.341V154.734C298.095 154.398 298.367 154.126 298.702 154.126H303.259C304.936 154.126 306.296 155.486 306.296 157.164V220.951C306.296 222.629 304.936 223.989 303.259 223.989H276.529C274.851 223.989 273.491 222.629 273.491 220.951V157.164C273.491 155.486 274.851 154.126 276.529 154.126H280.477C280.813 154.126 281.085 154.398 281.085 154.734V155.341C281.085 156.012 281.629 156.556 282.3 156.556Z" stroke="#658864" stroke-width="0.6075"/>
<rect x="273.491" y="158.379" width="32.805" height="34.02" stroke="#658864" stroke-width="0.6075"/>
<path d="M273.491 221.255H306.296" stroke="#658864" stroke-width="0.6075"/>
<path d="M273.491 213.661H286.249L286.438 213.39C288.348 210.663 292.433 210.806 294.146 213.661V213.661H305.992" stroke="#658864" stroke-width="0.6075"/>
<path d="M293.599 216.395C293.599 218.274 292.076 219.797 290.197 219.797C288.318 219.797 286.795 218.274 286.795 216.395C286.795 214.516 288.318 212.993 290.197 212.993C292.076 212.993 293.599 214.516 293.599 216.395Z" stroke="#658864" stroke-width="0.486"/>
<path d="M282.148 217.61C282.148 218.533 281.4 219.281 280.477 219.281C279.555 219.281 278.807 218.533 278.807 217.61C278.807 216.687 279.555 215.939 280.477 215.939C281.4 215.939 282.148 216.687 282.148 217.61Z" stroke="#658864" stroke-width="0.30375"/>
<path d="M301.588 217.61C301.588 218.533 300.84 219.281 299.917 219.281C298.995 219.281 298.247 218.533 298.247 217.61C298.247 216.687 298.995 215.939 299.917 215.939C300.84 215.939 301.588 216.687 301.588 217.61Z" stroke="#658864" stroke-width="0.30375"/>
<path d="M288.375 214.573L292.02 218.218" stroke="#658864" stroke-width="0.486"/>
<path d="M288.375 218.218L292.02 214.573" stroke="#658864" stroke-width="0.486"/>
<path d="M279.566 216.699L281.389 218.521" stroke="#658864" stroke-width="0.30375"/>
<path d="M279.566 218.521L281.389 216.699" stroke="#658864" stroke-width="0.30375"/>
<path d="M299.006 216.699L300.829 218.521" stroke="#658864" stroke-width="0.30375"/>
<path d="M299.006 218.521L300.829 216.699" stroke="#658864" stroke-width="0.30375"/>
<g style="mix-blend-mode:multiply" opacity="0.55">
<path d="M276.832 196.803V195.284H276.796C276.757 195.284 276.719 195.291 276.685 195.311C276.575 195.377 276.326 195.576 276.326 196.044C276.326 196.182 276.267 196.364 276.206 196.516C276.152 196.648 276.247 196.803 276.39 196.803H276.832ZM288.982 195.284V196.803H289.019C289.057 196.803 289.096 196.796 289.129 196.776C289.24 196.711 289.489 196.511 289.489 196.044C289.489 195.905 289.548 195.723 289.609 195.572C289.663 195.439 289.568 195.284 289.425 195.284H288.982ZM276.832 196.803H288.982V195.284H276.832V196.803Z" fill="#EAD11F"/>
</g>
<path d="M277.744 196.044H288.071" stroke="#658864" stroke-width="0.6075"/>
<path d="M301.74 194.829L303.259 196.044L301.74 197.259" stroke="#658864" stroke-width="0.30375"/>
<g style="mix-blend-mode:multiply" opacity="0.55">
<path d="M276.832 201.663V200.144H276.796C276.757 200.144 276.719 200.151 276.685 200.171C276.575 200.237 276.326 200.436 276.326 200.904C276.326 201.042 276.267 201.224 276.206 201.376C276.152 201.508 276.247 201.663 276.39 201.663H276.832ZM288.982 200.144V201.663H289.019C289.057 201.663 289.096 201.656 289.129 201.636C289.24 201.571 289.489 201.371 289.489 200.904C289.489 200.765 289.548 200.583 289.609 200.432C289.663 200.299 289.568 200.144 289.425 200.144H288.982ZM276.832 201.663H288.982V200.144H276.832V201.663Z" fill="#EAD11F"/>
</g>
<path d="M277.744 200.904H288.071" stroke="#658864" stroke-width="0.6075"/>
<path d="M301.74 199.689L303.259 200.904L301.74 202.119" stroke="#658864" stroke-width="0.30375"/>
<g style="mix-blend-mode:multiply" opacity="0.55">
<path d="M276.832 206.523V205.004H276.796C276.757 205.004 276.719 205.011 276.685 205.031C276.575 205.097 276.326 205.296 276.326 205.764C276.326 205.902 276.267 206.084 276.206 206.235C276.152 206.368 276.247 206.523 276.39 206.523H276.832ZM288.982 205.004V206.523H289.019C289.057 206.523 289.096 206.516 289.129 206.496C289.24 206.431 289.489 206.231 289.489 205.764C289.489 205.625 289.548 205.443 289.609 205.292C289.663 205.159 289.568 205.004 289.425 205.004H288.982ZM276.832 206.523H288.982V205.004H276.832V206.523Z" fill="#EAD11F"/>
</g>
<path d="M277.744 205.764H288.071" stroke="#658864" stroke-width="0.6075"/>
<path d="M301.74 204.549L303.259 205.764L301.74 206.979" stroke="#658864" stroke-width="0.30375"/>
<g style="mix-blend-mode:multiply" opacity="0.55">
<path d="M191.33 215.002L192.19 214.143L192.169 214.122C192.147 214.101 192.121 214.083 192.091 214.075C191.991 214.049 191.738 214.022 191.474 214.286C191.395 214.364 191.259 214.434 191.139 214.485C191.033 214.53 190.999 214.671 191.08 214.752L191.33 215.002ZM195.835 217.788L194.975 218.647L194.996 218.668C195.018 218.689 195.044 218.708 195.074 218.715C195.174 218.741 195.427 218.768 195.691 218.504C195.77 218.426 195.906 218.356 196.026 218.305C196.132 218.26 196.166 218.119 196.085 218.038L195.835 217.788ZM191.33 215.002L194.975 218.647L195.835 217.788L192.19 214.143L191.33 215.002Z" fill="#EAD11F"/>
</g>
<g style="mix-blend-mode:multiply" opacity="0.55">
<path d="M195.835 215.002L194.975 214.143L194.996 214.122C195.018 214.101 195.044 214.083 195.074 214.075C195.174 214.049 195.427 214.022 195.691 214.286C195.77 214.364 195.906 214.434 196.026 214.485C196.132 214.53 196.166 214.671 196.085 214.752L195.835 215.002ZM191.33 217.788L192.19 218.647L192.169 218.668C192.147 218.689 192.121 218.708 192.091 218.715C191.991 218.741 191.738 218.768 191.474 218.504C191.395 218.426 191.259 218.356 191.139 218.305C191.033 218.26 190.999 218.119 191.08 218.038L191.33 217.788ZM195.835 215.002L192.19 218.647L191.33 217.788L194.975 214.143L195.835 215.002Z" fill="#EAD11F"/>
</g>
<rect x="175.054" y="152.304" width="36.45" height="74.115" rx="4.55625" stroke="#658864" stroke-width="0.6075"/>
<path d="M185.685 156.556H192.671H200.265C200.936 156.556 201.48 156.012 201.48 155.341V154.734C201.48 154.398 201.752 154.126 202.087 154.126H206.644C208.321 154.126 209.681 155.486 209.681 157.164V220.951C209.681 222.629 208.321 223.989 206.644 223.989H179.914C178.236 223.989 176.876 222.629 176.876 220.951V157.164C176.876 155.486 178.236 154.126 179.914 154.126H183.862C184.198 154.126 184.47 154.398 184.47 154.734V155.341C184.47 156.012 185.014 156.556 185.685 156.556Z" stroke="#658864" stroke-width="0.6075"/>
<path d="M176.573 158.075H209.985" stroke="#658864" stroke-width="0.6075"/>
<path d="M176.876 221.255H209.681" stroke="#658864" stroke-width="0.6075"/>
<path d="M176.876 213.661H189.634L189.823 213.39C191.733 210.663 195.818 210.806 197.531 213.661V213.661H209.377" stroke="#658864" stroke-width="0.6075"/>
<path d="M196.985 216.395C196.985 218.274 195.461 219.797 193.583 219.797C191.704 219.797 190.18 218.274 190.18 216.395C190.18 214.516 191.704 212.993 193.583 212.993C195.461 212.993 196.985 214.516 196.985 216.395Z" stroke="#658864" stroke-width="0.486"/>
<path d="M185.533 217.61C185.533 218.533 184.785 219.281 183.863 219.281C182.94 219.281 182.192 218.533 182.192 217.61C182.192 216.687 182.94 215.939 183.863 215.939C184.785 215.939 185.533 216.687 185.533 217.61Z" stroke="#658864" stroke-width="0.30375"/>
<path d="M204.973 217.61C204.973 218.533 204.225 219.281 203.302 219.281C202.38 219.281 201.632 218.533 201.632 217.61C201.632 216.687 202.38 215.939 203.302 215.939C204.225 215.939 204.973 216.687 204.973 217.61Z" stroke="#658864" stroke-width="0.30375"/>
<path d="M191.76 214.573L195.405 218.218" stroke="#658864" stroke-width="0.486"/>
<path d="M191.76 218.218L195.405 214.573" stroke="#658864" stroke-width="0.486"/>
<path d="M182.951 216.699L184.774 218.521" stroke="#658864" stroke-width="0.30375"/>
<path d="M182.951 218.521L184.774 216.699" stroke="#658864" stroke-width="0.30375"/>
<path d="M202.391 216.699L204.214 218.521" stroke="#658864" stroke-width="0.30375"/>
<path d="M202.391 218.521L204.214 216.699" stroke="#658864" stroke-width="0.30375"/>
<path d="M153.599 214.932L158.146 210.764L188.42 246.27C188.688 246.584 188.816 246.994 188.775 247.405L188.733 247.821C188.578 249.371 187.274 250.551 185.717 250.551L185.36 250.551C184.922 250.551 184.506 250.362 184.218 250.032L153.599 214.932Z" fill="#EFEBE6"/>
<path d="M153.599 214.932L184.218 250.032C184.506 250.362 184.922 250.551 185.36 250.551L185.717 250.551C187.274 250.551 188.578 249.371 188.733 247.821L188.775 247.405C188.816 246.994 188.688 246.584 188.42 246.27L158.146 210.764" stroke="#EFEBE6" stroke-width="3.03137"/>
<path d="M153.599 214.932L184.218 250.032C184.506 250.362 184.922 250.551 185.36 250.551L185.717 250.551C187.274 250.551 188.578 249.371 188.733 247.821L188.775 247.404C188.816 246.994 188.688 246.584 188.42 246.27L158.146 210.764" stroke="#658864"/>
<path d="M133.683 193.348C132.809 192.305 132.562 190.873 133.036 189.597L133.221 189.101C133.58 188.133 134.155 187.259 134.901 186.546L136.326 185.183C136.637 184.886 137.131 184.907 137.417 185.228L160.621 211.367L153.654 217.213L133.683 193.348Z" fill="#DAD7D3"/>
<path d="M160.561 211.296L137.416 185.228C137.131 184.907 136.637 184.886 136.326 185.183L134.898 186.548C134.153 187.259 133.58 188.131 133.22 189.096L133.036 189.59C132.56 190.867 132.806 192.301 133.68 193.346L153.595 217.142" stroke="#DAD7D3" stroke-width="3.78921"/>
<path d="M137.043 185.56L159.905 211.315L153.716 216.508L134.066 193.027C133.308 192.121 133.094 190.879 133.505 189.771L133.689 189.275C134.023 188.378 134.555 187.568 135.247 186.907L136.672 185.545C136.777 185.444 136.946 185.45 137.043 185.56Z" stroke="#658864"/>
</svg>
